<svg width="176" height="259" viewBox="0 0 176 259" fill="none" xmlns="http://www.w3.org/2000/svg">
<g id="black-K">
<g id="layer1">
<g id="g1517">
<g id="g3710">
<path id="path3450" d="M140.846 3.3564L54.0785 3.44479L65.0294 22.8404C87.5869 21.0382 107.343 22.7798 127.929 23.4744L140.846 3.3564ZM81.3503 71.2086C81.2595 71.321 77.7372 72.1515 78.0932 72.8932C87.2181 91.1659 91.27 106.022 95.0419 124.783C96.9866 123.33 100.124 123.399 100.124 123.399C98.6006 116.432 108.069 115.597 108.105 122.881C109.92 123.278 111.789 123.29 113.423 124.998C114.232 104.514 122.235 83.345 132.525 68.6936C120.841 72.9347 103.685 83.547 103.685 83.547C103.685 83.547 89.4574 78.0416 81.3503 71.2086ZM152.265 73.6371C136.688 87.2506 130.478 125.17 131.59 125.697C111.575 125.008 105.437 145.445 122.749 156.537C122.056 158.674 120.356 160.409 119.036 162.295C120.822 163.251 122.775 163.461 124.726 163.667C126.202 165.3 127.652 167.183 129.26 167.343C131.009 166.33 132.255 164.842 133.713 163.557C135.528 163.136 137.329 162.668 139.053 161.946C137.535 159.968 135.735 157.968 135.695 156.121C150.815 146.314 148.792 132.898 135.216 125.987C139.346 103.422 145.306 89.0191 152.201 78.786L152.265 73.6371ZM45.2543 90.7087C43.2784 91.5942 42.1956 93.474 40.7589 94.947C38.7933 95.0231 36.8983 95.639 35.0234 96.4063C35.0234 96.4063 39.5034 102.184 39.2237 102.493C24.6014 111.302 24.6754 124.252 38.6554 132.83C40.9644 151.268 23.9701 180.374 23.12 179.523L23.0685 185.553C34.8654 173.538 41.5945 151.659 42.8232 133.674C66.8372 132.276 67.7628 110.776 51.263 102.63C49.9961 101.545 55.4397 96.567 55.4397 96.567C54.0665 95.3048 51.7627 95.1541 49.7453 94.9925C48.4772 93.5778 47.3721 92.1678 45.2543 90.7087ZM146.747 105.945C150.117 112.956 162.548 104.471 164.687 108.203C166.426 110.321 170.229 110.551 170.035 106.992C169.333 103.465 166.833 102.675 156.898 104.176C153.129 104.745 151.583 105.084 151.612 103.493C149.016 100.568 146.767 104.527 146.747 105.945ZM158.229 116.2C155.445 116.188 154.936 126.277 154.966 129.307C146.864 141.079 171.464 139.823 160.873 126.931C161.249 125.253 159.532 122.508 159.584 121.297C158.713 121.191 158.346 116.634 158.229 116.2ZM16.4129 121.771C12.0508 121.858 7.24217 125.554 14.2168 130.917C14.6829 131.067 13.9774 132.19 14.2117 133.923C16.1692 137.873 15.6156 143.709 17.0864 142.818C18.7868 141.787 20.2194 137.436 19.8748 131.351C19.8522 130.952 19.2836 130.528 19.3915 130.097C23.3377 124.107 20.0275 121.699 16.4132 121.771L16.4129 121.771ZM61.0064 133.233C59.8174 152.939 54.5407 172.259 42.679 188.987C52.8545 184.633 62.7347 179.003 72.2934 174.188L94.5465 187.06C95.8397 186.545 96.7347 186.293 97.5933 185.512C87.3665 171.543 84.2564 151.479 79.843 133.322C78.1354 134.436 74.9298 134.987 74.9298 134.987C74.6788 141.278 67.5526 143.293 66.1273 135.082L61.0064 133.233ZM7.135 148.422C4.75606 148.553 2.94844 154.006 9.68311 154.838C14.4356 155.478 20.5317 153.329 23.5483 154.344C27.0417 159.549 30.2207 151.917 25.5323 150.653C20.4958 149.296 10.2165 152.755 9.09117 149.781C8.51093 148.765 7.80109 148.385 7.135 148.422ZM47.2787 233.935L33.7499 255.916L119.756 255.735L108.588 234.685C108.781 234.453 71.0102 238.716 47.2787 233.935Z" fill="#E2CF00"/>
<path id="path3446" d="M66.6742 24.7302L68.0605 27.8255C86.5424 25.8189 105.877 23.7416 125.211 28.3718C125.211 28.3718 126.64 25.5193 126.619 25.3127C108.604 20.9974 68.2817 21.9601 66.6742 24.7302ZM85.2165 68.197L102.759 78.8023C102.759 78.8023 111.197 73.3161 114.794 70.995L112.626 68.0207C105.138 83.1918 92.1114 71.1276 87.2363 63.9599C87.2363 63.9599 85.8953 66.725 85.2165 68.197ZM132.416 73.463C133.634 73.4432 134.308 73.8808 134.916 75.0327C135.603 76.3333 135.868 76.0142 135.429 74.3937C134.737 71.8384 137.667 70.1873 140.415 71.9014C142.4 73.1391 142.303 76.1167 140.127 76.6608C138.37 77.1003 138.323 77.5271 139.865 77.4629C142.633 77.3477 143.356 80.7727 141.382 82.4396C139.112 84.356 136.231 82.982 135.976 80.5678C135.857 79.885 135.702 79.894 135.457 80.2796C134.755 81.3907 134.685 82.8383 134.817 84.1494L130.737 81.7838C132.195 81.1209 133.083 80.7205 134.139 79.7109C134.277 79.5792 134.381 79.4828 134.379 79.4251C134.378 79.322 133.924 79.4585 133.091 79.536C130.62 79.7661 128.725 78.2751 129.239 76.1211C129.677 74.2885 130.704 73.4924 132.416 73.463ZM114.182 132.881C118.645 128.18 124.178 125.172 131.851 125.622C132.895 105.862 140.348 88.314 152.24 72.523L139.243 65.2182L134.008 68.1226C121.386 84.603 113.594 105.543 114.182 132.881ZM16.7387 86.3599C16.7387 86.3599 7.90222 92.4512 3.79637 95.3936L3.80405 149.889L4.94142 150.254C5.02215 150.371 4.84489 149.446 5.36844 149.025C5.79648 148.681 6.47489 148.291 6.87689 148.157C8.01148 147.779 8.06418 147.079 7.00879 146.469C6.19003 145.997 5.88027 145.269 5.97868 144.063C6.04813 143.211 6.00978 143.025 5.62877 142.446C5.15523 141.725 5.11826 140.816 5.52638 139.874C5.71589 139.437 5.69825 139.319 5.36508 138.726C4.94081 137.972 4.89273 137.16 5.21346 136.287C5.33609 135.954 5.42648 135.224 5.4172 134.66C5.38168 132.489 7.31944 131.056 10.8903 130.615C12.2862 130.442 12.3291 130.389 11.6923 129.302C8.09916 123.168 16.2309 120.006 16.8351 120.988L16.7387 86.3599ZM127.942 89.7873C131.241 89.7544 133.946 92.2037 133.983 95.2628C134.021 98.3218 131.376 100.829 128.077 100.862C124.778 100.895 122.073 98.4411 122.036 95.382C121.999 92.3229 124.644 89.8202 127.942 89.7873ZM127.995 90.7762C125.354 90.8025 123.239 92.8073 123.269 95.2566C123.299 97.706 125.462 99.6728 128.103 99.6464C130.744 99.62 132.864 97.6105 132.834 95.1612C132.804 92.7118 130.636 90.7498 127.995 90.7762ZM128.114 92.1836C129.905 92.1658 131.376 93.4957 131.396 95.1567C131.416 96.8176 129.978 98.1813 128.187 98.1992C126.396 98.217 124.93 96.8824 124.909 95.2214C124.889 93.5605 126.323 92.2015 128.114 92.1836ZM9.53599 94.0455C9.77893 94.0423 10.0375 94.0775 10.2994 94.1556C11.7863 94.5994 12.3021 95.8166 11.4919 96.9658C10.8555 97.8683 10.9279 97.9462 12.0377 97.5681C12.9106 97.2707 13.3543 97.367 14.0396 98.0004C16.0941 99.8994 13.0149 103.069 11.0041 101.135C10.0082 100.178 9.91211 100.458 10.5993 102.101C10.8217 102.632 11.1895 103.458 11.1895 103.458L8.23164 103.408C8.23164 103.408 8.69499 102.316 8.90895 101.802C9.42512 100.561 9.44269 100.379 8.37276 101.157C5.95998 102.911 3.24181 99.8856 5.463 97.921C5.91477 97.5215 6.63792 97.5059 7.6419 97.8758C8.37335 98.1452 8.4625 97.96 7.91454 97.3171C6.72258 95.9188 7.83538 94.0674 9.53599 94.0455ZM70.8216 99.1428C69.5933 106.442 70.6073 116.694 70.5625 122.17C73.7674 122.748 73.7963 124.774 74.2802 127.293C75.8408 126.795 79.2416 128.942 79.7089 128.756C80.0897 121.348 76.0102 99.8247 70.8216 99.1428ZM124.009 106.647C128.56 107.002 127.677 110.259 126.316 111.594C125.671 112.279 125.789 112.588 126.496 112.195C128.422 111.125 129.946 111.908 130.559 113.766C131.607 116.94 127.103 119.655 125.109 116.803C124.434 115.836 124.017 116.053 124.18 117.062C124.279 118.035 125.296 120.053 125.296 120.053L120.83 119.666C120.83 119.666 122.202 117.565 122.444 116.999C122.946 115.824 122.684 115.51 121.726 116.455C118.925 118.816 115.064 115.767 116.879 112.631C117.774 111.084 119.415 110.589 121.182 111.829C122.373 112.556 122.632 112.244 121.568 111.364C119.579 109.719 121.329 106.439 124.009 106.647ZM9.70073 108.837C9.7517 108.835 9.80127 108.834 9.8531 108.836C10.2357 108.844 10.6364 108.944 11.0356 109.154C12.1435 109.737 12.4437 110.879 11.7444 111.87C11.3421 112.44 11.4573 112.8 11.9239 112.429C12.5486 111.931 13.9227 112.268 14.4563 113.049C15.8269 115.054 13.1262 117.662 11.4135 115.991C10.6574 115.253 10.3672 115.222 10.4535 115.705C10.6974 116.612 11.3353 118.161 11.3353 118.161L8.24143 118.2C8.24143 118.2 8.91501 116.576 9.06621 115.752C9.18236 115.099 8.90123 115.193 8.1617 115.962C7.44247 116.71 6.79042 116.785 5.87868 116.22C3.6289 114.827 5.44713 111.276 7.79419 112.479C8.6027 112.894 8.71697 112.656 8.08661 111.878C6.96089 110.488 8.11997 108.903 9.70073 108.837ZM170.322 108.127C165.298 112.908 166.878 110.076 169.187 113.742C169.187 116.154 170.698 118.047 169.482 121.849C169.094 122.591 169.059 122.945 169.267 123.694C168.885 127.897 165.254 127.831 161.72 128.471C162.305 128.437 167.285 137.038 157.936 137.677L157.92 172.572L172.612 162.603L172.738 108.135L170.322 108.127ZM60.2743 126.166C56.1102 128.635 50.2512 134.82 42.9143 133.446C41.9499 155.214 34.1862 172.042 23.1454 186.488C26.9325 188.582 31.1007 191.093 34.9757 192.707C38.2622 191.149 40.1069 190.502 43.3354 188.056C56.6139 169.175 60.8761 148.5 60.2743 126.166ZM94.7616 130.268C95.4642 141.452 97.389 152.047 103.631 160.563L104.139 136.803C101.906 136.299 100.079 134.953 99.4403 131.151L94.7616 130.268ZM49.4097 136.706L53.6005 136.812C53.6005 136.812 52.6435 138.566 52.2284 139.547C51.7243 140.745 51.9607 140.991 52.9192 140.16C54.1667 139.078 56.1496 138.984 57.1893 139.957C59.95 142.54 57.0386 146.723 53.769 144.872C52.3692 144.08 52.1336 144.343 53.2428 145.461C55.4012 147.332 53.131 150.006 50.601 150.009C48.7716 149.996 47.5911 148.636 47.4525 147.141C47.3857 146.201 47.898 145.259 48.7793 144.804C49.6982 144.329 49.0423 144.016 48.0442 144.51C44.7852 146.122 42.6227 141.945 45.0859 139.582C46.5062 138.219 48.0038 138.352 49.4382 139.662C50.4397 140.577 50.7998 140.497 50.52 139.418C50.2387 138.204 49.4097 136.706 49.4097 136.706ZM162.53 140.373L165.533 140.386C165.235 141.074 164.851 141.776 164.609 142.456C164.348 143.197 164.537 143.292 165.335 142.577C167.409 141.296 169.612 142.593 169.156 144.633C168.842 146.04 167.568 146.726 166.101 146.11C164.807 145.566 165.222 145.798 165.956 146.623C166.828 147.603 166.602 148.743 165.441 149.494C163.387 150.823 160.689 148.594 162.051 146.661C162.855 145.512 162.488 145.636 161.758 146.191C160.663 146.928 159.015 145.873 158.988 144.418C158.869 142.326 161.151 141.156 162.751 142.642C163.514 143.242 163.704 143.17 163.362 142.3C163.048 141.668 162.948 140.993 162.53 140.373ZM162.638 155.589L165.785 155.567C165.785 155.567 165.74 155.79 165.252 156.633C164.679 157.624 164.763 158.651 165.36 157.956C166.368 156.783 168.499 157.118 169.193 158.558C170.001 160.236 168.408 162.081 166.763 161.371C165.694 160.911 165.62 161.009 166.328 161.965C167.017 162.895 166.706 164.033 165.579 164.695C163.364 165.996 160.724 163.375 162.571 161.71C163.065 161.264 162.911 161.046 162.312 161.345C159.868 162.566 158.079 159.503 160.195 157.72C161.096 156.961 161.783 157.016 163.257 157.967C163.716 158.263 163.805 157.96 163.476 157.211C162.916 155.935 162.638 155.589 162.638 155.589ZM45.8035 157.012C49.3063 156.977 52.1749 159.58 52.2145 162.828C52.254 166.076 49.4494 168.74 45.9466 168.775C42.4438 168.81 39.5699 166.203 39.5304 162.955C39.4909 159.706 42.3007 157.047 45.8035 157.012ZM45.8721 158.062C42.9945 158.091 40.6866 160.274 40.7191 162.943C40.7516 165.611 43.1121 167.753 45.9897 167.724C48.8672 167.695 51.1751 165.507 51.1426 162.839C51.1102 160.17 48.7497 158.034 45.8721 158.062ZM45.9252 159.918C47.6966 159.9 49.1467 161.216 49.1667 162.858C49.1867 164.501 47.769 165.85 45.9976 165.868C44.2261 165.885 42.771 164.565 42.751 162.922C42.731 161.28 44.1537 159.936 45.9252 159.918ZM37.9029 174.14L41.5584 175.813C41.5584 175.813 39.8226 177.113 39.1312 177.784C38.2475 178.648 38.3072 179.054 39.4978 178.643C41.7682 177.86 44.035 179.053 44.0699 181.235C44.1166 184.148 40.3962 185.538 38.62 183.326C38.0919 182.668 37.4595 182.393 37.7058 182.93C38.3051 184.236 37.9302 185.876 36.876 186.547C36.0321 187.084 34.4905 187.237 33.7147 186.861C31.0466 185.567 30.9178 182.711 33.4779 181.592C34.7649 181.029 34.8093 180.498 33.5443 180.785C30.9102 181.384 29.3859 178.425 31.2912 176.403C33.3134 174.256 36.5965 174.713 36.9486 177.901C37.0112 178.468 37.4293 178.059 37.6185 177.192C37.8444 176.547 37.9029 174.14 37.9029 174.14ZM72.0147 179.05C72.0147 179.05 58.5827 186.078 58.99 186.378C59.0689 186.422 61.9481 190.206 61.9481 190.206C68.6486 176.253 84.538 187.883 87.0649 195.028C87.6173 195.346 87.712 195.256 88.3128 195.508C88.3713 195.005 89.4935 190.052 89.4935 190.052L72.0147 179.05ZM50.3345 230.363C49.6601 231.14 47.405 233.343 47.6879 233.427C67.3779 237.423 87.6997 237.182 108.392 235.172L106.829 230.559C86.3864 235.315 50.3345 230.363 50.3345 230.363Z" fill="#D40000"/>
<path id="path3444" d="M1.38597 1.04098L1.69691 257.923L174.614 257.959L174.474 1.33532L1.38597 1.04098ZM53.9678 3.0547L140.211 3.02888C136.133 12.7533 124.43 28.099 124.981 28.1375C107.051 25.326 88.5638 23.8745 67.8685 27.8987L53.9678 3.0547ZM3.3744 3.50456L51.771 3.6152L67.6403 30.2027C67.6403 30.2027 68.5718 31.8616 68.0059 33.592C67.3882 35.4803 66.8599 36.3176 66.3067 37.2807C66.3637 36.7304 61.711 36.1681 62.0876 39.8649C62.3425 42.3672 65.7516 43.7938 68.3003 41.8565C68.7066 41.8264 68.7022 42.176 68.6113 42.7862C68.3717 44.2185 66.7148 48.7607 65.5881 49.0585C59.8731 44.6813 57.8006 52.6314 61.6586 54.2314C63.892 55.1576 67.3347 54.4106 68.9511 51.9227C70.1876 50.0196 70.0502 50.3341 70.4297 52.6504C70.5708 53.5118 70.771 54.5102 70.8744 54.9592C71.1976 56.3634 70.8689 56.6343 68.3201 57.2621C66.2683 57.9952 64.1898 58.3967 62.0749 58.8132C58.2105 59.3871 56.2269 62.0819 56.1192 65.3695C56.0959 66.0802 56.122 66.409 55.9566 66.6196C39.596 72.3137 22.204 80.3006 3.94174 93.9788L3.3744 3.50456ZM112.88 66.8855C112.264 65.9551 110.302 61.0744 109.767 59.0393C108.383 49.1757 108.154 37.4721 106.671 28.2899L108.667 28.5044C108.667 28.5044 109.408 31.1642 110.191 38.3454C110.578 41.9053 110.97 49.3043 111.292 52.7064C111.779 57.7614 114.213 65.8502 115.731 67.8953C118.207 71.2305 123.215 69.0962 121.556 65.1405C120.696 63.0882 117.335 63.4083 117.793 65.5366C117.8 65.9159 118.113 65.2665 118.606 64.8684C120.06 64.3636 121.689 65.7705 120.831 67.4548C119.764 69.6053 116.636 68.6113 115.606 65.8925C114.376 62.6446 118.566 60.2275 121.688 62.2166C125.165 64.4324 125.153 70.0189 122.34 71.7723C117.611 73.3534 114.41 70.1508 112.88 66.8855ZM124.544 71.0357C124.354 70.9309 124.552 70.5921 124.788 69.7865C125.672 66.7747 125.13 64.42 123.034 62.1953C121.867 60.9559 121.426 60.7373 122.041 60.5154C123.344 60.0452 126.212 61.991 126.995 63.8969C127.768 65.7683 127.957 67.7016 126.851 69.8106C126.086 70.2611 124.896 71.1661 124.544 71.0357ZM128.11 69.0403C128.108 68.6876 128.368 67.5759 128.429 67.0318C128.664 64.929 127.61 62.7895 125.739 61.113C124.169 59.7061 124.025 59.5613 125.516 59.5432C129.361 59.4967 131.793 65.2695 130.008 68.1032C129.55 68.5516 128.154 69.4677 128.11 69.0403ZM131.372 67.1007C132.521 62.1904 127.408 58.8972 127.304 59.0501C127.563 57.9498 129.597 58.5899 130.289 59.0209C132.874 60.6432 134.349 64.865 132.75 67.2562C132.576 67.5497 132.363 67.718 132.083 67.8756C131.547 68.185 131.231 68.4344 131.123 68.2157C131.041 68.0501 131.341 67.3358 131.372 67.1007ZM86.3349 51.0001C86.8722 50.5146 87.0325 50.5012 88.0605 50.8651C91.2816 52.0054 93.8645 49.8689 93.1114 47.6111C92.8387 46.7934 91.6334 45.9029 90.89 45.8288C89.6753 45.7078 89.6488 46.3026 90.9572 46.761C92.5644 47.3241 92.7215 48.908 91.3018 49.6173C89.6346 50.6533 86.9186 47.9994 84.9191 48.2158C83.9626 48.4772 83.3482 49.3037 83.8906 50.3178C84.3143 51.0292 85.7505 51.4641 86.3349 51.0001ZM82.7589 50.6647C81.6423 50.1794 81.2163 50.187 81.4341 49.0562C81.5775 48.3118 82.7402 43.3033 83.2914 41.3677C84.942 35.5712 83.4214 32.3496 78.8082 31.0365C75.6818 30.1466 72.9859 30.5826 69.792 32.1439L69.224 30.5014C82.6023 27.3053 105.412 28.1042 105.33 28.2294C105.775 29.8994 105.941 31.5684 106.111 33.2374C106.111 33.2374 101.843 31.2782 99.6159 30.6233C96.1842 29.635 90.7515 30.6868 89.783 32.5117C89.2339 33.5465 89.5153 34.2388 91.8273 33.0943C95.6113 31.2213 103.321 32.6855 106.033 34.6949C106.658 35.1578 106.626 35.2584 106.636 35.7987C106.651 36.6226 106.703 36.6711 105.468 36.0535C98.9961 32.9573 93.4548 33.2944 91.5293 37.323C91.0897 37.1982 89.4095 36.9239 89.4095 36.9239L91.2059 39.4054L91.54 41.9974C91.54 41.9974 94.4842 43.525 96.1079 44.1732C97.7058 44.8076 96.7872 44.1351 94.8273 42.8606C93.3885 41.925 94.5366 41.6308 95.4867 41.9904C97.4421 42.4134 100.301 42.9519 103.619 41.014C104.65 40.4121 107.002 40.9456 107.038 41.2199C107.038 41.2199 107.344 43.4866 107.638 48.2152C107.778 50.452 108.064 53.3744 108.229 54.5742C108.726 58.199 108.871 58.4056 106.822 56.6612C106.134 56.0759 104.988 55.1051 104.974 55.1626C104.71 56.2852 107.736 58.2692 108.44 58.9489C109.508 59.9804 110.359 62.6144 109.929 62.769C109.657 62.8669 106.784 60.5909 104.523 58.5451C103.676 57.7787 102.414 56.7508 102.378 56.7857C101.908 57.0737 103.806 59.0734 105.584 60.5698C107.659 62.316 107.899 62.4725 107.199 62.7322C105.905 63.2116 104.745 62.6057 101.617 60.1901C101.312 59.9549 100.127 59.1696 100.071 59.2256C99.7833 59.5785 102.668 62.1289 103.324 62.3496C104.543 62.7597 104.891 63.8542 103.927 64.28C103.284 64.5641 100.893 63.3389 98.979 61.79C98.636 61.5124 97.6828 61.0386 97.6193 61.1016C97.2377 61.3271 99.378 63.0555 101.422 64.206C103.422 65.3324 103.742 65.6099 103.228 66.5389C102.749 67.4957 98.3566 65.261 96.1636 62.9676C95.697 62.4796 95.3278 62.2688 95.4204 62.4332C96.3702 64.9003 99.5183 66.6766 101.862 67.3877C102.281 67.5164 102.887 67.6753 103.16 67.8778C103.827 68.3724 103.677 68.8842 102.952 69.1702C100.447 69.8125 96.5112 66.9884 93.6986 64.0344C93.372 63.9078 93.5659 64.2939 93.6516 64.4216C95.9938 67.9141 100.493 70.581 103.21 70.0956C104.799 69.8118 106.072 70.2595 106.083 70.7533C106.092 71.1581 105.214 71.8001 103.507 71.907C99.6436 72.1487 93.6231 68.2092 90.1108 63.207C90.0013 63.0511 89.8711 62.9934 89.8623 63.0877C89.7628 64.1451 91.9484 66.7468 93.6266 68.2366C98.6127 72.6626 103.336 74.169 107.032 71.6983C109.117 70.2111 111.138 66.9508 108.044 65.8482C106.406 65.2643 105.361 67.3548 106.766 66.7621C108.61 66.5627 109.026 67.4709 108.783 68.3223C108.308 69.7842 106.744 70.0113 105.474 69.3916C103.265 68.2726 103.749 64.4651 106.616 63.8096C109.199 63.2406 111.444 65.2778 111.733 67.2038C112.183 70.1955 108.534 73.4187 105.614 74.2134C95.6533 76.9241 87.9264 64.0755 87.8825 63.7852C87.3863 62.8927 86.7875 62.4189 86.4052 63.456C85.9925 64.9584 83.7314 69.3606 82.53 69.3298C82.9094 67.7754 84.4933 65.1658 84.1192 62.8736C83.4484 64.7525 82.0341 68.7617 79.3476 70.8902C78.6513 71.4742 76.6108 72.158 78.0188 70.6537C79.7199 68.4521 81.9462 65.4413 81.4974 62.6052C81.0457 63.2405 80.7952 64.8522 80.2777 65.9152C78.9822 68.5766 76.1611 71.7303 74.304 72.2361C72.9326 72.6096 73.0621 72.1812 74.4696 70.8164C75.9785 69.3531 78.6561 65.0507 78.4868 63.1911C78.4139 62.37 75.6999 70.2819 70.6434 72.4328C69.2785 72.8904 68.5056 72.3057 68.5056 72.3057C70.4941 71.253 75.9938 66.2606 75.4961 60.565C75.4961 60.565 75.2008 61.407 74.7649 62.6699C72.8872 68.0978 68.8809 71.6567 65.7674 71.9417C63.2817 72.1693 61.5502 71.2338 62.168 70.8254C65.3896 70.8586 68.0407 69.8352 70.1193 66.9306C72.2319 63.9785 73.0319 59.2259 71.7756 54.1886C70.6426 49.6457 70.4045 45.5634 70.0187 41.199C73.5444 42.3292 77.0932 43.0855 80.5345 41.8521C80.1853 43.151 79.6109 43.3105 78.7007 44.2888C78.0404 45.004 78.2645 45.1755 80.8382 43.5028C81.5871 43.0161 81.858 42.6249 81.9925 42.7564C82.2108 42.9696 81.8653 44.3069 81.1091 46.9723C79.9781 50.958 80.2672 51.2449 84.3953 52.7627C85.1655 53.0458 85.4526 53.3214 85.7216 53.621C85.8475 53.7612 86.5218 54.8962 86.586 54.9363C86.7366 55.0303 86.7014 53.7819 86.6189 53.466C86.4 52.6271 85.9138 51.9963 85.4874 51.7468C84.6786 51.0511 83.5084 50.986 82.7589 50.6647ZM160.609 102.976L160.665 98.8337L164.995 101.704L164.937 103.071L160.609 102.976ZM153.189 103.851L153.298 27.2291C153.298 27.2291 156.636 25.1883 158.304 24.1775C159.334 27.2189 159.304 33.7328 158.904 36.6321C158.245 38.5189 157.925 46.9253 158.65 51.2058C159.227 54.618 159.099 60.2576 158.533 62.9551C158.312 64.009 158.463 68.9526 158.855 73.5269C159.155 77.0228 159.054 80.1996 158.593 82.0166C158.229 83.4484 158.336 88.5843 158.738 90.5556C159.329 93.4558 159.4 102.766 159.129 103.271C158.411 104.019 152.813 104.105 153.189 103.851ZM160.068 23.6898C160.068 23.6898 163.416 25.7563 165.03 26.7893L165.041 30.0905L160.203 27.1385L160.068 23.6898ZM109.974 28.8492L112.048 28.9761C112.861 32.9687 113.203 37.5054 113.516 42.0537C113.597 49.0653 114.505 56.4631 116.263 61.3161L114.732 62.7939C112.155 57.2308 111.981 48.4687 111.422 42.5367C111.192 35.8665 110.033 28.8922 109.974 28.8492ZM160.455 28.3262L164.957 31.1737L164.991 34.7641L160.455 31.952L160.455 28.3262ZM112.967 29.1231L114.788 29.3132C115.326 34.0521 116.165 37.2695 116.47 42.4892C116.864 49.2401 118.107 54.7865 118.873 60.0612L117.507 60.4769C116.592 60.8641 115.099 54.6285 114.469 41.9973C114.278 38.1745 113.595 33.873 112.967 29.1231ZM115.722 29.3108L117.897 29.68C118.818 41.6743 120.299 52.9412 121.869 59.3998L119.976 59.5092C117.661 50.2783 117.546 39.6065 115.722 29.3108ZM118.864 29.7469L120.863 30.0754C123.173 57.506 124.658 57.1574 125.118 58.237L122.951 59.0437C120.639 51.1554 120.205 40.0444 118.864 29.7469ZM127.849 56.7134C127.504 57.6359 126.694 57.5471 125.809 57.6389C124.827 55.1153 124.258 52.1093 123.853 49.1667C122.964 42.7029 122.656 36.6439 121.727 30.2649L124.111 30.4997C124.034 30.5481 125.726 52.9916 127.849 56.7134ZM76.6088 32.4311C79.7527 32.5829 82.3564 33.9006 82.6009 35.8169C82.6558 36.2479 82.2881 36.0373 81.8634 35.7333C79.1659 33.802 76.0907 33.1924 72.3706 34.4192C71.5599 34.6865 70.8958 35.11 70.5341 35.05C70.2096 34.8563 70.1107 34.3888 70.3606 34.0044C71.232 32.6641 75.053 32.356 76.6088 32.4311ZM69.3042 36.2519C69.3609 39.2724 68.5627 40.9348 66.8514 41.6267C64.786 42.4618 62.1475 40.6488 63.4396 38.6355C64.4166 37.1132 66.0851 37.5789 66.3978 39.1828L69.0373 33.7809C69.0373 33.7809 69.2999 35.4954 69.3042 36.2519ZM165.025 36.1014L164.986 39.2141L160.161 36.2002L160.494 33.2085L165.025 36.1014ZM79.2409 35.3965C81.6203 36.2797 82.4912 37.3517 82.5778 37.8272C82.439 38.1808 82.2018 37.9383 80.4652 37.0615C77.7915 35.5286 74.3005 35.2679 71.2257 37.1914C70.4605 37.3289 70.3832 36.9264 71.1522 36.1651C73.4958 34.4755 76.7251 34.4627 79.2409 35.3965ZM97.3358 34.8767C99.4322 34.8227 101.936 35.3253 104.049 36.3173C104.984 36.756 105.823 37.0304 106.431 37.5331C106.918 37.7706 106.952 38.7975 106.595 38.8737C106.276 38.9141 105.755 38.6818 104.976 38.1737C99.9577 35.128 96.338 35.4882 93.4235 37.3421C93.2619 37.4445 92.7616 37.5489 92.5641 37.5344C92.0098 37.4937 91.9819 37.2831 92.2143 37.0053C93.565 35.5997 95.5795 34.9265 97.3358 34.8767ZM160.172 37.2757L165.007 40.433L164.994 43.5209L159.853 40.181L160.172 37.2757ZM72.6893 38.2253L73.3968 38.2466C75.0332 41.9586 77.1088 40.0555 77.9736 38.5745L78.8348 38.7075C77.4686 43.6671 71.988 41.0505 72.6893 38.2253ZM71.483 38.7153C72.2836 38.8074 72.2524 39.6476 72.5011 40.2601C73.0568 41.6289 70.9354 40.4649 70.5724 40.1307C69.9576 39.5265 70.8368 38.7749 71.483 38.7153ZM95.4698 38.6544C97.5486 41.6094 98.7599 39.8686 99.9553 38.589L100.522 38.7592C100.366 40.8749 96.5158 43.1176 94.7075 38.7036L95.4698 38.6544ZM101.894 39.0101C102.118 39.0141 102.566 39.1643 102.978 39.3205C104.119 39.7529 104.058 40.0667 102.79 40.5842C100.764 41.4117 100.06 41.5174 100.67 40.3405C101.02 39.8024 101.254 39.0889 101.894 39.0101ZM93.9534 39.4319C94.4615 39.7808 94.7948 40.166 94.8513 40.7908C94.8912 41.2313 93.3128 40.7185 93.3181 40.017C93.3699 39.5713 93.6313 39.2108 93.9534 39.4319ZM79.9506 39.5509C80.9876 39.9112 80.8616 40.3695 80.137 40.7829C78.8357 41.4497 78.2802 41.3156 79.1236 40.2631C79.5127 39.7775 79.5972 39.5598 79.9506 39.5509ZM159.832 41.3833L165.069 44.8225L165.011 47.9631L159.779 44.6306C159.54 43.2839 159.773 42.3798 159.832 41.3833ZM69.1169 45.9283C69.3657 45.9351 69.4614 46.6981 69.5158 47.8135C69.6062 49.6681 67.5617 52.2432 65.501 53.1255C63.0191 54.1881 60.371 52.6767 60.8229 50.4521C61.2394 48.4018 64.383 48.328 64.4953 50.224C64.1879 50.7215 64.6148 51.1404 64.7904 51.0973C65.5996 50.8989 67.5116 49.3151 68.2932 47.5383C68.5978 46.8459 68.7838 46.1329 69.0006 45.9719C69.0428 45.9406 69.0814 45.9274 69.1169 45.9283ZM159.676 45.6653L164.908 49.2319L164.921 52.3526L159.731 49.0168C159.531 47.6254 159.624 46.6337 159.676 45.6653ZM96.023 50.3851C95.6245 51.0013 95.9459 52.109 96.7618 51.1693C98.8593 48.9211 101.876 51.7542 100.25 53.5419C98.7752 55.1645 96.9689 54.6341 93.1549 53.2688C90.3765 52.2743 89.937 52.6083 89.2487 53.3173C88.6821 53.901 88.9655 55.0815 89.6968 55.0701C91.9494 55.5524 93.9001 56.0213 96.232 56.4795C101.161 57.4349 104.19 51.554 99.6916 49.3733C98.6157 48.8517 96.3824 49.5169 96.023 50.3851ZM74.2526 50.9877C72.3239 52.58 73.8865 56.7884 76.7168 57.1736C77.3094 57.2542 78.1947 57.2346 79.2005 56.9693C81.1838 56.4461 83.3703 55.3669 83.462 54.734C83.8785 51.8586 79.2509 54.4222 78.6383 54.7611C77.1791 55.5758 75.6381 55.4642 74.8653 54.4878C73.1237 52.2871 76.2683 49.78 78.1633 52.4714C78.6415 53.1506 78.4765 52.0022 77.9551 51.2203C77.2189 50.1164 75.3073 50.1812 74.2526 50.9877ZM160.007 50.3808L164.925 53.6283L164.887 56.633L160.118 53.4211L160.007 50.3808ZM160.361 54.7809L165.018 57.9109L165.087 61.0341L160.198 58.0266C160.298 56.9027 160.325 55.846 160.361 54.7809ZM134.181 56.4835C138.285 56.5603 140.582 62.1919 138.409 64.5242C137.763 65.2181 137.248 65.4027 136.957 65.1422C136.895 65.0862 137 64.4575 137.044 63.7468C137.186 61.4806 136.672 59.927 134.889 58.1989C133.552 56.9028 133.047 56.5012 134.181 56.4835ZM83.6365 57.2035C82.8603 57.4569 82.0385 57.9733 81.4039 57.843C80.7771 57.7143 80.476 58.0011 80.2288 58.4563C79.2831 60.1979 79.5719 60.7632 81.4376 59.7789C82.323 59.3119 82.6316 59.4815 84.9954 59.9036C86.6845 60.2053 87.8343 60.18 89.3229 59.8275C91.1732 59.3892 92.2756 59.3584 93.2094 59.836C94.1432 60.3135 94.7811 60.9693 94.8069 60.4373C94.705 59.8141 94.1243 58.219 93.9911 57.6893C93.927 57.4345 93.4662 57.657 93.0308 57.685C91.4979 57.7828 89.6742 56.498 88.4879 57.1697C87.5384 57.7073 87.4126 57.8487 86.1149 57.1369C85.1486 56.6068 84.4766 56.9297 83.6365 57.204L83.6365 57.2035ZM133.073 57.7669C135.845 59.9289 136.55 61.8409 136.275 63.4068C136.133 64.546 136.038 65.8046 134.831 66.4865C134.608 66.5839 134.277 66.6436 133.969 66.6845C134.915 63.4504 133.824 60.5475 129.906 57.4406C131.051 56.9198 132.216 57.0992 133.073 57.7669ZM70.3861 57.5433C70.5095 57.5434 70.6453 57.5627 70.7831 57.6053C71.265 57.7543 71.3369 58.9247 70.956 59.2902C70.5751 59.6557 70.2696 59.3521 69.8328 58.4204C69.5078 57.9127 69.8514 57.5429 70.3861 57.5433ZM67.8163 58.4452C68.8309 58.4294 69.2127 59.2924 69.3844 59.9796C69.5308 60.5652 69.3376 62.3111 68.8008 61.7003C68.6728 61.3299 68.1256 60.1339 67.6857 59.8222C66.7058 59.128 66.8057 58.461 67.8163 58.4452ZM64.9563 59.3029C65.1046 59.2994 65.295 59.3171 65.5259 59.3538C67.1092 59.6053 68.3142 61.9477 67.941 63.273C67.0977 64.697 66.7908 63.7339 66.5186 62.4392C66.3041 61.9021 65.6581 61.0592 65.262 60.6237C64.4397 59.72 64.3135 59.3175 64.9563 59.3029ZM160.21 58.9557L165.023 62.1782L165.019 65.6097L159.981 62.4456C160.098 61.2452 160.16 60.0955 160.21 58.9557ZM61.8201 60.0032C64.1829 60.0155 66.1908 62.5695 65.4374 65.0223C64.505 67.5798 59.9081 67.0175 60.6805 64.4668C60.9027 63.7331 61.7498 63.1987 62.5555 63.6613C63.7191 64.3293 63.5947 63.2482 62.8557 62.8621C61.7151 62.266 60.1429 62.619 59.7886 63.8161C58.5537 67.9893 64.3395 69.4336 67.5064 65.1289C68.6638 63.5556 69.9232 61.872 70.618 61.1545C71.2423 60.5099 71.3748 60.5783 71.2714 61.4118C70.8562 65.2919 67.9207 70.1327 62.4479 69.8482C57.1299 69.3611 55.4851 64.1223 59.514 60.8696C60.191 60.323 60.9027 60.0548 61.5916 60.0102C61.6684 60.0055 61.7439 60.003 61.8201 60.0032ZM90.0074 60.3131C88.0576 61.1805 86.2926 61.5051 84.3791 60.7248C82.9646 60.1481 82.9846 60.769 83.5985 61.2808C85.3732 62.6919 88.6118 62.0674 90.001 61.2815C90.4518 61.0264 90.6024 60.2837 90.0074 60.3131ZM165.022 66.7792L165.027 69.9001L159.653 66.5361C159.571 65.7891 159.665 64.6545 159.846 63.4832L165.022 66.7792ZM159.828 67.8035L164.945 70.9523L165.069 74.0459L160.097 71.1638L159.828 67.8035ZM160.17 72.1426L165.057 75.301L165.116 78.6776L160.274 75.7001L160.17 72.1426ZM40.7092 75.2758L37.6817 83.6638L39.6442 83.7809L40.9616 86.0009L42.3311 83.7352L44.3971 83.5968L40.7092 75.2758ZM160.358 76.8138L165.069 79.8382L165.129 82.9568L160.235 79.7959L160.358 76.8138ZM160.153 80.631L164.981 83.8893L165.066 87.2023L159.593 83.7944L160.153 80.631ZM51.8626 82.1278L48.8627 91.1091L50.5367 90.904L52.0952 93.3147L53.6845 91.16L55.1843 91.2439L51.8626 82.1278ZM29.5163 82.7183L26.658 91.6464L28.553 91.646L30.1452 93.9056L31.5565 91.7338L33.7049 91.6888L29.5163 82.7183ZM159.508 84.8173L165.175 88.5319L165.21 92.0497L159.716 88.6109L159.508 84.8173ZM165.094 93.1917L165.146 96.2728L160.378 93.1021L159.872 89.6794L165.094 93.1917ZM63.6993 93.3685L60.1976 102.44L62.5247 102.468L63.9281 104.654L65.0649 102.466L66.9347 102.49L63.6993 93.3685ZM160.687 94.6124L165.111 97.4456L165.066 100.609L160.71 97.882L160.687 94.6124ZM76.5271 131.075L74.0088 128.815C73.9782 128.631 76.0782 127.696 77.3674 128.3C79.0695 129.097 79.9353 131.946 78.0212 133.437C76.4982 134.624 74.1829 133.624 74.1378 133.484L76.5271 131.075ZM74.2919 127.354C74.3486 123.877 72.3767 122.977 70.7458 122.267C70.7458 122.267 70.5497 100.229 70.5876 99.5705C70.5882 99.6666 70.1771 97.1824 70.13 97.0356C70.13 97.0375 69.7382 96.9374 69.7384 96.9412C69.7992 99.1759 69.8767 122.075 69.8378 122.223C66.7798 122.54 65.9193 124.456 65.6338 127.031C63.2494 126.857 61.6934 128.183 61.6449 128.403C60.7681 127.279 61.4302 125.629 60.739 124.456C58.602 131.301 62.6973 135.416 66.2853 135.046C66.838 141.627 74.6483 142.844 74.4104 134.863C83.8663 134.381 80.6914 126.31 74.2919 127.354ZM29.9698 99.533L26.5166 108.42L28.9166 108.175L29.7851 109.82C33.6391 106.693 35.5622 111.548 33.6216 107.383L29.9698 99.533ZM160.024 115.821C160.466 115.792 161.046 116.163 161.16 116.667C161.239 118.169 159.062 117.824 158.996 116.875C158.95 116.201 159.609 115.848 160.024 115.821ZM161.413 125.596C162.354 124.885 163.848 125.294 163.868 126.37C163.886 127.325 162.705 127.635 161.783 127.096C161.069 126.689 161.027 125.934 161.413 125.596ZM161.536 128.244C166.682 128.625 170.523 125.397 168.89 123.064C170.278 121.458 169.154 120.528 169.535 119.606C170.631 118.571 169.725 116.334 169.452 116.325C169.238 113.326 168.3 112.939 166.908 111.337C166.49 110.873 167.89 110.425 168.43 109.631C167.006 110.133 165.613 109.149 165.622 108.926L165.018 108.227C155.485 108.606 146.925 109.193 147.206 121.178C145.817 126.259 148.125 130.798 154.782 129.422C156.242 128.22 155.289 126.469 155.113 125.628C154.553 123.314 155.214 121.814 155.401 120.732C155.979 117.384 158.637 114.284 158.907 119.535C159.373 118.878 159.154 118.78 159.921 118.509C161.75 117.905 161.742 119.616 161.365 120.306C161.123 120.66 160.761 120.629 160.389 120.588C159.858 120.527 159.165 120.342 159.154 120.161C159.009 120.706 160.115 121.724 159.997 122.235C159.848 122.72 159.755 122.68 160.241 122.36C162.539 120.848 163.963 124.25 160.647 123.85C162.278 124.665 159.851 127.025 161.536 128.244ZM158.206 109.943C160.014 109.864 160.447 109.85 160.36 110.73C160.697 112.354 161.133 113.108 163.416 112.946C165.716 112.676 166.447 112.545 164.127 113.826C162.957 114.3 162.577 114.391 161.192 114.271C159.796 114.149 159.903 114.019 159.104 114.458C158.658 114.704 158.17 115.003 157.807 115.062C157.27 115.151 156.323 115.339 156.323 115.339C155.777 117.857 154.954 119.124 153.824 120.317C152.225 121.99 151.416 122.281 153.37 122.162C154.092 122.206 153.719 121.87 154.025 124.588C154.132 125.54 154.32 126.643 154.471 127.014C154.975 128.254 155.04 128.87 153.109 128.951C148.289 129.272 147.179 124.919 147.828 122.699C147.885 122.349 148.108 121.193 148.159 120.275C148.187 119.773 148.079 119.348 148.094 118.835C148.219 114.691 149.282 113.603 153.259 110.923C154.459 110.114 156.608 109.955 158.206 109.943ZM162.439 110.181C164.664 110.146 166.81 111.145 165.735 111.784C165.041 112.197 162.539 112.016 161.845 111.555C160.951 110.96 161.29 110.199 162.439 110.181ZM63.216 113.354L62.3293 114.8L61.3851 121.541L61.544 122.911L63.3569 125.13L64.8047 122.841L67.0703 122.885L63.216 113.354ZM167.243 113.044C168.683 113.317 168.735 114.537 168.367 115.286C167.556 116.934 162.162 117.714 162.162 117.715C162.121 117.006 162.23 116.323 161.673 115.523C161.673 115.523 165.265 114.665 166.027 114.025C166.535 113.599 166.844 113.057 167.243 113.044ZM168.296 116.804C168.818 116.813 169.095 117.164 169.234 117.878C169.299 118.261 169.143 118.587 168.805 119.004C167.431 120.378 163.582 121.319 162.194 120.964C162.097 120.844 162.338 119.392 162.441 118.747C164.291 118.805 167.411 117.294 168.296 116.804ZM113.435 125.103C111.606 122.638 107.527 122.985 107.964 123.158C108.001 121.053 107.622 118.16 104.177 117.84C100.703 117.584 98.9018 121.829 100.214 123.634C98.0721 122.8 94.8478 124.859 94.8472 125.053C94.5732 125.06 92.0937 131.076 99.5315 131.412C100.199 134.259 101.354 135.638 103.728 136.817L103.705 160.029L104.541 161.086L104.701 136.76C108.508 136.617 108.992 132.579 108.713 131.647C110.404 131.721 111.941 131.411 113.237 130.501L113.668 134.468C113.668 134.468 114.566 133.072 114.372 132.329C112.795 109.526 121.774 84.8956 133.506 68.9507C134.132 68.2819 134.325 67.4813 134.635 67.4764C137.487 66.0639 139.289 65.113 139.289 65.113C143.976 67.2215 152.342 72.3007 152.342 72.3007L152.365 104.786C152.236 104.466 167.992 103.211 167.754 103.605C167.754 103.605 166.376 103.1 166.358 102.245L166.213 26.2258L159.337 22.0279C159.337 22.0279 153.659 25.4413 152.07 26.6089L152.087 71.3639L139.904 64.6908C139.904 64.6908 140.105 63.1086 140.124 62.595C139.95 56.4874 136.724 54.4269 130.562 56.2172C129.736 56.4571 129.162 56.6677 128.759 56.3536C126.192 49.3186 125.09 30.8513 125.094 30.8515L142.561 3.62198L172.031 3.57438L172.176 107.845L173.051 162.502L157.975 172.608L157.878 137.597C157.878 137.597 155.726 136.634 155.162 136.568C154.95 136.552 154.675 136.99 155.057 137.218C155.609 137.547 156.967 138.009 156.967 138.009L157.165 172.711C157.165 172.711 151.305 176.34 148.685 177.851C146.732 178.967 140.557 181.825 136.9 183.47C135.481 184.108 134.048 184.619 133.916 184.719C128.935 186.683 124.445 188.055 120.292 190.087C117.428 191.162 117.56 190.099 116.954 189.23C111.004 183.735 103.298 183.384 97.0445 185.89C96.0757 186.219 94.8762 186.505 94.066 187.022C93.8316 187.181 93.424 187.36 93.1563 187.418C92.6085 187.537 92.0083 187.759 91.5037 188.127C90.6039 188.782 90.0024 189.853 89.4852 190.917C89.1651 191.576 88.2 194.649 88.0701 195.561C88.0483 195.714 88.3887 195.681 88.4003 195.696C88.4436 195.752 89.3734 191.973 89.7393 191.258C90.521 189.733 91.5026 188.821 92.0214 188.679C92.2579 188.643 92.4626 188.984 92.1401 189.521C91.4989 190.589 90.9729 192.862 90.8146 193.887C90.6731 194.833 90.6428 195.593 90.8332 195.627C90.8668 195.657 91.7792 192.764 92.1888 191.743C93.2566 189.082 93.9282 187.98 94.9499 187.415C95.9975 186.836 96.2457 186.918 96.0372 187.537C94.4714 190.345 93.8224 192.471 93.5071 195.466C93.4585 196.063 93.7843 196.082 94.0455 195.093C94.9087 191.95 96.0925 187.699 98.861 186.439C100.042 185.948 100.566 185.974 100.438 186.327C97.1339 190.169 96.2962 194.447 96.3302 195.829C96.3416 196.29 96.5431 196.199 96.9687 195.203C98.0967 191.408 99.7601 188.182 101.727 186.604C102.488 185.993 103.407 185.827 104.177 185.742C106.502 185.482 106.578 186.281 104.552 187.367C102.243 188.603 99.5623 193.12 99.2546 196.518C99.1481 197.694 99.5963 197.823 99.9191 196.256C101.309 189.505 107.571 185.06 112.57 187.147C114.819 188.085 115.223 189.38 113.264 188.798C109.299 187.62 104.883 190.212 103.053 193.845C101.399 197.13 101.428 198.858 102.567 203.268C103.341 207.341 104.858 212.546 104.338 216.53C103.789 217.303 102.07 216.204 100.035 215.965C98.808 215.747 97.3084 215.688 96.0249 216.139C94.906 216.531 94.2718 216.628 94.0668 216.07C94.0006 215.89 94.9325 215.016 95.3478 214.532C96.0116 213.759 95.633 213.634 94.6983 214.473C94.2407 214.883 93.2569 215.844 92.988 215.894C92.399 216.002 92.3773 215.387 92.8578 213.823C94.5457 207.748 94.0999 207.644 91.2456 206.402C88.4163 205.392 89.3142 204.891 88.063 203.891C87.1767 204.529 89.2052 207.474 91.5097 208.125C93.3948 208.657 93.1617 209.551 92.327 211.954C91.4771 215.32 90.0314 219.773 90.8483 222.767C92.5647 229.058 99.4466 228.954 104.726 226.432L105.364 228.037C100.902 229.694 77.4086 231.042 69.4959 230.171C68.8911 228.185 68.8319 227.675 68.5922 225.339C68.5922 225.339 73.4749 227.404 75.9146 227.767C78.9602 228.221 83.6536 228.259 84.8644 225.661C85.235 224.899 84.8596 224.253 83.8062 224.691C81.8705 225.497 78.5643 226.086 75.8959 225.924C73.6558 225.788 70.4648 224.943 69.0871 224.167C68.4323 223.798 67.881 223.08 68.3982 222.182C68.854 222.09 69.4514 222.558 69.8052 222.728C73.8413 224.634 76.0574 225.009 78.6966 224.293C80.6986 223.749 83.4002 221.758 82.7368 221.188C82.0604 221.404 79.8132 223.141 78.2667 223.516C75.0833 224.289 71.6961 223.077 68.399 221.081C67.382 220.257 67.8498 219.661 69.0964 220.321C74.0376 222.648 76.0962 224.188 80.8433 220.962C81.9038 220.239 82.4935 220.334 83.1134 220.777C85.5652 222.827 85.5615 221.681 83.7677 219.553C83.3601 219.069 82.9917 218.393 82.7491 217.674C82.5697 217.142 82.531 216.61 82.2042 216.259C81.6477 215.662 80.6431 215.37 79.495 214.897C77.8371 214.214 77.2845 214.538 78.5076 215.096C80.6497 216.073 81.6907 217.117 79.0279 216.547C76.6131 215.535 72.5733 216.083 70.2838 217.545C68.4874 218.35 67.6943 219.215 67.2773 217.379C66.4037 213.547 67.2862 208.356 66.1207 201.67C65.8985 200.395 65.6244 199.587 65.9125 199.414C66.2822 199.191 67.1998 200.019 68.3363 201.509C68.8542 202.188 69.8834 203.495 69.8783 203.224C69.9226 201.809 67.5588 199.146 65.6037 198.093C64.5296 197.515 63.8079 194.856 65.037 195.445C65.9858 195.877 70.9164 199.925 71.8529 201.365C72.2879 202.034 72.659 201.61 72.1991 200.823C71.923 200.351 70.7651 198.964 69.6397 197.938C67.6429 196.117 67.4101 196.201 67.7961 195.831C68.5597 195.098 70.1859 196.051 73.0812 198.498C73.8231 199.373 74.8054 200.163 74.6858 199.73C74.9852 199.052 72.088 196.144 70.3661 195.361C70.0442 195.173 70.001 194.975 70.0323 194.615C70.201 193.247 73.5314 195.269 76.293 197.625C77.3274 198.508 76.4731 196.851 75.2755 195.723C74.3341 194.837 72.8153 193.733 71.7842 193.352C70.7601 192.956 70.699 192.127 71.5045 191.782C74.2813 191.683 77.1381 194.324 78.8394 196.398C79.309 196.968 79.7399 197.407 79.2531 196.33C77.682 193.086 74.3973 191.25 72.1188 190.872C70.2679 190.565 70.3142 189.016 72.054 189.197C73.968 189.397 77.0976 191.01 79.7465 193.499C80.5172 194.223 81.8124 195.866 81.5477 194.904C81.5432 194.642 80.7298 193.614 79.7912 192.622C77.6241 190.613 75.1028 188.834 72.4248 188.298C71.1732 187.965 67.4524 188.617 67.4322 188.019C67.424 187.577 67.8234 187.314 69.009 186.953C73.61 185.551 80.3247 189.236 83.985 194.878C84.2469 195.281 84.7447 195.454 84.7754 195.364C83.0156 190.757 77.5103 186.568 73.1223 185.838C70.1376 185.384 67.1244 186.08 65.6863 187.941C64.0683 190.035 64.6888 192.846 67.1083 192.629C68.3779 192.525 68.2793 191.857 68.2558 191.835C68.1699 191.756 67.4307 192.074 66.975 191.99C65.3219 191.683 65.5047 188.91 67.9251 189.192C70.7083 189.516 71.087 193.589 67.9728 194.435C65.0984 195.215 64.0504 193.995 63.2698 192.549C62.1265 190.432 63.3736 187.03 65.4066 185.731C71.0974 182.094 78.2675 185.184 82.3128 188.823C84.3142 190.624 85.7735 192.762 86.687 195.065C86.9218 195.6 87.3487 195.57 87.1979 194.996C81.5389 181.476 64.5135 179.958 61.9475 190.306C61.9475 190.306 61.8582 190.622 60.2281 188.458C57.5859 184.949 53.6235 184.155 48.7321 186.524C43.792 188.226 42.1242 189.315 38.6975 190.943C38.1981 191.105 35.0281 193.118 34.5224 192.695C29.6876 189.699 25.4664 188.668 23.1735 186.477C23.254 186.076 22.8663 180.021 22.8663 180.021L23.0706 153.917C23.1059 153.662 20.5051 154.081 16.1757 154.695C4.6616 156.785 5.68782 151.177 4.16657 150.777C3.36272 150.625 3.42098 150.944 3.27232 130.818C3.22917 124.973 3.14 114.696 3.07067 107.98C3.00136 101.264 2.99678 95.67 3.06172 95.552C3.12668 95.434 3.77495 94.9218 4.52142 94.435C7.33156 92.6023 8.91019 91.4929 15.0611 87.1734C16.4541 86.1952 16.805 86.03 16.805 86.03C17.4671 98.124 16.7909 110.82 17.101 121.215L17.6193 121.219L17.54 86.3142C16.4825 86.0532 41.7823 72.4386 55.6364 68.0414C55.8962 67.959 56.5425 68.2285 56.5425 68.2285C64.4534 77.2826 85.3617 74.6227 87.0845 63.6395C90.5237 70.3505 105.69 83.4203 112.696 67.7544C112.696 67.7544 115.199 72.2704 117.359 72.5753C122.215 73.1902 122.756 72.4813 133.465 67.7099C121.18 84.866 114.375 103.052 113.435 125.103L113.435 125.103ZM106.953 120.792C107.217 121.553 107.305 122.535 107.072 123.309C106.758 123.914 106.293 123.904 106.293 123.904L103.932 122.019L101.609 124.002C101.609 124.002 100.197 122.674 100.981 120.841C102.471 118.282 105.861 118.757 106.953 120.792ZM168.126 120.703C169.642 120.619 168.854 122.234 166.607 123.321C165.198 124.004 164.03 124.194 163.526 123.944C163.252 123.184 163.489 122.492 163.663 122.185C164.621 121.733 167.252 120.942 168.126 120.703ZM70.2679 123.408C71.9509 123.376 73.4055 124.493 73.4526 126.462C73.4718 127.264 73.025 128.058 73.025 128.058L70.22 126.126L68.0643 128.243C67.6976 128.36 66.3873 126.834 67.2976 125.181C67.9593 123.98 69.1164 123.43 70.2679 123.408ZM110.921 124.454C113.283 125.456 113.682 128.525 111.378 129.698C110.283 130.256 108.561 130.562 107.76 129.424L110.093 127.081L107.431 124.99C107.327 124.893 109.48 123.842 110.921 124.454ZM167.7 123.846C168.108 123.846 168.211 123.991 168.327 124.345C168.656 125.348 167.808 126.353 166.351 126.666C165.004 126.956 165.132 127.103 164.499 125.986C164.002 125.11 163.869 125.146 164.651 124.873C165.597 124.592 166.609 124.264 167.7 123.846ZM100.421 125.115C100.421 125.115 98.7364 126.691 97.9999 127.35L100.518 129.802C100.638 130.1 97.5986 131.363 96.0085 129.435C94.9762 128.184 95.5683 125.813 97.0427 125.004C98.5488 124.177 100.701 124.876 100.421 125.115ZM104.039 124.852C105.53 124.837 106.75 125.944 106.767 127.326C106.784 128.709 105.591 129.844 104.1 129.859C102.609 129.874 101.384 128.763 101.367 127.38C101.35 125.998 102.548 124.867 104.039 124.852ZM67.1185 128.936L64.6885 131.279L67.2985 133.931C67.2985 133.931 65.2253 134.237 64.4897 134.107C60.9267 133.476 61.289 129.6 64.0499 128.584C65.215 128.21 66.0798 128.34 67.1185 128.936ZM19.5806 129.569C19.5806 129.569 20.0397 134.551 20.4693 136.253C20.1757 138.193 18.8175 139.51 18.2013 141.501C17.8736 142.386 16.649 143.574 16.4179 142.324C15.5427 140.778 16.3911 138.873 15.6665 137.771C15.3016 136.744 15.4138 136.152 15.1714 135.076C14.6374 134.201 14.2069 133.787 14.2824 132.993C14.1504 129.472 13.1995 130.167 11.5132 130.449C10.1229 130.868 8.24663 131.033 7.14508 131.783C4.75289 133.333 6.04858 134.231 5.14084 136.58C5.27918 137.612 5.54943 137.984 5.35163 138.873C4.41632 143.073 6.11665 142.73 6.06486 142.795C5.35365 143.758 6.21988 145.934 6.55895 145.824C8.63099 146.303 7.87489 147.704 8.54685 148.452C9.22125 149.175 9.18468 149.538 12.0258 149.614C17.1575 150.004 25.3165 149.325 27.0998 143.528C28.2278 135.348 29.8602 128.145 19.5806 129.569ZM70.6147 128.945C72.0543 128.931 73.2337 130 73.25 131.336C73.2662 132.671 72.1131 133.764 70.6735 133.778C69.2339 133.792 68.0545 132.723 68.0382 131.388C68.022 130.052 69.1751 128.959 70.6147 128.945ZM21.8264 130.044C22.7967 130.037 23.9395 130.23 24.8769 131.069C26.8853 132.867 26.9669 134.491 26.0489 141.38C25.7903 143.321 25.0475 144.941 24.0687 145.644C22.1024 147.058 19.6982 148.062 17.7175 148.506C16.6728 148.741 15.7646 148.743 15.0582 148.735C14.2954 148.728 13.8516 148.399 13.7971 147.806C13.9706 146.202 12.2041 146.039 11.1806 146.126C9.356 146.187 9.16906 146.364 10.31 145.551C11.6121 144.622 14.6058 144.619 15.1723 145.168C16.3435 144.088 17.5619 143.966 19.0524 143.81C18.8327 143.509 18.3029 142.305 18.6589 141.534C19.4351 140.278 20.7411 138.063 22.1069 137.236C23.4608 135.606 22.3132 136.341 21.4766 136.366C20.9986 136.38 21.0398 136.234 20.9633 135.937C20.6349 134.662 20.1639 132.28 20.1649 130.862C20.1651 130.178 20.8561 130.052 21.8264 130.044ZM13.2313 131.779C13.7566 132.215 13.7479 132.821 13.1928 133.271C12.5579 133.785 11.3018 133.496 11.2743 132.524C11.3616 131.544 12.5949 131.272 13.2313 131.779ZM104.18 135.547C101.992 135.64 100.199 133.464 101.031 131.304C101.485 130.72 101.679 130.805 101.679 130.805L104.162 132.876L106.559 130.568C108.52 132.776 106.822 135.391 104.18 135.547ZM10.5664 131.861C10.385 132.493 10.6184 133.125 10.6469 133.432C10.2125 133.717 8.36425 134.211 7.37255 134.659C6.68378 134.876 6.18761 134.275 6.28482 133.728C6.54907 132.71 8.16859 132.049 9.34436 131.738C9.70701 131.657 10.3045 131.628 10.5664 131.861ZM10.9613 134.779C11.6273 134.707 11.4271 136.051 11.1746 136.738C10.9247 137.229 10.1912 137.206 9.53185 137.239C8.36659 137.298 6.89446 138.539 6.26463 138.336C6.05619 138.246 5.90858 137.733 5.88755 137.407C6.03056 135.612 9.2491 134.965 10.9613 134.779ZM14.4744 136.662C14.2509 136.962 13.5364 137.105 12.9386 136.95C11.9612 136.698 11.8154 135.395 12.6755 134.951C14.1935 134.491 15.1001 135.813 14.4744 136.662ZM111.152 134.034L109.818 135.903L107.801 135.862L111.028 145.149L112.548 141.53C112.757 139.864 113.001 138.201 113.194 136.534L111.152 134.034ZM68.2379 134.666L70.8105 136.626L73.03 134.537C74.6639 137.945 72.7619 139.495 70.7446 139.447C68.519 139.394 66.153 137.43 68.2379 134.666ZM11.5998 137.986C12.4176 137.845 12.0607 139.892 11.9466 139.95C11.4244 140.127 9.17383 140.392 8.22407 141.129C6.20132 142.588 5.34343 141.69 6.28412 139.938C7.17257 138.92 10.4281 138.001 11.5998 137.986ZM14.1667 138.092C15.0664 138.017 15.6933 138.942 15.1414 139.819C14.394 140.458 13.0881 139.983 13.0965 139.073C13.0942 138.502 13.6046 138.12 14.1667 138.092ZM12.8226 143.283C12.9442 143.762 12.7643 143.613 11.8187 143.868C11.2977 144.008 10.4779 144.328 9.62425 144.724C8.37231 145.305 8.0205 145.618 7.57675 145.55C7.22447 145.477 6.81859 145.335 6.71077 145.003C6.28004 143.678 7.44713 142.333 10.1581 141.416C10.7219 141.225 11.7294 141.073 12.0743 141.039C12.9935 141.044 12.0065 142.35 12.8226 143.283ZM14.4292 141.298C15.7381 141.285 15.9778 142.897 14.9975 143.177C12.7029 143.718 12.9053 141.291 14.4292 141.298ZM12.7943 147.227C13.1616 147.556 13.2116 148.093 12.7979 148.372C12.0406 148.715 9.13803 148.41 9.12117 147.655C9.11181 147.156 10.0833 146.991 10.9855 146.977C11.8877 146.964 12.5007 146.964 12.7943 147.227ZM143.877 148.51L141.475 151.469L144.66 158.933L147.624 149.919L145.317 150.757L143.877 148.51ZM8.49259 155.695C8.9661 178.649 8.68859 231.244 8.68859 231.244L15.7172 235.709L23.1512 230.793C23.133 214.238 23.1013 202.818 23.0842 187.49L33.9325 193.064C33.9325 193.064 34.2645 193.511 34.207 195.582C33.4361 201.299 39.3876 205.033 43.3529 202.788C44.8819 202.199 45.0065 202.093 45.3283 202.542C46.2138 203.775 47.1983 209.048 47.3542 212.41C47.5892 217.475 48.9904 227.807 49.3367 227.877L31.5509 255.609L3.97636 255.637L4.02251 152.273C5.44963 153.843 6.09978 154.872 8.49259 155.695ZM111.139 153.84L109.805 155.714L108.205 155.707L110.979 165.323L114.41 155.942L112.538 155.72L111.139 153.84ZM22.3025 230.135C22.3025 230.135 18.8525 232.414 17.7506 233.069C17.172 233.268 16.8919 233.304 16.7566 232.791C16.5902 232.161 16.8652 230.969 17.1118 229C17.3398 227.178 17.3389 227.076 17.0212 224.478C16.6894 221.764 16.6491 221.65 16.9382 218.071C17.2607 214.079 17.3338 210.202 17.0013 207.8C16.6851 205.517 16.7079 200.312 16.9663 197.407C17.2826 193.851 17.1945 190.73 16.7012 188.148C15.8218 183.543 15.6792 181.958 16.6245 178.5C16.9782 177.206 17.1542 176.517 17.0891 174.348C17.0167 171.936 16.971 171.148 16.0585 165.804C15.5332 162.727 15.4936 162.305 16.0126 157.442C16.1173 156.46 16.1541 155.804 16.5586 155.494C17.0309 155.132 21.9413 154.884 21.9413 154.884L22.3025 230.135ZM9.65214 155.786L14.9996 155.75C14.5815 157.302 14.4848 158.483 14.4386 159.606L9.69876 156.694L9.65214 155.786ZM9.72354 157.77L14.4155 160.633C14.4167 161.834 14.3158 162.979 14.4999 164.18L9.74379 161.231L9.72354 157.77ZM9.71637 162.287L14.738 165.495C14.93 166.738 15.3353 167.995 15.4887 169.113L9.7959 165.513L9.71637 162.287ZM172.444 164.112L172.387 255.76L122.294 255.794L106.516 227.45C106.516 227.45 106.687 224.849 107.084 223.522C107.564 221.919 107.692 221.57 108.358 221.496C110.137 222.358 112.128 221.227 112.74 219.976C113.494 218.437 111.986 216.097 109.661 215.583C108.636 215.353 107.513 215.777 106.377 216.574C105.717 217.082 105.57 217.138 105.441 216.695C105.148 215.695 106.114 212.985 107.831 210.661C108.787 209.369 109.045 208.997 109.351 209.491C110.588 211.489 113.258 211.085 114.274 209.963C115.504 208.604 115.259 205.496 112.487 204.663C107.063 203.033 104.553 208.076 104.621 208.064L103.48 202.003C110.021 200.541 113.795 200.029 115.878 198.199C117.516 196.759 118.304 194.26 118.11 192.036C118.11 192.036 136.29 185.26 144.801 181.043C159.457 173.782 172.444 164.112 172.444 164.112ZM144.796 164.679L143.445 166.865L141.54 166.86L145.362 176.122L148.338 166.476L146.501 166.622L144.796 164.679ZM9.93664 166.864L15.6897 170.571C15.8115 171.768 15.9734 172.835 15.7958 174.19L9.739 170.446L9.93664 166.864ZM122.434 166.123L120.993 167.885L119.339 167.718L122.55 176.887C123.545 174.243 124.455 170.653 125.439 168.005L123.906 168.068L122.434 166.123ZM9.8188 171.571L15.772 175.257C15.791 176.388 15.8449 177.455 15.4173 178.253L9.79813 174.884L9.8188 171.571ZM133.592 172.532L132.135 175.109L130.207 174.86L133.626 183.65L137.427 174.967L135.092 175.075L133.592 172.532ZM9.81485 175.84L14.9754 179.38C15.0495 179.431 14.6808 180.986 14.7602 181.868L9.84869 179.039L9.81485 175.84ZM9.93899 180.197L14.7521 183.286C14.7588 184.451 14.8407 185.547 15.0355 186.539L9.80992 183.369L9.93899 180.197ZM9.84052 184.636L15.4041 188.336L15.6887 191.296L9.79303 187.83L9.84052 184.636ZM55.743 186.029C61.0883 187.898 66.0733 197.352 65.8765 209.57C65.7399 218.052 68.4612 230.169 68.4102 230.028C68.4102 230.028 66.8574 230.216 66.4193 229.895C64.4253 223.66 63.7767 217.076 63.4775 211.647C63.2323 207.12 62.967 202.677 62.6614 201.638C61.7945 197.985 60.8568 193.723 58.3506 190.939C56.3974 188.841 54.1637 188.469 52.8198 190.813C51.719 192.734 54.0114 195.926 55.9276 194.874C56.3906 194.635 56.6681 194.228 56.0621 194.238C54.0761 194.504 52.7517 191.953 54.0121 190.743C56.2318 188.614 60.0858 193.389 58.2812 196.004C57.4864 197.134 55.4173 197.327 53.7634 196.904C50.0879 195.24 49.1785 191.196 50.4199 188.538C51.3667 186.51 53.4335 185.305 55.743 186.029ZM49.2649 187.22C49.6996 187.24 49.4007 187.982 48.995 189.141C48.0382 191.918 49.7992 196.243 52.2556 197.112C52.992 197.58 52.9515 197.757 52.4582 198.012C50.8495 198.843 47.9444 196.323 47.1849 193.525C46.6354 191.501 46.7809 189.115 47.8328 188.106C48.408 187.554 48.8643 187.264 49.1735 187.225C49.2057 187.221 49.2359 187.219 49.2649 187.22ZM9.76829 188.721L15.7107 192.351C15.9838 193.478 15.8579 194.678 15.6675 195.889L9.72017 192.017L9.76829 188.721ZM45.7025 188.801C46.1442 188.789 45.9771 189.475 45.8498 190.727C45.555 193.626 46.517 195.738 48.72 197.497C49.6493 198.239 49.904 198.471 49.5015 198.858C48.9302 199.406 47.3006 198.663 46.0247 197.421C43.6886 195.147 42.9269 190.867 44.7588 189.323C45.1609 188.985 45.4711 188.806 45.7025 188.801ZM111.935 189.535C114.48 189.452 116.625 190.375 116.851 193.259C117.182 197.482 112.932 199.775 109.981 197.341C107.337 194.899 110.039 191.099 113.107 192.894C114.65 193.804 112.798 195.859 111.551 194.789C110.989 194.306 110.74 194.604 111.139 195.16C112.343 196.84 114.731 195.455 114.566 193.979C114.24 191.077 110.396 191.101 108.945 192.232C106.958 193.779 105.205 196.062 103.898 197.726C102.827 199.17 102.598 199.13 102.762 197.343C103.195 192.619 107.965 189.664 111.935 189.535ZM42.6359 190.216C43.0412 190.204 42.8785 190.742 42.9045 192.132C43.0555 195.699 44.6691 197.925 46.7213 199.175C47.4078 199.883 46.5241 200.38 45.2284 200.034C42.2769 199.18 39.2812 193.284 41.7941 190.762C42.1468 190.408 42.4236 190.223 42.6359 190.216ZM39.7593 191.376C40.1687 191.353 39.9348 192.14 39.9682 193.628C40.0385 196.76 41.078 198.267 43.5824 200.187C44.3985 200.813 44.5005 200.743 44.1762 201.087C43.313 202.003 40.404 200.692 39.1683 198.813C37.6977 196.575 37.4922 193.208 38.8721 191.94C39.2579 191.586 39.5449 191.388 39.7593 191.376ZM36.897 192.874C37.236 192.877 37.0449 193.442 37.0924 194.794C37.2075 198.074 38.0094 199.699 40.2478 201.224C41.6543 202.182 41.9979 201.897 41.5655 202.273C40.8081 202.931 38.7445 202.356 37.1993 201.138C34.8831 199.312 34.2469 194.825 36.1401 193.296C36.4777 193.024 36.7194 192.873 36.897 192.874ZM9.85382 193.243L15.5634 196.941L15.3907 200.046L9.70998 196.453L9.85382 193.243ZM109.884 199.415C107.556 198.965 106.68 197.403 106.97 195.637C107.066 195.047 107.44 194.711 107.836 195.484C108.175 196.709 109.049 198.41 110.253 198.743C110.737 198.878 110.33 199.501 109.884 199.415ZM59.8001 195.574C62.4058 201.715 62.3356 208.416 62.7491 214.749C63.2988 223.167 64.8845 228.841 65.4056 229.798C65.4056 229.798 62.8401 229.816 62.7115 229.471C62.7115 229.471 60.3298 218.302 60.7137 212.785C60.7614 206.609 59.4838 201.175 58.7 198.733C57.8702 196.568 57.8289 197.996 59.8001 195.574ZM9.80643 197.795L15.2996 201.151C15.2178 202.292 15.2026 203.434 15.2143 204.577L9.83038 201.017L9.80643 197.795ZM83.8329 197.767C83.8366 197.953 84.6275 198.112 85.87 197.838C87.2491 197.534 88.6221 197.594 89.6797 197.867C90.8046 198.158 90.9296 197.821 89.9128 197.406C89.417 197.203 88.6288 196.743 87.4457 196.758C86.2627 196.774 83.8253 197.363 83.8329 197.767ZM106.133 197.716C106.266 197.946 106.683 198.462 107.056 198.866C107.762 199.63 107.961 199.636 107.638 199.947C106.893 200.661 105.338 199.616 105.175 198.29C105.033 197.321 105.556 196.712 106.133 197.716ZM56.8392 197.805C59.398 201.212 59.7496 209.182 59.7825 214.846C59.8122 219.947 61.6406 229.3 61.7909 229.26C61.2603 229.548 60.5481 229.444 59.8801 229.202C59.2218 228.401 58.8244 226.161 58.0779 220.097C57.8853 218.532 57.5143 213.555 57.4408 209.549C57.376 206.015 55.2738 198.359 55.2738 198.359C55.2738 198.359 56.1023 197.816 56.8392 197.805ZM53.9744 198.645C56.3009 203.501 56.6651 208.317 56.7501 214.159C56.8305 219.686 58.1315 226.164 58.6222 229.023C57.8308 229.096 56.9958 229.154 56.6653 228.823C56.4552 228.554 56.2895 228.134 56.1878 227.592C55.1385 222.809 54.902 217.611 54.6115 213.215C54.177 206.401 54.065 204.715 53.0353 201.315C52.4512 199.387 52.2439 199.427 52.6908 199.058C53.0308 198.777 53.6789 198.638 53.9744 198.645ZM80.3151 199.852C80.3717 202.108 80.688 201.19 81.5483 200.833C82.1957 200.785 82.723 201.114 83.9245 201.528C85.4544 202.055 85.3156 202.229 86.3938 201.743C87.0589 201.444 87.5887 201.341 87.9054 201.581C89.1608 202.534 90.7872 202.006 91.7038 201.241C92.4184 200.898 93.1966 201.089 93.8003 201.143C94.671 201.22 94.446 200.704 94.5569 199.684C94.6554 198.778 94.2826 198.698 93.2709 199C92.2356 199.309 91.2087 199.35 90.312 199.093C88.0189 198.435 86.3374 198.851 85.1987 199.013C82.5098 199.395 82.3674 199.144 81.7594 198.784C81.3059 198.517 80.5577 198.023 80.2984 198.037C80.039 198.051 80.1221 198.868 80.3151 199.852ZM104.161 198.898C104.418 198.778 104.534 199.101 104.889 199.532C105.481 200.253 105.654 200.592 105.155 200.657C103.834 200.83 103.507 200.701 103.556 199.94C103.595 199.334 103.739 199.097 104.161 198.898ZM51.2085 199.784C53.1397 201.601 53.5957 211.757 53.8085 213.943C54.4655 225.791 55.6721 227.497 55.046 228.384C54.3126 228.37 54.0559 228.621 53.5792 228.024C51.9361 223.68 52.0479 219.221 51.7955 214.693C51.4374 208.697 50.8069 205.447 49.9077 202.473C49.3098 200.496 49.3172 200.463 50.4101 199.924C50.604 199.828 51.0343 199.778 51.2085 199.784ZM48.5936 201.203C49.2707 202.644 50.6188 209.188 50.7852 214.834C50.9173 219.317 52.0413 228.086 52.2549 228.135C51.5499 228.192 50.7043 228.056 50.3636 227.56C48.2804 218.911 48.9831 210.537 46.5703 201.84C46.7172 201.419 47.4925 200.727 48.5936 201.203ZM9.87052 202.133L15.5663 205.949L15.6768 209.189L9.86376 205.335L9.87052 202.133ZM94.7277 202.02C91.5006 203.169 90.6628 204.118 91.167 204.956C91.5916 205.662 92.8749 205.42 96.313 204.103C98.8826 203.119 99.6861 203.555 100.202 205.056C100.169 207.269 97.8526 207.519 96.5471 207.21C95.9855 207.188 96.0689 207.236 96.6649 207.932C99.315 209.875 102.588 206.106 100.972 203.703C99.7082 201.509 97.5107 200.878 94.7277 202.02ZM74.4916 202.848C71.8255 204.774 72.7634 208.264 74.9747 208.795C75.5897 209.087 76.5082 208.954 76.869 208.734C77.2017 208.531 77.2 208.199 76.5208 208.092C74.4672 207.768 73.3051 206.366 74.3031 204.953C75.2717 203.581 77.0562 203.851 80.4842 205.235C83.4481 206.431 84.7506 206.069 85.1053 204.647C85.2618 204.019 85.0757 203.429 83.652 203.375C79.6923 203.225 77.0743 200.982 74.4916 202.848ZM110.068 208.31C109.895 207.306 108.132 208.329 106.96 210.103C105.807 211.849 105.687 212.098 105.46 210.281C105.121 207.571 108.16 205.463 110.052 205.402C112.33 205.167 113.822 206.353 113.875 207.715C113.981 210.395 110.532 210.41 110.068 208.31ZM9.72891 206.36L15.7616 210.231C15.7616 210.231 15.9587 212.296 15.8247 213.404L9.7655 209.78L9.72891 206.36ZM82.3203 207.907C79.6852 209.551 81.2199 212.574 83.0579 212.92C84.9957 213.285 85.1364 212.031 83.2102 211.654C82.1809 211.275 81.9203 210.364 82.3246 209.663C83.2488 208.272 84.9456 209.18 85.9329 209.619C88.1236 210.594 89.2593 210.952 89.9544 210.285C91.1898 209.1 90.0991 206.976 88.4703 207.718C88.0307 207.919 87.6999 208.109 86.7673 207.891C85.3516 207.611 83.6524 207.312 82.3203 207.907ZM9.76428 210.938L15.6986 214.734L15.5055 218.071L9.93479 214.253L9.76428 210.938ZM9.8709 215.527L15.4518 219.243C15.3642 220.653 15.4005 221.215 15.4581 222.114L9.81308 218.708L9.8709 215.527ZM108.788 216.583C113.273 217.006 111.769 221.778 108.642 220.478C107.809 219.892 107.557 219.938 106.622 222.031C105.425 224.708 105.136 224.489 105.31 221.392C105.44 218.36 106.949 216.6 108.788 216.583ZM73.4442 217.187C73.5501 217.19 73.6358 217.207 73.6888 217.246C73.9906 217.562 73.0767 218.807 72.3029 219.536C71.7331 219.88 70.3548 218.941 70.6919 218.486C71.0852 218.045 72.7209 217.253 73.4442 217.187ZM79.4209 219.669L78.619 219.773C77.4169 217.268 74.8995 217.832 74.1149 220.151L73.0097 220.031C74.1364 217.187 78.1253 215.455 79.4209 219.669ZM102.004 220.319L100.647 220.39C99.4397 217.672 97.7173 217.26 96.2471 219.936L95.197 219.651C97.0173 216.231 100.042 215.966 102.004 220.319ZM95.2322 217.2C95.9265 217.164 95.8357 217.46 95.11 218.373C94.479 219.168 94.3259 219.292 93.6962 218.855C92.6635 218.139 94.3869 217.25 95.2322 217.2ZM101.661 217.303C101.793 217.31 101.948 217.323 102.124 217.364C103.521 217.689 104.16 218.306 103.472 219.092C103.043 219.582 102.625 219.773 102.345 219.443C101.407 217.997 100.886 217.257 101.661 217.303ZM80.5312 218.083C80.6757 218.621 80.2158 219 79.7064 218.552C79.4989 218.369 79.3191 218.058 79.3457 217.83C79.6667 217.552 80.4306 217.786 80.5312 218.083ZM9.79952 219.681L15.5375 223.532C15.7217 224.881 15.7569 225.906 15.7449 226.828L9.83689 223.169L9.79952 219.681ZM93.6296 221.134C96.935 223.251 100.82 223.236 103.256 221.396C103.801 220.985 104.275 220.968 104.282 221.366C103.931 222.84 99.6998 224.717 96.4038 223.634C94.5932 223.038 93.1059 222.449 91.922 220.875C91.2186 219.85 92.671 220.514 93.6296 221.134ZM92.2239 222.155C97.0524 226.045 100.906 224.983 103.83 223.04C104.261 222.942 104.267 223.301 104.36 223.97C104.48 224.828 103.712 225.248 101.612 225.823C97.5524 226.935 92.7984 225.685 91.9502 223.16C91.8517 222.664 91.6481 222.019 92.2239 222.155ZM9.76292 224.188L15.5811 227.917L15.3854 230.751L9.71793 227.17L9.76292 224.188ZM9.84117 228.531L15.3333 232.009L15.3074 234.356L9.96533 230.8L9.84117 228.531ZM49.8182 229.771C73.2842 234.78 89.9351 232.498 106.277 229.886L120.655 256.253L33.4569 256.057C39.1812 247.524 43.9515 238.189 49.8182 229.771Z" fill="#131F67"/>
<path id="path3442" d="M52.8078 2.17781L57.1267 9.72533L57.1352 10.0797L59.5219 14.4379L59.8834 14.6547L60.4218 15.6042L60.4805 16.0652L61.8147 18.0589L61.8046 18.486L67.4592 28.3184C72.157 26.7105 110.71 23.9203 124.964 28.7545L127.054 25.495L127.551 25.4935L131.238 19.5436L131.181 19.0418L132.419 17.7419L132.6 17.1485L136.665 11.2933L136.683 10.3471L141.769 2.54468L52.8078 2.17781ZM140.073 3.6081C140.073 3.6081 137.419 8.30251 136.052 10.1989C134.955 9.39031 131.763 9.92555 131.943 13.0441C126.749 11.1995 125.475 16.9466 129.491 18.2553C127.422 19.9185 125.457 18.0224 123.897 16.7359C122.366 17.082 119.186 18.1134 117.398 15.0394C117.398 15.0394 118.149 15.4184 118.898 15.8299C123.147 17.0438 123.508 11.7236 120.348 10.8413C119.95 10.7428 119.2 10.7007 119.2 10.7007C120.278 6.61225 113.456 5.15985 113.309 10.0772C113.309 10.0772 112.498 9.95139 111.882 10.0533C108.261 10.6524 109.073 15.6038 112.773 15.3798C113.282 15.3489 113.738 15.4351 113.738 15.4351C113.674 16.2274 109.192 17.7261 105.977 14.9887C104.444 16.0636 102.018 17.4092 98.8707 14.7048C100.947 14.6337 102.939 14.0929 102.924 11.9112C102.914 10.4907 101.541 9.21796 99.5557 9.14353C99.4486 7.55606 98.1793 6.03733 96.524 5.91536C94.5027 6.01766 93.464 7.5258 93.4444 9.12222C91.7255 9.28082 90.1128 10.6796 90.4767 12.2918C90.9732 14.4912 92.7983 14.7679 94.8841 14.3564C92.3356 18.1266 88.2148 16.141 86.947 14.9318C85.4269 16.2375 82.7786 18.0034 79.533 15.5654C81.2682 15.2963 83.2002 14.3597 82.8826 12.1146C82.6324 10.3452 80.4934 9.81265 79.5629 9.90294C79.5648 8.73445 78.6198 6.80324 76.3726 6.99456C73.9206 7.20331 74.0571 10.0778 74.0859 10.1005C72.0621 9.93874 70.5854 12.1414 71.1579 13.5529C71.8545 15.2706 73.3238 15.809 76.0285 15.3554C72.8651 18.0887 70.8657 17.0165 69.1463 16.4337C67.6174 17.9091 65.5813 18.3796 63.5001 17.0594C68.1649 17.2819 67.4495 9.63135 61.9061 12.3853C61.4327 10.949 60.7258 9.18004 57.8264 9.58215L54.5451 3.65842L140.073 3.6081ZM96.5672 10.994C96.7928 10.9858 97.0326 11.0303 97.2677 11.1424C97.9962 11.4893 98.1308 12.0906 97.683 12.9765C97.5255 13.2876 97.2985 13.6444 97.334 13.974C102.441 22.7775 113.782 18.8906 114.862 14.8124C114.931 14.5538 114.802 14.27 114.657 13.992C114.224 13.319 114.283 12.7692 114.851 12.3108C116.06 11.3345 117.785 12.4978 117.081 13.8167C116.895 14.1647 116.699 14.5458 116.838 15.0125C119.725 21.1455 125.514 21.6258 130.382 19.2195C128.13 22.9281 119.445 25.1765 115.833 16.215C109.992 23.4851 100.764 23.3152 96.6038 15.0691C92.8071 23.4756 81.4417 23.6352 77.3296 16.6271C73.5364 24.6147 64.8105 22.7691 62.3547 17.7527C70.4474 23.2243 75.8121 17.5606 76.781 15.1413C76.781 15.1413 76.5936 14.8578 76.3358 14.6215C75.3012 13.6733 75.3336 12.5622 76.4106 12.125C77.7903 11.5648 79.0763 12.7958 78.365 13.9973C78.1657 14.3339 77.9897 14.4072 78.1187 14.6984C80.6241 20.1629 93.051 21.7914 95.5961 14.1469C95.6829 13.71 95.6356 13.3057 95.4224 12.9733C94.8346 12.0572 95.5893 11.0283 96.5672 10.994ZM60.2648 13.9577C62.2254 14.0678 61.673 15.6294 61.2796 15.7467L60.2648 13.9577ZM133.078 15.1869C133.092 15.2163 131.862 17.2084 131.862 17.2084C131.218 16.2476 131.39 15.055 133.078 15.1869ZM126.414 25.2499C126.414 25.2499 125.152 27.8139 124.738 28.0282C101.529 22.4297 69.1034 27.1142 68.3045 27.643L66.8857 25.1459C87.2651 21.4438 107.568 22.3206 126.414 25.2499ZM87.0423 63.281C84.7718 71.2943 79.3399 72.0915 72.7789 73.0443C64.6527 74.2243 59.3693 71.4618 56.9086 67.2603C56.9086 67.2603 45.2785 71.29 41.0314 73.6402C49.8317 77.4152 61.4467 85.7465 68.0329 95.1835C70.381 98.0622 70.2643 97.4123 70.2384 103.709C70.181 117.363 70.1984 122.439 70.1984 122.439C73.8329 122.957 74.024 125.277 73.8167 127.881C76.7395 126.696 79.5427 128.168 79.5213 130.722C79.482 135.416 74.5125 134.123 73.4814 133.602C75.0846 137.746 73.1798 139.452 71.2407 139.649C68.8501 139.891 66.1125 138.816 66.9282 134.083C64.3197 135.013 61.0268 133.296 60.5792 130.443L60.4691 125.614C66.952 114.394 58.895 105.224 51.3103 102.192C51.3103 102.192 53.4735 98.0794 56.2563 96.9326C56.5393 96.8545 54.581 94.1718 51.2702 94.7434C49.7474 94.7673 50.1018 94.7588 48.6752 93.029C45.8554 89.6095 44.523 89.3712 41.7512 93.0099C40.5311 94.6114 40.2406 94.6542 38.804 94.6767C37.2213 94.7015 34.7891 95.7469 34.2655 96.6866C34.1457 96.9015 34.7655 97.1237 35.5868 98.0197C36.7685 99.3089 38.5928 101.081 38.2978 102.877C32.0348 105.215 21.6233 115.533 32.487 128.828L24.5974 128.895L24.3864 81.6995L18.89 84.5116L19.0047 121.479L17.4418 120.993C17.6032 109.202 17.4525 97.4182 17.0929 85.6313L2.59086 95.356L3.04236 150.787L4.58055 151.094C5.6959 158.65 21.8476 153.425 22.7873 154.083L22.8727 184.884L22.1612 186.408L34.9757 192.958L46.771 187.337C46.771 187.337 48.3612 187.077 48.9573 186.788C53.8484 184.42 57.4853 184.968 60.1276 188.476C61.7576 190.641 62.0341 190.961 62.0341 190.961C63.0484 184.736 69.0125 182.461 74.7836 184.108C79.0284 185.32 84.8204 189.267 86.5803 194.066C86.5803 194.066 86.8972 194.789 87.2116 195.114L87.4551 195.214C87.4405 195.089 87.1772 194.491 87.0777 194.2C81.1637 181.49 64.3798 179.485 61.7535 189.843L59.3868 186.745L71.9136 179.68L88.9612 190.164C88.9612 190.164 88.1455 193.826 88.0488 195.409L88.343 195.538C88.427 195.338 88.551 194.578 88.6274 194.102C88.9048 192.372 89.4048 190.919 90.0801 189.81C90.4869 189.142 90.9572 188.599 91.4828 188.195C92.505 187.649 93.4512 187.708 94.4899 186.811L92.0017 185.073L91.9651 179.523L96.9564 186.051C98.534 185.719 104.68 184.041 108.316 185.935C108.727 186.055 114.073 184.662 117.374 191.583L133.408 185.472C133.408 185.472 134.431 184.942 134.442 184.802C118.494 179.283 102.441 159.882 103.993 159.577C103.993 159.577 103.953 157.591 104.093 152.722C104.242 147.295 104.191 141.754 104.308 136.308C98.8802 134.68 100.245 130.624 100.245 130.624C96.9766 131.277 96.4579 130.687 95.6327 130.151L95.0868 125.009C97.0509 123.471 98.2266 123.331 100.648 123.832C100.648 123.832 99.4812 121.595 100.556 119.761C101.461 118.311 103.859 117.402 105.768 118.432C108.234 120.002 107.435 123.271 107.08 123.727C109.653 122.669 112.79 123.869 113.554 126.228C113.963 119.263 114.643 111.466 116.172 105.396C118.989 94.4386 123.58 82.9696 129.312 73.9578C130.249 72.4523 131.445 70.9449 132.411 69.5355C133.307 68.2805 133.734 67.4673 133.734 67.4673C133.734 67.4673 132.513 68.0856 131.221 68.4149C129.364 68.875 127.965 69.3143 127.752 69.5099C126.391 70.5646 124.608 71.3435 123.152 71.9247C118.017 73.7575 114.579 70.9855 112.465 66.7629C111.261 72.1121 105.954 76.6234 98.1619 73.7812C93.7611 71.5963 92.38 70.2043 88.2774 64.5293C87.9332 63.9495 87.0423 63.281 87.0423 63.281ZM87.2091 64.1565C90.1078 69.5152 94.4618 73.3199 98.7018 74.8496C106.273 77.18 111.289 72.6975 112.713 68.5682L114.168 70.8701L102.665 78.3858L85.3837 68.1167C85.6741 67.8716 87.2353 64.28 87.2091 64.1565ZM139.321 64.707L134.171 67.4968C134.171 67.4968 130.738 72.5943 129.584 74.5143C123.552 84.3162 119.013 94.9869 116.628 105.581C115.666 109.459 114.634 116.547 114.287 119.955C113.733 125.391 113.75 127.624 113.887 132.612L114.287 133.019C114.287 133.019 113.653 134.042 113.198 134.904C111.962 137.247 111.658 138.574 111.723 141.296C111.872 147.561 115.958 153.571 121.75 156.034C122.077 156.173 122.511 156.353 122.511 156.353C122.511 156.353 121.508 158.842 119.697 160.592C118.489 161.759 118.231 161.815 118.655 162.393C119.244 163.196 121.152 163.899 123.526 163.875C124.367 163.866 124.361 163.864 125.909 165.438C128.929 168.51 129.841 168.45 132.611 164.99C133.434 163.962 133.902 163.716 135.099 163.694C136.861 163.661 140.081 162.354 140.07 161.737C137.903 160.839 135.407 156.239 135.806 156.192C147.688 150.413 150.244 138.359 141.611 129.458L149.886 129.365L150.022 177.488C151.646 176.496 155.316 174.364 155.316 174.364L155.326 136.917C155.895 137.019 156.473 137.399 157.579 137.57L157.78 172.978C157.78 172.978 158.858 172.577 159.795 172.015C164.428 169.207 173.503 162.707 173.503 162.707L173.384 108.139L172.175 108.134L172.177 162.674L158.098 172.136L158.125 138.241C158.125 138.241 159.235 138.091 159.65 138.039C163.763 137.519 165.684 132.665 162.966 129.481C162.002 128.351 162.689 128.433 164.749 128.074C168.403 127.788 170.434 125.235 169.378 123.407C168.925 122.623 169.518 122.71 169.907 121.967C170.162 121.384 170.117 120.658 170.01 120.083C169.869 119.329 170.204 118.997 170.411 118.516C170.737 117.763 170.427 116.911 169.891 116.201C169.326 115.452 169.485 114.651 169.482 114.155C169.461 113.047 169.029 112.887 167.768 111.813C166.813 111 167.582 110.826 168.993 110.159C171.212 109.109 171.378 105.368 168.436 103.764C166.864 102.906 163.998 102.966 157.783 103.854C155.427 104.19 152.66 104.411 152.66 104.411C152.66 104.411 152.714 83.0764 152.59 72.0789L139.321 64.707ZM139.319 65.4608C139.319 65.4608 151.907 72.3466 151.806 72.5379C147.552 77.9026 131.679 99.2826 131.475 125.202C119.895 123.813 115.122 132.196 114.559 132.162C113.147 100.43 127.112 77.7799 134.26 68.1708L139.319 65.4608ZM131.349 69.6069L131.306 70.3841L128.794 73.8379L128.74 70.3751L131.349 69.6069ZM127.484 70.7995L127.556 76.3775L122.423 79.9871L122.143 74.168L127.484 70.7995ZM80.0169 71.9106L82.6424 73.6063L82.5316 79.1413L78.5925 72.4427L80.0169 71.9106ZM152.045 74.0274L152.051 78.0317C141.909 91.2024 136.559 106.268 134.873 125.364L132.414 125.28C133.131 106.288 140.088 88.9803 152.045 74.0274ZM83.6665 74.1987L89.8814 77.9939L89.5901 84.3056L83.9478 80.9223L83.424 79.6297L83.6665 74.1987ZM121.369 74.5988L121.323 80.4685L116.501 83.7635L116.298 77.9353L121.369 74.5988ZM63.0557 75.9312C63.7693 75.9416 64.3376 76.4255 64.4681 77.34C64.9827 81.2431 68.1877 80.1282 68.9451 81.3034C69.2316 81.7044 68.5478 82.0496 66.3573 81.8785C62.341 81.5858 59.4233 78.5626 61.4837 76.5852C62.013 76.1374 62.5675 75.924 63.0557 75.9312ZM90.8092 78.5436L96.117 81.7044L96.079 88.1866L90.8772 85.2193L90.8092 78.5436ZM115.076 78.6471L115.468 84.3817L109.634 87.9511L109.445 82.2549L115.076 78.6471ZM126.156 78.7093L122.79 85.2976L103.242 98.2412L87.0914 88.4661L84.1114 82.0864L102.954 93.5763L126.156 78.7093ZM73.5532 81.1451C78.7359 81.1042 82.6952 86.2191 84.0407 90.6932C85.02 93.6519 85.1668 94.716 85.2549 99.408C85.3451 104.188 85.5038 105.013 86.4674 105.692C87.061 106.11 87.2344 105.998 87.3126 105.153C87.487 103.276 89.9039 104.441 89.9396 106.42C89.9789 108.618 87.3674 109.315 85.4446 107.62C84.4207 106.717 84.4074 106.726 84.0801 108.491C83.862 109.674 82.3491 117.077 86.1417 118.933C86.8568 118.999 87.03 118.467 86.5011 117.846C85.4394 116.601 87.5737 115.175 89.3068 115.972C91.4013 116.935 91.1779 120.069 88.933 121.176C86.3651 122.442 83.0553 120.982 81.5174 117.904C80.3888 115.646 80.4047 112.519 81.5728 107.88C82.1111 105.741 82.3494 104.379 82.4746 102.738C82.5157 102.2 82.5867 101.613 82.6316 101.434C82.757 100.934 82.4909 100.91 81.5702 101.336C79.0578 102.5 76.3248 101.657 75.6583 99.5112C74.8614 96.9455 77.9508 94.3085 79.8466 95.936C80.5663 96.5537 80.4766 97.1644 79.6124 97.5558C78.1147 98.2337 78.6191 100.033 80.2094 99.6825C85.4537 98.2468 80.7112 84.5967 74.8146 83.6322C70.916 82.9945 67.8393 87.1042 70.6545 89.318C71.7574 90.1853 72.8812 89.7259 72.6436 88.5052C72.3128 86.8025 74.7496 86.9949 75.6451 88.7418C77.1021 91.5846 73.3069 93.881 69.7754 92.297C63.4396 88.7792 67.8055 81.2323 73.5532 81.1451ZM97.0445 82.3106L102.26 85.5841L102.284 91.911L97.1022 89.0381L97.0445 82.3106ZM108.559 82.8972L108.564 88.7059L103.508 92.0896L103.529 85.9088L108.559 82.8972ZM122.135 86.751L119.531 93.408L103.213 103.678L89.809 95.82L87.5191 89.6453L103.31 99.2072L122.135 86.751ZM16.4637 86.8677L16.3404 120.612C11.064 120.802 8.01836 125.63 11.9532 130.217C11.9532 130.217 11.2644 130.3 10.459 130.4C6.88854 130.841 4.49174 132.587 4.95749 134.715C5.10013 135.367 4.9507 136.024 4.74858 136.349C4.42785 137.221 4.50949 137.889 4.9336 138.644C5.26656 139.236 5.21001 139.474 5.02065 139.911C4.61255 140.853 4.70676 141.58 5.17994 142.3C5.7658 142.836 5.60109 143.266 5.51902 144.12C5.42063 145.327 5.65285 145.813 6.4716 146.286C7.52702 146.895 7.91764 147.889 6.71523 147.803C6.11842 147.761 4.01132 149.631 4.01132 149.631L4.00234 95.4783L16.4637 86.8677ZM45.0541 91.2968C45.9982 91.2982 46.9666 92.4011 48.356 94.2621C49.1951 95.5945 49.2104 95.4142 51.1411 95.3507C53.1124 95.4907 54.3116 95.9778 54.8251 96.5318C55.0192 96.7416 54.5018 96.7943 53.2504 97.9632C51.9529 99.1754 51.7718 99.6585 50.908 101.017C50.5969 101.507 49.9217 101.551 49.6072 101.102C49.353 100.739 50.0113 99.5627 51.243 98.1776C52.9792 96.6345 52.6161 96.4771 50.1 96.7132C48.3325 96.8791 48.144 96.7967 47.4768 95.7996C45.4893 92.1047 44.4262 92.2255 42.498 95.8953C41.972 96.9223 42.1799 96.8569 39.9146 96.6871C38.1307 96.5534 37.6879 96.9693 38.6913 97.8418C40.2591 99.0439 40.8617 101.869 40.7754 101.835L39.5609 101.934C39.5609 101.934 39.1922 101.297 39.0312 100.896C38.7049 100.083 37.8244 98.8618 36.8674 97.8967C35.5118 96.5292 36.2617 95.7864 39.299 95.4931C40.9917 95.3297 41.0303 95.3081 41.8129 94.2535C43.1909 92.3955 44.11 91.2958 45.0541 91.2968ZM118.896 94.9133L117.123 100.664L103.203 109.646L91.929 102.616L90.4494 97.1978L103.402 104.865L118.896 94.9133ZM70.9955 99.3065C70.9955 99.3065 74.9847 106.573 76.4249 111.277C77.6777 115.37 79.3981 127.212 78.9321 127.939C77.9497 126.68 74.6872 126.952 74.6429 126.963C74.9238 125.578 73.7252 122.779 70.9459 122.216L70.9955 99.3065ZM116.681 102.118L115.274 107.781L103.42 115.668L93.6832 109.453L92.4222 103.97L103.199 110.697L116.681 102.118ZM47.9269 102.194L49.4594 102.694L49.7132 112.932L61.5381 114.796L61.8012 116.55L48.1076 114.453C47.9792 110.086 47.9269 102.194 47.9269 102.194ZM41.9213 102.479L42.2099 114.385C42.0821 114.345 32.3426 115.598 28.6133 116.49L28.8375 114.861C28.8375 114.861 35.6094 113.52 40.5129 113.013C40.5245 109.684 40.5085 106.183 40.513 102.79L41.9213 102.479ZM151.987 105.054C151.987 105.054 153.597 105.198 157.043 104.647C165.929 103.238 168.332 103.83 169.458 106.372C170.685 110.313 166.03 110.392 165.21 107.891C164.688 106.269 162.779 106.617 156.407 107.995C150.957 109.173 147.509 108.202 147.586 105.342C147.664 102.4 151.279 102.153 151.987 105.054ZM79.0154 102.646C80.1135 102.635 81.0185 103.453 81.0309 104.472C81.0433 105.49 80.1616 106.324 79.0635 106.335C77.9653 106.346 77.0654 105.533 77.053 104.514C77.0405 103.496 77.9173 102.657 79.0154 102.646ZM50.1649 102.871L51.5656 103.267C51.5656 103.267 51.7451 111.033 51.7873 111.045C54.8025 111.672 61.1336 112.797 61.1336 112.797L61.4635 114.334C58.8138 113.748 50.3652 112.435 50.3652 112.435C50.1132 109.066 50.1649 102.871 50.1649 102.871ZM39.9281 102.981C39.9281 102.981 39.9119 109.178 39.7882 112.506C39.8355 112.477 32.6111 113.547 28.9413 114.24L29.2301 112.997C32.1324 112.4 35.291 111.802 38.4872 111.192C38.4324 108.754 38.4534 103.409 38.4534 103.409L39.9281 102.981ZM45.0797 104.332C45.9614 104.323 46.6902 104.985 46.7002 105.803C46.7101 106.621 45.9968 107.287 45.1151 107.296C44.2334 107.304 43.5147 106.652 43.5047 105.834C43.4947 105.017 44.198 104.341 45.0797 104.332ZM165.219 108.619C166.196 109.972 167.02 109.935 167.988 109.806C167.744 109.872 166.6 110.494 166.664 110.702C166.697 110.805 166.176 112.51 166.957 112.582C169.903 112.856 168.402 115.689 168.754 116.126C169.547 116.971 170.128 117.507 169.578 118.556C169.09 119.486 168.394 119.454 168.932 120.254C170.101 121.895 168.477 122.229 168.617 123.343C168.713 124.016 168.965 124.936 168.695 125.459C167.883 127.034 165.031 127.923 161.864 128.035C161.413 128.053 161.757 127.37 161.548 126.937C160.766 126.475 161.198 125.703 161.462 125.198C161.724 124.527 161.727 124.527 161.242 124.184C159.894 123.401 159.964 123.042 160.075 122.48C160.377 120.817 160.099 120.653 159.559 120.405C158.867 120.087 158.964 119.386 159.276 118.487C159.491 117.865 159.341 117.709 159.016 117.143C158.826 116.81 158.769 116.63 158.765 116.417C158.865 115.558 158.035 115.558 156.87 116.396C155.879 117.967 155.534 120.032 154.912 121.336C154.432 122.337 154.352 123.384 154.912 125.698C155.991 129.236 155.179 129.822 150.893 129.052C147.67 128.306 146.728 125.11 147.638 121.207C147.785 120.575 147.748 119.964 147.685 119.469C147.343 116.778 148.102 114.197 150.133 112.439C153.522 109.504 155.194 109.061 162.178 109.499C164.911 109.688 165.118 109.848 165.118 109.848C165.118 109.848 165.134 108.628 165.219 108.619ZM114.908 109.254L114.076 114.73L107.503 118.999C104.423 116.727 102.036 117.472 99.8546 119.886C98.1361 119.07 94.7038 116.853 94.7038 116.853L93.8467 110.636L103.36 116.803L114.908 109.254ZM45.201 110.311C46.0826 110.302 46.8014 110.959 46.8114 111.777C46.8213 112.595 46.1179 113.265 45.2364 113.274C44.3547 113.283 43.6258 112.631 43.6159 111.813C43.6059 110.995 44.3193 110.32 45.201 110.311ZM113.787 116.161L113.408 121.436L111.07 123.053L108.724 122.823L108.182 119.552L113.787 116.161ZM45.1406 115.964C46.0224 115.955 46.7512 116.617 46.7611 117.435C46.7711 118.252 46.0577 118.918 45.176 118.927C44.2943 118.936 43.5756 118.284 43.5657 117.466C43.5557 116.648 44.2589 115.973 45.1406 115.964ZM51.5714 116.151C52.4529 116.142 53.1718 116.795 53.1817 117.612C53.1917 118.43 52.4882 119.101 51.6068 119.11C50.725 119.119 50.0015 118.461 49.9913 117.644C49.9814 116.826 50.6896 116.16 51.5714 116.151ZM38.784 116.389C39.6657 116.38 40.3895 117.038 40.3994 117.855C40.4094 118.673 39.7062 119.344 38.8244 119.353C37.9427 119.361 37.2139 118.704 37.2039 117.887C37.1938 117.069 37.9023 116.398 38.784 116.389ZM157.549 117.044C157.999 117.012 158.663 117.633 158.336 118.559C157.899 119.615 158.202 119.976 158.922 120.836C159.532 121.564 159.423 121.664 159.329 122.128C159.178 125.174 161.299 123.865 160.372 126.075C160.171 126.556 160.433 127.245 160.524 127.814C160.319 127.292 156.426 127.326 156.094 127.855C155.54 127.777 154.85 124.383 155.411 123.938C155.483 123.937 155.887 124.521 156.094 124.849C156.614 125.674 156.726 125.644 156.567 124.691C155.934 120.909 156.334 117.063 157.549 117.044ZM58.0152 116.96C58.8969 116.952 59.6206 117.609 59.6306 118.426C59.6405 119.244 58.9323 119.91 58.0505 119.919C57.1688 119.928 56.4501 119.275 56.4402 118.458C56.4302 117.64 57.1335 116.969 58.0152 116.96ZM32.1468 117.143C33.0285 117.135 33.747 117.792 33.7571 118.609C33.7671 119.427 33.0639 120.093 32.1822 120.102C31.3006 120.111 30.5716 119.458 30.5616 118.641C30.5517 117.823 31.2652 117.152 32.1468 117.143ZM94.7717 117.791L99.547 120.686C99.623 121.593 99.4921 122.892 99.8121 123.334C96.6899 123.053 95.1033 124.698 95.1031 124.698L94.7717 117.791ZM45.6498 119.998C50.8888 120.052 55.9603 120.844 60.6687 122.274L60.2924 123.837C50.8714 121.554 40.333 121.398 30.2539 123.836L29.4774 122.189C34.5567 120.742 39.652 120.042 44.6033 119.999C44.954 119.997 45.3005 119.995 45.6498 119.998ZM16.0259 122.02C17.399 122.002 18.8005 122.481 19.785 123.512C21.6347 125.447 20.7289 129.021 18.1007 130.149C14.1679 131.836 10.0899 128.184 11.7705 124.44C12.4683 122.886 14.2605 122.042 16.0259 122.02ZM113.21 122.815L113.144 124.384L111.953 123.457L113.21 122.815ZM88.2212 122.799C89.9526 122.782 91.3717 124.073 91.3913 125.679C91.4108 127.285 90.0237 128.6 88.2923 128.617C86.5611 128.635 85.1418 127.348 85.1222 125.742C85.1027 124.136 86.4899 122.816 88.2212 122.799ZM16.1101 122.642C15.6882 122.646 14.9855 122.803 14.6659 123.075C13.8277 123.787 14.6665 123.81 15.7701 124.002C17.7288 124.343 18.2633 125.91 18.0791 127.6C17.9117 129.136 18.4684 129.114 18.9191 128.545C20.7538 126.229 19.2063 122.84 16.1101 122.642ZM107.075 123.732C107.035 123.751 106.989 123.778 106.989 123.778C107.011 123.796 107.041 123.774 107.075 123.732ZM45.1263 124.429C47.472 124.393 47.7056 127.97 45.6182 131.959C44.9906 133.159 44.673 133.008 43.9952 131.19C42.3246 126.711 42.6988 124.467 45.1263 124.429ZM50.5514 124.552C51.0038 124.532 51.4417 124.694 51.7993 125.075C53.0557 126.412 52.0782 128.566 48.7072 131.876C47.8876 132.68 47.4638 132.987 47.164 132.992C46.3229 133.005 46.327 132.875 47.2913 129.996C47.7166 128.726 48.1375 127.332 48.2267 126.899C48.5116 125.515 49.5562 124.595 50.5514 124.552ZM42.0515 127.721C42.2773 128.713 42.6743 130.091 42.9298 130.786C43.1849 131.482 43.3535 132.143 43.3108 132.253C43.1018 132.785 41.607 132.055 40.5418 130.9C38.3969 128.575 37.5456 126.556 37.9945 125.475C38.6503 124.61 40.3218 124.231 41.0889 124.992C41.8806 125.777 41.9931 127.455 42.0515 127.721ZM56.8983 125.465C59.1635 126.714 56.539 129.538 51.4453 131.871C49.266 132.87 49.4229 132.417 51.0795 130.438C51.7135 129.68 52.5633 128.447 52.9789 127.693C53.8975 126.027 54.8172 124.36 56.8983 125.465ZM34.2414 125.394C34.962 125.392 35.6967 126.109 37.057 127.948C37.6633 128.768 38.6479 129.934 39.2476 130.542C39.847 131.15 40.3186 131.754 40.2945 131.884C40.0555 133.169 32.9903 129.07 32.487 127.353C32.3157 126.306 33.2064 125.374 34.2414 125.394ZM135.554 129.479C136.822 131.918 136.927 133.432 135.869 133.979C134.365 134.756 132.44 133.556 132.407 131.823C132.396 131.241 131.757 129.207 131.171 127.885C130.688 126.798 130.624 126.127 131.024 126.075C132.588 126.312 134.897 128.333 135.554 129.479ZM127.087 127.603C126.588 128.993 126.058 131.164 126.062 131.797C126.063 132.045 125.898 132.554 125.702 132.926C124.397 135.397 121.337 133.367 122.474 130.785C123.499 128.457 126.097 126.04 127.117 125.963C127.815 125.91 127.158 127.399 127.087 127.603ZM129.158 126.274C129.67 126.229 130.095 127.267 130.75 129.015C131.635 131.376 131.591 133.214 130.626 133.994C128.558 135.664 126.402 133.221 127.246 130.161C127.921 127.716 128.579 126.325 129.158 126.274ZM59.953 126.464C62.3981 161.516 42.9323 188.409 41.5496 189.14L34.9465 192.459L23.4041 186.578C35.4389 171.384 42.6622 153.947 43.2754 133.67C54.3561 134.707 60.0871 126.501 59.953 126.464ZM123.474 126.797C124.283 126.594 123.717 127.247 122.911 128.317C122.051 129.458 120.929 132.566 120.047 133.061C118.067 133.935 115.836 132.248 117.04 130.793C118.149 129.454 121.401 127.316 123.474 126.797ZM135.232 127.075C135.543 127.075 136.122 127.267 136.963 127.651C141.072 129.529 143.093 131.995 141.328 133.165C140.088 133.986 138.768 133.341 137.54 131.163C137.123 130.423 136.36 129.325 135.852 128.717C134.929 127.615 134.716 127.075 135.232 127.075ZM158.368 128.404C161.013 128.378 163.179 130.34 163.209 132.793C163.239 135.246 161.119 137.259 158.474 137.285C155.829 137.311 153.662 135.34 153.633 132.887C153.603 130.434 155.722 128.431 158.368 128.404ZM156.906 129.552C153.789 130.82 154.711 135.355 157.391 136.019C158.523 136.317 159.903 135.884 159.336 135.377C155.796 134.333 155.782 131.911 157.216 130.143C157.446 129.859 157.14 129.457 156.906 129.552ZM27.2409 135.333C27.1109 137.893 27.6987 140.865 26.3696 143.641C24.3556 147.907 17.9268 149.837 14.4975 149.446C13.7839 149.171 12.9523 148.91 12.2468 149.185C11.8199 149.351 11.2943 149.328 10.8403 149.13C10.4024 148.94 9.98053 149.186 9.55603 149.042C9.05993 148.729 8.25005 148.019 8.3473 147.493C8.50508 146.751 8.44523 146.201 7.50938 145.954C6.21261 145.612 5.9523 144.961 6.34092 143.058C6.42489 142.646 6.52505 142.46 6.23697 142.28C5.28309 141.682 4.92414 140.583 5.55603 139.427C5.96773 138.762 6.2859 138.292 5.55218 137.76C5.26353 137.149 5.31527 136.917 5.94392 136.141C6.6135 135.404 6.73012 135.319 6.30458 134.686C5.34831 133.263 6.44118 132.219 7.73765 131.638C9.47426 130.985 10.9908 130.65 12.8218 130.459C13.5025 130.497 13.4717 131.053 13.8796 131.589C14.4793 132.46 13.6251 133.715 14.1145 134.162C14.8225 134.468 15.1427 135.075 15.0849 135.593C15.056 136.8 15.1331 137.213 15.4839 137.719C15.8723 138.28 16.0156 139.308 15.6486 140.005C15.3219 140.626 15.3574 140.584 15.7825 140.952C16.2031 141.316 16.4046 143.136 16.2548 143.101L18.0354 142.956C17.849 143.139 18.7167 139.556 20.7553 136.792C20.651 134.62 19.7658 132.62 19.8551 129.752C24.2577 128.308 27.4213 131.786 27.2413 135.333L27.2409 135.333ZM95.5597 130.691C96.193 131.156 99.3414 131.98 99.4571 131.888C99.3535 133.287 100.263 136.009 103.544 136.928C103.57 140.829 103.473 158.839 103.473 158.839C98.9224 151.713 96.1187 142.525 95.5601 130.691L95.5597 130.691ZM19.0221 131.061C19.0221 131.061 19.1946 131.58 19.352 132.583C19.6258 134.633 19.3217 134.912 18.7392 133.509C18.057 131.867 18.0169 133.145 18.7782 136.901C18.9625 137.811 18.9546 138.022 18.7111 138.635C18.5589 139.019 18.2867 139.911 18.0743 140.611C17.4483 142.67 17.0846 143.261 16.4553 141.618C16.1345 140.781 15.8639 140.65 16.0973 139.996C16.3892 139.177 16.3217 138.562 15.7423 137.762C15.6477 137.632 15.4396 137.332 15.4065 136.484C15.592 134.582 14.6786 134.561 14.5007 134.068C14.5339 133.324 14.1652 131.518 14.7175 131.568C15.1723 131.61 16.8183 131.658 17.5985 131.395C17.9442 131.278 19.0221 131.061 19.0221 131.061ZM87.2255 131.534C88.9248 131.517 90.3156 132.781 90.3348 134.357C90.3539 135.933 88.9912 137.222 87.2919 137.239C85.5926 137.256 84.1967 135.996 84.1775 134.421C84.1583 132.845 85.5262 131.551 87.2255 131.534ZM39.7111 133.107L42.0414 133.525C42.5604 133.687 42.0775 163.499 23.3398 184.951L23.1947 179.966C32.1166 168.078 38.5624 153.484 39.7111 133.107ZM79.2467 133.871L79.6485 140.995C78.3393 139.956 75.0114 138.006 75.0362 137.964L75.0607 135.331C75.0639 135.336 77.9259 135.545 79.2467 133.871ZM61.2732 133.907C61.8348 134.129 62.3233 134.635 62.8036 135.001L61.2763 135.947L61.2732 133.907ZM114.693 134.452C124.751 137.256 134.666 137.21 144.475 135.22L145.14 136.965C134.494 139.602 123.925 139.411 113.432 136.266L114.693 134.452ZM65.9308 135.615L66.4585 138.688L60.7652 142.079L61.0578 137.416L64.0256 135.646L65.9308 135.615ZM116.219 138.348C117.137 138.339 117.89 139.024 117.9 139.876C117.911 140.727 117.172 141.425 116.254 141.434C115.336 141.443 114.588 140.758 114.578 139.907C114.567 139.055 115.301 138.357 116.219 138.348ZM142.086 138.566C143.004 138.556 143.757 139.242 143.767 140.093C143.778 140.945 143.039 141.642 142.121 141.651C141.203 141.661 140.455 140.975 140.445 140.124C140.434 139.272 141.168 138.575 142.086 138.566ZM93.6212 143.189C94.3573 145.625 94.1759 151.124 93.2045 154.851C92.9129 155.97 92.7245 159.945 92.7245 159.945C92.5459 160.153 98.4427 155.452 100.312 161.65C100.954 163.781 98.3055 165.789 96.5391 165.193C96.1951 165.076 96.3028 164.023 96.6342 163.404C97.6215 161.556 94.8286 160.584 93.2296 162.219C89.5353 165.997 93.2893 175.608 99.0571 176.56C103.845 177.351 107.702 172.942 104.515 170.295C103.121 169.138 100.878 170.719 101.897 172.189C102.985 173.76 100.969 174.379 99.4508 172.92C96.8034 170.377 99.799 166.574 103.808 167.471C110.217 168.845 108.865 178.139 102.139 178.639C96.9946 179.022 93.5395 176.932 91.3775 173.241C89.3469 169.694 89.205 166.872 90.1615 160.668C90.7296 156.984 90.2837 153.877 89.1793 153.894C88.5736 153.904 88.1006 154.173 88.0026 154.833C87.802 156.182 87.634 156.433 86.7236 155.94C85.5676 155.313 84.9309 153.305 86.829 151.955C88.7749 150.57 91.2826 152.75 91.1785 153.124C91.2257 153.055 91.4223 152.703 91.6885 151.124C92.5545 145.984 90.6896 140.545 88.3594 141.407C87.848 141.597 87.9086 141.811 88.5752 142.162C90.1228 142.976 88.7493 145.043 86.8031 144.827C84.0471 144.521 83.4329 140.951 85.8671 139.382C89.6992 137.483 92.8054 140.489 93.6212 143.189ZM74.8147 138.84C74.8147 138.84 79.696 141.623 79.9537 142.334C80.1187 142.791 80.304 146.759 80.304 146.759L71.8325 141.802L59.6384 148.737C59.8428 147.206 60.7325 143.266 60.7325 143.266L67.2177 139.492C67.2491 139.72 71.6843 142.457 74.8147 138.84ZM135.586 139.316C136.504 139.306 137.257 139.992 137.267 140.843C137.278 141.695 136.544 142.392 135.626 142.401C134.708 142.411 133.955 141.73 133.945 140.879C133.934 140.027 134.668 139.325 135.586 139.316ZM122.632 139.294C123.55 139.285 124.308 139.965 124.318 140.817C124.329 141.668 123.585 142.371 122.667 142.38C121.749 142.389 121.001 141.704 120.991 140.852C120.98 140.001 121.714 139.303 122.632 139.294ZM129.143 139.665C130.061 139.656 130.819 140.341 130.83 141.193C130.84 142.044 130.101 142.742 129.183 142.751C128.265 142.76 127.513 142.075 127.502 141.224C127.492 140.372 128.225 139.674 129.143 139.665ZM112.829 141.794C117.233 142.66 121.648 143.55 125.872 143.993L126.002 156.02L124.768 155.95L124.628 145.204C120.547 144.919 116.7 144.093 113.088 143.213L112.829 141.794ZM145.599 142.3L145.365 143.712C145.365 143.712 137.736 144.909 133.751 145.372C133.679 147.793 133.659 155.882 133.659 155.882L132.134 156.136L132.171 143.892C136.694 143.452 141.212 142.997 145.598 142.3L145.599 142.3ZM71.8141 142.721L80.7712 148.254L81.8075 154.09L71.3652 147.604C71.3652 147.604 61.8584 153.493 58.3016 155.676L59.4028 150.182L71.8141 142.721ZM113.248 143.953C116.859 144.675 120.47 145.425 124.083 145.725L124.201 155.402L122.541 154.986L122.437 147.132C119.615 146.896 116.719 146.379 113.805 145.797L113.248 143.953ZM145.215 144.352L144.906 145.666C144.906 145.666 139.119 146.454 136.133 146.94C135.869 146.995 135.936 155.457 135.936 155.457L134.508 155.654L134.375 145.775L145.215 144.352ZM129.012 145.379C129.93 145.37 130.677 146.055 130.688 146.907C130.698 147.758 129.965 148.456 129.046 148.465C128.128 148.474 127.376 147.794 127.365 146.942C127.355 146.091 128.093 145.388 129.012 145.379ZM71.6561 148.67L82.2451 155.35C82.2451 155.35 83.4633 158.813 83.7198 160.73L71.533 153.376L56.2195 162.716L58.0076 156.919L71.6561 148.67ZM7.33232 148.648C7.96181 148.659 8.58869 149.051 8.91276 149.949C9.36904 151.214 10.2271 151.59 12.4886 151.559C16.9291 151.355 21.5897 149.436 25.7753 150.903C27.8095 151.606 28.5252 154.394 26.8172 155.114C24.9634 155.895 24.1763 155.397 23.5392 154.047C22.9482 153.472 22.2111 153.559 18.2301 154.179C16.474 154.437 14.4107 154.667 12.6754 154.791C8.23872 155.108 5.79383 153.804 5.25019 151.355C4.90286 149.789 6.28335 148.632 7.33232 148.648ZM128.899 151.319C129.818 151.31 130.57 151.991 130.581 152.842C130.591 153.694 129.852 154.396 128.934 154.405C128.016 154.414 127.263 153.729 127.253 152.878C127.243 152.026 127.981 151.329 128.899 151.319ZM96.3807 153.086C97.5749 153.074 98.5549 153.964 98.5683 155.072C98.5819 156.18 97.6218 157.088 96.4276 157.1C95.2333 157.112 94.2585 156.221 94.245 155.113C94.2316 154.006 95.1863 153.098 96.3807 153.086ZM71.6513 154.404C71.6513 154.404 80.3657 159.845 84.3999 162.358L86.6143 168.32L71.7714 159.299L53.5325 170.216L55.7372 164.1L71.6513 154.404ZM134.698 156.485C135.483 158.466 136.915 159.978 138.429 161.515C138.429 161.515 137.578 162.999 134.559 162.9C132.909 162.847 132.82 163.086 132.253 164.122C131.323 165.433 130.568 166.29 129.968 166.714C128.908 167.466 126.93 166.331 125.304 164.032C124.711 163.194 124.466 162.996 122.671 163.024C119.915 163.067 118.92 162.355 120.356 161.212C121.609 159.806 122.511 158.259 123.633 156.78L124.872 156.917C124.924 157.087 123.897 159.931 122.464 161.082C121.736 161.839 122.751 162.118 124.524 161.777C125.65 161.467 125.937 161.591 126.765 163.189C128.489 166.237 129.392 166.093 131.459 163.017C132.183 161.643 132.156 161.506 134.13 161.91C136.251 162.115 136.892 161.87 136.023 161.181C134.266 159.789 133.306 156.517 133.306 156.517L134.698 156.485ZM71.7068 160.34C71.7068 160.34 87.4674 169.988 87.4271 169.779L90.5678 176.706L72.0708 165.208L49.3764 178.786L52.7887 171.952L71.7068 160.34ZM72.2944 166.641L77.7894 170.019L77.753 176.063L72.1417 172.538L72.2944 166.641ZM70.8816 166.81L70.9623 172.774L66.015 175.485L65.7603 169.887L70.8816 166.81ZM64.6045 170.632L64.558 170.863L64.6746 170.92L64.7152 170.925L64.8743 176.301L59.182 179.932L59.2236 173.86L64.6045 170.632ZM79.1483 170.749L84.3137 173.97L84.5047 180.369L78.8981 176.938L79.1483 170.749ZM85.5253 174.677L90.7054 178.039L90.866 184.428L85.574 181.098L85.5253 174.677ZM58.0475 174.604L58.0014 180.507L52.8234 183.834L52.6006 177.803L58.0475 174.604ZM112.661 182.412C111.633 183.4 111.255 183.276 110.383 181.637C109.478 179.936 108.115 179.137 106.135 179.163C103.637 179.194 105.275 177.681 107.924 177.511C112.502 177.34 114.816 180.196 112.661 182.412ZM51.434 178.736L51.5505 184.658L46.4009 187.118L46.2532 184.31L48.9149 180.028L51.434 178.736ZM44.777 186.628L44.951 187.707L43.9998 188.043L44.777 186.628ZM106.497 229.524C84.8474 233.741 64.1107 232.152 49.2346 229.546L42.3948 240.301L41.9275 240.281L40.1652 243.063L40.352 243.384C40.352 243.384 34.6653 253.422 32.2743 256.585C60.0799 256.433 121.11 256.522 121.11 256.522L117.415 249.575L117.619 249.387L113.972 242.134L112.782 240.876C112.782 240.876 112.058 239.565 111.517 238.158C111.019 236.863 108.877 233.316 108.877 233.316L108.572 233.338L106.497 229.524ZM50.0124 230.844C50.2984 231.056 77.7071 235.945 106.151 231.12L107.697 233.538C82.7997 238.761 46.8195 233.563 48.2418 233.076L50.0124 230.844ZM50.4683 235.59C52.9764 235.516 55.513 236.774 57.2184 238.864C57.7611 239.529 58.6469 241.488 58.6469 241.488C58.6469 241.488 59.8535 239.65 61.034 238.731C62.8193 237.342 65.1331 236.186 68.4746 236.308C71.5508 236.42 74.9325 237.976 77.9732 242.451C78.7536 239.878 88.8934 231.161 97.1822 242.103C98.1447 239.207 102.621 233.43 109.822 237.502C110.311 238.482 110.816 239.56 110.816 239.56C106.567 236.779 99.5401 238.61 97.8652 242.921C97.7145 243.446 97.9019 243.72 98.1197 244.231C100.304 247.147 94.5944 247.058 96.2942 244.71C96.6125 244.176 96.64 243.736 96.1375 243.032C94.805 241.167 90.7833 238.837 87.8258 238.886C84.4104 238.943 80.619 241.031 79.3482 242.936C78.8794 243.639 78.7708 244.344 79.1786 244.961C79.4741 245.583 79.3704 246.103 78.8685 246.482C77.6891 247.373 76.2154 246.335 76.7857 245.014C77.16 244.433 77.1051 243.718 76.3467 242.723C74.8233 240.725 71.2595 238.613 68.1514 238.662C63.7032 238.742 59.1998 241.697 59.4759 244.144C59.5972 245.219 59.2788 245.619 58.3332 245.492C57.1832 245.337 57.0563 244.329 57.8728 243.511C57.9943 243.249 58.1914 242.612 57.8216 242.145C53.1455 236.238 46.1072 237.931 44.4915 239.244C46.0655 236.76 48.2552 235.656 50.4683 235.59ZM46.2731 239.664C48.0356 239.684 49.9295 240.926 50.5275 241.893C50.9646 241.477 54.9576 239.727 56.8865 242.255C51.8127 241.883 51.733 246.877 55.4818 247.371C53.7547 252.183 61.421 252.501 60.9509 247.974C66.6769 248.779 65.9937 242.042 60.5984 242.734C63.4302 240.836 65.3508 241.459 68.7385 243.658C69.8847 242.284 74.5438 241.012 75.6787 243.423C70.3446 243.099 71.2333 248.832 75.2176 248.895C74.0199 252.862 81.853 254.35 80.6651 248.415C85.6391 248.756 84.9405 242.52 80.1709 243.019C80.5282 241.886 85.3688 241.413 87.4995 243.586C89.47 241.93 91.6431 240.799 95.5528 243.191C90.2135 242.346 90.1247 248.777 95.0875 248.409C94.6096 252.666 101.624 252.762 100.469 247.839C105.815 246.521 102.896 241.21 98.9684 242.656C100.721 240.737 103.683 241.655 104.858 242.05C108.507 238.204 111.663 241.442 111.663 241.442C105.339 240.808 106.685 249.174 112.86 246.162C112.848 247.883 113.639 249.375 116.155 249.627L119.127 255.38L34.3363 255.602L39.0413 247.989C39.5136 248.128 42.2166 248.366 42.8087 245.428C48.3748 247.087 48.7696 241.072 44.6104 240.106C45.1159 239.785 45.6856 239.658 46.2731 239.664ZM42.9585 241.829C43.5096 242.657 43.0438 243.193 42.09 243.211C42.09 243.211 42.7132 242.378 42.9585 241.829ZM112.708 243.137L113.253 244.209C112.66 243.983 112.588 243.747 112.708 243.137Z" fill="black"/>
</g>
</g>
</g>
</g>
</svg>
