<svg width="174" height="257" viewBox="0 0 174 257" fill="none" xmlns="http://www.w3.org/2000/svg">
<g id="red-Q">
<g id="layer1">
<g id="g932">
<g id="g3870">
<g id="g3887">
<g id="g3134">
<path id="path3012" d="M117.628 2.16522C117.628 2.16522 144.498 38.0009 153.611 44.3613C154.281 44.6513 165.516 42.6712 165.516 42.6712C159.758 29.9513 156.053 16.7913 159.79 2.03748L117.628 2.16522ZM132.559 58.8407C114.035 63.6648 95.5457 68.2015 75.4642 60.3378L53.5333 79.8881C53.3512 80.3922 81.9525 91.7605 82.402 90.5162L75.3626 111.251L91.593 114.548L99.0438 92.4912C99.0438 92.4912 121.452 90.5078 131.851 87.2154C139.758 84.7121 147.936 82.8966 154.996 77.4582C140.412 69.3706 132.544 58.7445 132.559 58.8407ZM21.1425 64.6218C14.1217 60.6465 8.6341 68.828 13.7749 72.9133C13.1706 75.2998 12.9656 78.8518 15.4681 80.4123C17.7676 81.7535 22.0565 80.3625 22.6756 80.3772C22.7197 80.3783 22.7868 84.673 22.4293 84.6619C21.7643 84.6413 19.2537 82.6681 17.7051 82.2398C12.4724 80.7922 5.11217 80.078 5.24232 80.3271C5.46064 80.745 3.93885 81.7352 9.77799 85.1182C11.9469 86.3748 18.7996 84.9594 24.2572 86.5479C27.5823 87.5157 30.8511 89.1246 32.6564 88.3232C34.9388 87.4431 37.6006 84.6644 38.4594 82.4007C38.7014 79.9284 24.7664 85.2774 25.6136 85.3643L25.5699 80.3815C31.1853 80.9517 36.2535 77.1968 30.7348 70.7591C34.8447 66.9897 29.0957 58.0062 21.1425 64.6218ZM44.537 87.4116C30.7266 100.257 2.49731 124.364 2.49731 124.364L2.79941 142.356L30.3777 165.126C32.5625 140.954 47.45 118.394 61.6252 107.109C62.9271 103.676 47.5391 88.6159 44.537 87.4116ZM142.934 91.8552C140.853 106.718 138.962 126.987 111.634 149.518C116.369 156.959 122.397 164.532 131.071 168.147C131.687 169.425 156.144 144.796 171.189 133.152L171.11 117.378L142.934 91.8552ZM19.7678 95.0458C19.7109 95.3696 18.7017 99.2736 18.4415 99.1703C18.4619 99.3828 21.24 98.2182 21.5541 97.1476C21.8295 96.209 22.4665 94.9372 22.5081 94.7575C21.8818 90.7386 20.6974 93.593 19.7678 95.0458ZM9.53742 105.437C8.54455 107.649 7.61567 111.712 7.95836 114.357C12.8509 116.616 14.1806 107.217 12.8648 106.318C12.0767 106.011 10.2085 105.415 9.53742 105.437ZM160.637 148.534C160.183 150.409 160.279 150.965 161.183 151.331C162.766 151.971 163.478 151.198 164.75 148.145C165.507 146.328 166.182 143.594 165.571 142.506C162.57 140.574 160.984 147.118 160.637 148.534ZM86.6432 144.13C85.6831 144.137 84.7589 144.21 83.9034 144.391C75.8272 146.095 76.4386 159.115 75.068 164.307C49.6993 167.648 42.9892 169.238 36.0377 171.873C25.2297 175.969 21.8068 178.47 18.9468 180.532C20.7438 180.338 40.1375 197.023 41.1377 199.379C39.904 196.149 78.6561 188.288 99.2959 196.183C101.827 197.02 121.111 178.916 120.502 176.896C123.005 172.853 96.1963 168.31 92.8156 165.785C90.0418 152.009 111.544 144.463 96.6535 144.864C93.9435 144.937 90.0722 144.104 86.6432 144.13ZM154.114 159.606C153.637 160.127 153.155 160.403 152.534 161.012L151.117 162.736L152.149 164.274L154.791 161.585L154.114 159.606ZM135.198 176.931C137.981 175.772 147.861 171.353 148.285 172.375L148.076 176.798C146.564 176.342 136.809 177.83 142.451 187.121C138.898 194.502 146.816 198.308 152.362 193.428C163.986 197.108 162.43 186.376 160.032 184.642C161.922 181.933 159.546 176.164 158.364 176.144C158.364 176.144 168.508 178.254 167.516 176.588C167.063 175.827 166.496 174.516 164.242 173.127C161.644 171.527 157.08 172.108 153.385 171.395C149.436 170.632 146.893 169.329 143.574 169.145C138.564 169.566 133.889 173.624 135.198 176.931ZM22.1536 211.763L8.17716 215.21C8.17716 215.21 12.6981 224.89 14.2623 233.522C16.1757 244.08 14.6472 255.56 14.6472 255.56L55.2117 255.749L22.1536 211.763Z" fill="#E2CF00"/>
<path id="path3082" d="M58.5775 255.617C40.7792 232.178 24.2874 209.882 2.3916 185.308C2.3916 185.308 2.40981 175.81 2.48657 166.39L69.7526 255.386L58.5775 255.617ZM94.6098 217.772C94.0365 213.32 93.0538 207.993 91.6405 203.408L103.923 192.723C102.597 202.271 100.562 209.596 94.6098 217.772ZM153.308 184.095C156.056 187.464 151.418 189.334 149.666 187.835C146.115 184.795 151.317 181.655 153.308 184.095ZM31.5297 162.882C29.4918 164.087 35.192 133.508 50.8391 117.704C60.3563 142.858 43.5643 156.96 31.5297 162.882ZM108.724 162.769L98.3316 160.181L103.506 146.771C103.506 146.771 113.263 148.88 112.431 151.665C109.722 160.729 108.724 162.769 108.724 162.769ZM60.6163 157.614C63.4302 153.345 65.5666 148.639 67.5335 143.823L82.3099 141.934L73.7455 157.259L60.6163 157.614ZM123.248 138.796C115.205 124.02 124.681 100.632 142.18 94.195C141.55 109.18 136.511 124.358 123.248 138.796ZM69.1916 134.598C69.5457 129.349 68.894 123.849 68.1073 118.975L104.686 123.474L105.964 137.621L69.1916 134.598ZM95.9599 112.122C97.1995 107.622 98.3009 103.877 100.694 100.23C103.358 100.308 114.16 98.6693 112.783 100.605C109.846 104.072 108.441 109.699 106.518 113.238C104.5 113.041 95.3549 114.494 95.9599 112.122ZM71.7307 109.544C68.0313 108.34 62.973 108.003 61.0059 105.364L64.854 94.1124L76.2509 97.3383L71.7307 109.544ZM103.714 2.19139L112.646 2.11273C112.646 2.11273 155.562 52.7795 171.646 72.4964C171.11 74.5033 171.826 91.5113 171.826 91.5113C149.043 61.9276 103.714 2.19139 103.714 2.19139ZM21.4175 72.8857C19.0178 70.5087 22.8343 68.4025 24.421 70.5265C25.8186 72.3972 22.6831 74.1393 21.4175 72.8857ZM69.5711 64.5786C69.7096 52.8372 78.7333 38.9029 78.6397 39.259C78.5352 39.2361 79.9258 50.7371 81.66 54.3563C81.192 54.994 69.9979 65.3144 69.5711 64.5786Z" fill="#D40000"/>
<path id="path3084" d="M0.721897 0.0410156L0.385986 256.929L173.614 256.959L173.555 0.456973L0.721897 0.0410156ZM159.029 2.05153C157.622 16.2655 157.376 27.4043 165.369 42.1457C163.925 43.5427 153.048 43.9388 149.621 45.593C149.558 45.9901 150.501 46.677 150.501 46.677C154.087 45.1416 168.069 43.7411 168.069 43.7411C162.214 34.3235 157.396 16.2092 161.023 2.31701L171.115 2.34657L171.051 70.7923C171.051 70.7923 171.845 84.0041 172.144 91.4478C166.77 85.0404 159.645 76.0911 154.991 69.4479C149.346 62.1202 143.061 53.5241 136.607 45.4596C134.705 42.9188 131.992 39.6223 129.778 36.654C126.303 32.0699 123.429 28.5128 119.824 23.578C115.976 18.4686 112.286 13.8313 107.711 7.8983C103.832 2.8487 103.652 2.25037 103.652 2.25037L159.029 2.05153ZM92.7489 2.31701C99.291 12.8071 111.001 16.3596 113.948 17.067L115.661 19.3763C101.854 16.8798 94.4605 8.70155 90.9888 3.64436C90.7187 3.25094 90.7491 2.34657 90.7491 2.34657L92.7489 2.31701ZM86.2737 2.31701C84.4643 6.27804 81.9316 8.55424 79.5313 10.953L79.6141 8.40541C79.6883 8.5651 83.208 4.96154 84.4199 2.31701H86.2737ZM89.4413 2.31701C89.4413 2.31701 89.4941 2.99378 89.2755 3.54991C87.8887 7.68008 79.2816 15.5196 79.5291 14.3449L79.4415 12.3225C79.4038 12.4095 85.9075 6.60869 87.6109 2.31701H89.4413ZM83.1819 2.31701C82.511 3.46991 80.0084 6.9523 79.782 5.9875L80.0042 2.31701H83.1819ZM102.847 2.31701C103.932 3.76561 104.917 4.82496 106.058 6.30643C106.27 6.58885 106.399 6.92267 106.345 7.04971C106.172 7.46117 105.657 7.15562 104.232 5.9904C101.895 4.07909 100.305 2.31701 100.305 2.31701H102.847ZM94.1423 2.31701L96.2562 2.32174C100.635 9.03129 108.49 12.6013 111.209 13.382C111.935 14.1197 112.717 15.469 113.021 15.7674C105.688 13.9351 97.474 8.21512 94.1423 2.31701ZM99.283 2.2886C101.615 5.39331 105.269 7.57002 107.327 9.05576C108.434 9.85632 109.895 11.491 109.759 11.8156C105.175 10.479 99.8141 5.79073 97.3538 2.31701L99.283 2.2886ZM90.2965 4.20969L91.5705 6.081C88.4836 10.7773 84.6126 15.0081 79.4498 18.3428L79.422 15.8902C85.2806 11.9974 87.8121 8.08553 90.2965 4.20969ZM92.3629 6.92185C96.0431 11.4962 103.974 18.5758 116.694 20.6913C116.694 20.6913 117.416 21.2933 118.47 22.617C119.807 24.2962 119.828 24.3625 120.004 27.1145C120.122 32.151 121.896 38.9862 123.657 43.2866C123.439 44.3557 123.236 44.9003 121.051 47.6231C111.946 58.9694 92.5505 69.7011 82.9949 55.0537C79.8082 50.3611 79.4981 41.3644 79.2959 35.7545C79.2959 35.7545 79.3561 35.3597 79.3801 35.2531C79.6101 34.2347 79.9256 34.3951 81.6506 34.8313C83.3994 35.5239 85.2202 34.9644 87.0709 34.4999C89.1781 33.7146 89.3533 34.32 87.3212 36.07C86.6184 36.6752 85.7583 37.6002 85.8488 37.5558C85.9392 37.5113 87.1213 37.0659 87.6438 36.6989C89.2676 35.5583 89.6514 35.9952 89.0497 37.2505C86.4969 42.5753 86.0437 42.7875 89.6346 44.2666C90.3831 44.5749 90.8941 44.9193 91.314 45.2575C93.7692 47.3895 92.8876 46.241 92.2011 45.262C91.1448 43.7299 92.0997 42.9202 93.8829 43.8689C95.0745 44.5029 96.6398 45.0145 97.4912 44.7719C99.1434 44.2756 99.6476 42.6056 99.1574 40.768C98.7651 39.7517 96.5075 37.9565 97.0281 39.8354C98.385 39.779 99.5568 41.5545 98.3775 42.7564C97.4878 43.8635 95.901 43.2656 93.4673 41.7811C92.1226 40.8485 90.4896 41.3253 90.553 42.4723C90.5956 43.2425 89.4136 43.0655 88.6455 42.0841C88.219 41.5392 88.5084 39.9704 89.3096 38.484C94.3551 29.1247 90.1013 20.0491 81.3637 22.6075C80.4028 22.8889 79.5363 23.1171 79.5363 23.1171L79.4891 19.5366C84.5059 16.3109 89.8274 11.167 92.3629 6.92185ZM97.4643 23.7248C96.1469 25.1921 96.6138 26.4982 99.5063 25.1829C101.862 24.1119 102.188 23.9856 104.755 23.9C108.399 23.7785 111.668 24.8477 115.715 27.1382C118.397 28.6562 118.787 28.7711 118.059 27.8199C115.893 23.9947 103.088 18.1872 97.4643 23.7248ZM85.0917 24.1628C87.6203 24.7505 90.047 26.2915 89.6243 26.9299C89.4723 27.1595 89.3254 27.2032 89.0035 27.0482C87.1536 26.2051 84.205 24.8265 79.9424 26.5085C79.4725 26.6939 79.2116 26.4064 79.2138 25.8836C79.2181 24.8688 81.0696 24.0584 83.0253 23.9929C83.7215 23.9922 84.4802 24.0252 85.0917 24.1628ZM99.7805 27.13C98.2733 27.8527 97.7558 28.2376 97.1154 27.9146C95.5857 27.1431 95.9088 27.7484 96.8588 29.3017C97.5292 30.3978 97.5227 30.6231 97.4232 31.2948C97.3151 32.0248 97.3315 32.053 98.1005 32.8334C99.539 34.5776 100.97 36.2602 103.124 37.5833C103.795 37.9959 104.693 38.4653 104.76 38.4672C104.975 38.4732 104.893 38.3154 104.509 37.9701C101.751 35.522 99.5753 33.3279 102.384 34.2599C105.654 35.2438 108.765 34.0179 111.316 33.2177C112.355 32.9218 113.448 32.6723 113.719 32.6725C116.074 32.6748 116.631 31.77 115.125 30.3906C110.029 25.1182 105.8 23.8771 99.7805 27.13ZM111.872 28.1182C112.925 29.0159 113.48 29.5034 113.375 29.7373C113.262 29.9881 112.451 29.5632 111.092 28.8946C108.358 27.5495 105.258 27.233 101.384 28.2649C98.3771 29.0661 99.2646 27.7944 102.616 26.5985C105.299 25.457 109 25.798 111.872 28.1182ZM83.7917 26.3021C86.0887 26.2681 88.4812 26.9638 90.081 28.2365C91.197 29.1244 90.381 29.3311 88.5674 28.6389C85.8239 27.592 83.5122 27.4251 81.261 28.3975C80.5544 28.7027 79.7395 29.0659 79.5165 29.0461C79.1403 28.8111 78.9803 28.1281 79.3062 27.6447C80.2111 26.8254 82.0051 26.3285 83.7917 26.3021ZM121.651 27.0293C121.82 27.036 122.074 27.2833 122.451 27.7726C123.139 28.6626 123.165 29.1021 122.595 30.6604C121.9 32.5631 121.621 32.2545 121.446 29.6C121.332 27.8777 121.329 27.0165 121.651 27.0293ZM123.929 29.8982C124.191 29.8639 124.497 30.2904 124.986 31.1717C125.328 31.7868 125.247 31.9709 124.181 34.8502C123.734 36.0553 123.315 37.0149 123.303 37.0232C122.975 37.2617 123.018 37.2406 122.877 37.0753C122.117 36.1791 122.172 34.4312 122.826 32.3363C123.322 30.7487 123.592 29.9423 123.929 29.8982ZM103.231 30.116C103.314 30.1094 103.824 30.2118 103.824 30.2118C103.771 34.4767 107.345 33.6187 107.818 30.5894C107.818 30.5894 108.7 30.5056 108.835 30.7076C109.259 31.3418 108.275 33.1663 106.804 33.7633C105.73 34.2055 104.271 34.0978 103.399 33.3573C103.155 32.9401 102.416 31.3555 102.554 30.6983C102.726 30.3146 102.983 30.1358 103.231 30.116ZM101.102 30.6143C101.138 30.6126 101.173 30.6125 101.209 30.6143C101.56 30.6308 101.815 30.7182 101.954 31.1102L102.72 33.2767C102.156 33.8982 100.015 32.6388 100.019 31.6937C100.022 31.041 100.553 30.6392 101.102 30.6143ZM86.5677 30.6099C87.1077 30.5616 87.2984 30.6171 87.3611 31.0822C87.5436 32.49 86.0175 34.0198 84.0385 34.103C82.1233 34.3006 81.0893 32.9298 81.1482 31.5931C81.1526 30.577 82.1001 30.4499 82.2053 31.253C82.5091 33.5723 84.6568 33.7056 85.6378 32.425C86.0089 31.9231 85.9242 30.6869 86.5677 30.6099ZM110.086 31.0818C110.239 31.076 110.442 31.1291 110.743 31.2238C112.718 31.8056 112.771 32.0872 111.082 32.6488C109.066 33.3186 108.936 33.4062 109.409 32.1091C109.673 31.3855 109.751 31.0946 110.086 31.0818ZM89.1454 31.2862C90.6098 31.3699 90.7327 32.5133 89.4447 32.895C87.5268 33.6759 86.8807 33.6249 87.6237 32.4728C88.0267 31.6568 88.3869 31.3018 89.1454 31.2862ZM79.9835 31.6972C80.1583 31.6957 80.3588 31.7578 80.5735 31.9055C80.7936 32.5186 81.1667 32.9901 81.4611 33.6241C81.1603 33.8994 80.4431 33.895 79.986 33.5605C79.0688 32.8895 79.2259 31.7039 79.9835 31.6972ZM126.028 33.0181C126.596 33.0213 127.175 33.8525 127.363 34.4719C125.376 36.8272 125.689 41.2246 125.227 42.5524C124.826 43.6328 124.697 42.7002 123.592 39.902C123.146 38.7725 125.395 33.1571 125.915 33.0323C125.952 33.0234 125.99 33.0178 126.028 33.0181ZM128.06 35.4325C128.502 35.6655 129.103 36.2004 129.209 37.0422C129.27 37.5307 129.008 38.1799 128.839 38.8222C128.438 40.3493 127.895 43.2343 127.7 45.8999C127.617 47.0343 127.622 48.0546 127.567 48.1534C126.969 49.2343 125.709 46.326 125.816 44.0105C126.208 42.1618 126.427 35.6865 128.06 35.4325ZM130.866 38.7559C131.147 39.1159 131.325 39.3915 131.411 39.7019C131.562 40.2413 131.436 40.8855 131.092 42.2593C130.18 45.9003 130.312 49.8246 130.907 53.8534C131.032 54.701 130.394 54.2764 129.429 52.8166C128.894 52.0071 128.552 50.8978 128.388 49.5878C128.052 46.724 128.7 42.8418 129.251 39.7791C129.495 38.4237 129.665 37.2293 130.866 38.7559ZM132.38 40.9716L133.975 42.7469C133.975 42.7469 133.294 46.8284 133.298 49.0055C133.187 49.821 134.091 58.6894 134.386 59.4066C133.405 58.3931 132.947 57.797 131.872 56.5235C131.749 56.542 130.819 47.786 131.461 44.437C131.85 42.4114 132.38 40.9716 132.38 40.9716ZM134.884 44.4986C135.151 44.4895 135.492 44.768 135.92 45.3223C136.306 45.8224 136.494 46.2333 136.515 46.8562C136.53 47.3102 136.287 47.6608 136.279 48.4706C136.234 53.2946 136.941 57.8473 137.83 62.2367C138.144 63.8071 137.533 63.1665 136.524 62.173C135.598 61.2632 135.582 60.9172 135.088 59.624C134.989 59.366 134.004 50.4699 134.012 49.7974C134.047 47.033 134.133 45.4933 134.478 44.83C134.591 44.6133 134.723 44.504 134.884 44.4986ZM129.084 54.1919C129.084 54.1919 127.227 55.074 126.74 54.7644C125.956 52.7904 123.125 47.5063 123.077 46.5704C123.127 46.263 124.237 44.8727 124.237 44.8727C125.801 48.003 127.208 51.2057 129.084 54.1919ZM94.1223 47.8454C93.562 48.4525 92.8946 48.1993 91.5437 47.6517C90.8512 47.4556 90.9584 47.7185 89.8142 48.2671C88.9268 48.6925 88.6151 48.7035 88.0273 48.6988C87.2518 48.6927 86.9725 48.442 86.9704 48.9451C86.9687 49.2234 86.9239 50.4811 86.7408 51.1312C86.4915 52.0161 86.2738 52.4066 86.4108 52.5601C86.8052 52.8934 87.1364 52.6901 87.9678 51.9491C89.347 50.7198 90.2774 51.0721 91.8138 51.5292C93.5613 52.0491 93.9227 52.2407 95.5209 51.7253C97.7851 50.9951 99.1487 50.9944 100.05 51.5241C101.604 52.4371 102.073 52.3834 101.433 49.8871C101.226 49.0824 101.212 47.8345 101.085 47.6184C100.941 47.3736 100.546 48.072 100.132 48.3287C99.3419 48.8193 98.9333 48.8102 97.1513 48.2718C96.0958 47.9526 94.9126 46.9089 94.1223 47.8454ZM122.781 48.1711C123.471 49.6704 126.215 54.6804 126.132 55.2401C125.597 55.6831 124.882 56.0059 124.458 55.6098C123.085 53.2995 122.674 52.0541 121.559 49.4612C121.226 48.8413 122.222 47.2619 122.781 48.1711ZM137.521 47.987C137.716 47.962 138.122 48.3345 138.424 48.7073C139.364 49.8673 139.42 50.0112 139.45 51.2543C139.558 55.7618 140.172 61.0675 141.548 65.1587C141.819 65.9639 142.333 66.9431 142.277 67.0761C141.816 67.6968 139.675 66.0346 139.029 63.5065C138.138 60.2962 137.617 56.9466 137.334 54.7663C136.975 50.9313 136.977 48.187 137.521 47.987ZM121.056 50.4731C121.847 51.88 122.843 54.3075 123.513 55.764C123.819 56.3963 122.256 56.8948 121.896 56.6797C121.271 56.2495 120.976 55.0384 120.566 54.3126C119.261 51.6803 119.026 51.6251 119.75 50.8051C120.195 50.2351 120.726 49.5367 121.056 50.4731ZM140.62 52.0875C140.735 52.0876 140.883 52.1906 141.071 52.4142C141.896 53.3138 142.457 54.001 142.672 54.6677C142.829 55.1514 142.703 55.5143 142.759 56.3909C142.907 58.6872 143.56 61.8214 145.412 68.2359C145.593 68.8615 145.838 69.6017 145.807 69.803C145.628 70.9806 143.756 69.0717 143.211 67.0997C142.579 64.8613 141.427 62.0026 141.087 59.3593C140.387 55.1636 140 52.0871 140.62 52.0875ZM119.407 53.7834C120.964 57.1352 121.087 57.1293 120.107 57.3946C119.071 57.675 119.008 57.5831 117.791 55.3008C116.903 53.6353 116.728 53.4263 117.475 52.826C118.615 51.5864 118.914 52.7685 119.407 53.7834ZM97.726 52.984C97.5487 52.9873 97.0274 53.3521 96.5031 53.5436C95.2169 54.0132 92.9332 54.0455 91.5411 53.6586C89.0743 52.7448 89.7692 53.9314 91.9511 54.6535C93.6444 55.179 96.9986 54.7716 97.5182 53.7979C97.838 53.4863 97.9539 52.9797 97.726 52.984ZM116.482 54.7465C117.871 56.7283 118.289 57.5197 118.054 57.6739C117.832 57.8788 116.731 58.2619 116.279 58.0574C115.711 57.8006 115.216 56.5769 114.967 55.6175C115.141 55.1489 116.054 54.3086 116.482 54.7465ZM81.6715 55.5814C82.2926 55.5836 83.9079 57.587 83.5802 57.9485C83.4892 58.1342 82.8835 57.9573 81.4686 57.5956C80.9961 57.4353 79.9282 57.3062 80.2661 56.6742C80.4342 56.387 81.4242 55.5805 81.6715 55.5814ZM114.991 58.3272C114.852 58.6697 113.804 58.7503 113.36 58.7249C112.977 57.9902 112.876 57.6394 112.77 57.1531C112.914 56.8612 113.632 56.1052 113.986 56.2536C114.198 56.4283 114.883 57.9651 114.991 58.3272ZM143.904 56.3957C144.125 56.4028 144.509 56.7612 145.079 57.5129C146.155 58.9335 146.009 58.8303 146.782 62.2235C147.659 66.0717 148.708 68.8122 149.768 72.7429C149.783 73.3952 149.496 73.222 148.711 72.7808C147.428 72.06 147.006 71.2593 146.602 69.1733C145.913 65.7277 144.457 62.5398 143.898 58.4692C143.603 57.1231 143.58 56.3853 143.904 56.3957ZM111.583 57.7705C112.341 57.7468 112.239 58.8234 112.022 58.9977C111.469 59.4425 109.943 59.3097 109.681 59.3348C109.095 58.487 111.09 57.7993 111.583 57.7705ZM147.752 61.4329C147.975 61.4612 148.572 62.2402 149.691 63.6911C150.766 65.0851 150.531 64.8574 151.174 67.1518C152.084 70.3223 153.591 72.6089 154.473 75.5266C154.471 75.8603 154.035 75.8173 153.616 75.6592C152.802 75.3442 152.074 74.8121 151.384 74.291C150.912 73.8208 150.916 73.2232 149.522 68.7993C149.019 67.2032 148.888 66.7883 148.26 64.3633C147.734 62.3356 147.499 61.4007 147.752 61.4329ZM31.1979 70.9048C34.853 77.1112 33.4999 79.8633 25.6375 80.7229C25.0698 80.6494 25.6058 83.9025 25.5899 85.3564C29.5294 83.2772 34.2926 82.7914 38.6829 81.4861C37.4876 85.0177 35.3891 89.02 29.0341 88.4037C22.3915 83.6677 14.5733 86.5132 9.26873 84.5905C6.3835 83.5987 5.28183 80.6418 5.24748 80.1347C8.70745 80.4545 12.614 81.1384 15.9668 80.9146C12.3044 78.3114 13.3756 74.709 13.8918 73.0618C9.60637 68.0759 13.184 62.4675 19.4087 63.7716C20.052 63.9063 21.322 64.4836 21.322 64.4836C27.3265 59.5238 34.2863 64.1833 31.1979 70.9048ZM152.682 67.8856C152.931 67.8638 153.48 68.4627 154.581 69.8835C157.846 74.098 160.673 78.0188 160.63 78.2394C160.489 78.9653 157.086 77.6931 156.228 76.6534C155.25 75.4689 152.499 69.3706 152.503 68.4016C152.505 68.0782 152.552 67.897 152.682 67.8856ZM19.7114 85.9372C21.4097 86.1674 21.8841 86.2998 21.8663 86.9124C22.0115 87.4326 17.7449 87.5019 17.1665 87.116C16.7045 86.8078 17.3004 86.1323 17.7565 85.9703C18.4178 85.7866 19.0722 85.8507 19.7114 85.9372ZM137.331 86.4958C113.493 96.8845 103.741 124.515 115.773 145.69L114.117 146.794C102.32 124.406 111.096 100.416 130.263 88.3005C131.039 87.7916 132.756 87.3985 133.554 86.9104C133.554 86.9104 125.735 88.5563 123.088 89.5115C122.551 89.4946 120.974 90.0077 119.279 91.7031C117.798 92.9695 113.166 98.8614 113.314 99.0664L101.007 99.5237L101.018 99.9434L113.097 99.6859C100.659 118.582 103.714 136.562 111.395 149.144L111.584 149.262C112.031 149.539 113.206 148.746 115.643 146.616C116.647 145.738 117.912 144.648 118.455 144.192C119.961 142.918 122.106 140.722 123.58 139.136C115.217 123.407 123.467 102.691 143.039 93.355C143.072 92.8582 142.83 91.3406 142.83 91.3406C142.83 91.3406 142.09 90.7276 141.654 90.7906C119.849 99.6529 111.113 121.66 119.978 141.672L118.516 143.141C107.377 122.417 119.334 96.5132 140.184 89.1749C140.174 88.7067 139.722 88.1089 139.162 88.4688C116.653 98.1113 106.844 122.734 117.869 143.723L116.481 144.855C103.937 121.875 117.154 96.1234 137.875 87.3243C138.486 87.1935 137.331 86.4958 137.331 86.4958ZM16.0044 86.71C16.0044 86.71 15.8464 87.9339 16.3148 88.3516C16.53 89.2248 16.186 89.13 15.3809 88.9529C13.3993 88.517 14.945 89.5572 16.5662 90.3968C18.1632 91.2239 17.9489 91.1961 16.556 92.0112C15.6196 92.5591 15.717 92.7647 15.8428 93.1806C16.0296 93.7978 16.1575 93.3868 16.5457 93.0575C17.3609 92.366 18.0122 92.1932 18.7366 92.1958C19.8247 92.1998 19.9348 93.0035 19.7423 93.6303C19.3096 94.9459 17.8417 94.8758 16.6381 94.5487C14.6691 94.0136 11.4528 90.8622 11.5027 89.0074C11.3659 87.3456 13.8302 86.6341 16.0044 86.71ZM24.8576 87.116C25.6209 87.3749 26.5816 87.7209 27.6385 88.1291C29.098 88.557 30.5771 89.2535 31.5309 89.8402C34.4352 91.6266 34.258 95.1996 34.0483 95.5545L19.0431 108.676C19.0431 108.676 18.1955 108.294 17.3974 107.918C14.8745 106.73 14.2681 106.105 15.6683 105.447C16.3475 105.128 16.5665 104.442 16.6637 103.771C16.7939 102.872 16.743 103.025 17.3255 102.616C18.3394 101.903 18.3877 101.609 18.3928 100.424C18.396 99.6396 18.4838 99.2784 18.793 98.7859C19.0384 98.3949 19.297 97.5785 19.4702 96.6413C19.4987 96.4874 19.5069 96.1025 19.5396 95.9673C19.7168 95.234 19.9686 95.0182 20.1372 94.8517C20.3054 94.6857 20.5754 94.1204 20.7632 93.6303C21.1819 92.5376 21.103 92.6997 21.7791 92.8208C22.7613 92.9966 22.6204 93.5252 22.5128 94.3641C22.4606 94.7712 22.1666 95.0568 22.2665 94.9654C22.4007 94.8425 23.0038 94.5797 23.1285 94.5535C23.4428 94.4874 23.7558 94.5868 23.8366 95.0411C23.8815 95.2942 23.7622 95.7602 23.7699 96.1205C23.7899 97.0541 23.8312 98.1726 24.0623 98.909C25.1763 102.457 24.9547 101.965 24.5754 99.0131C24.4846 98.3064 24.3778 97.2685 24.4882 96.4046C24.566 95.7955 24.7552 95.0413 25.0116 94.6292C25.6702 93.5703 25.7061 93.361 24.2778 92.8397C23.7472 92.646 22.8435 92.3068 22.6565 91.9686C22.4276 91.5547 21.7472 90.9916 20.8607 90.7992C18.705 90.3315 17.4505 88.4098 17.7617 88.1244C17.9656 87.9374 18.8338 88.1821 19.383 88.2002C21.3509 88.2648 21.7692 88.1714 22.6411 87.4806C23.1055 87.1127 23.3138 86.7854 23.6833 86.7614C24.0733 86.7545 24.5702 87.0219 24.8576 87.116ZM126.994 89.2418C106.836 104.29 103.303 128.632 113.359 147.416L111.619 148.678C98.9808 126.644 107.469 102.876 122.996 89.8777L126.994 89.2418ZM10.6144 91.036C10.9701 91.0052 11.3592 91.4866 12.7745 92.8823C13.7277 93.8223 14.7204 94.6389 15.2424 94.9133C16.4265 95.4364 16.1676 95.2186 15.1808 96.0826C14.1721 97.1503 14.7292 98.0282 13.5236 97.4934C10.3871 96.1349 8.1847 92.1324 10.2244 91.1685C10.3784 91.0958 10.4958 91.0462 10.6144 91.036ZM9.05461 95.2447C9.13116 95.2393 9.21377 95.2499 9.29576 95.2683C9.68264 95.3555 10.1517 96.0265 10.6554 96.4945C12.0496 97.7897 12.6967 98.3643 13.8109 98.819C14.906 99.2659 14.9357 99.3746 14.1649 100.164C13.8846 100.45 13.7176 100.795 13.6519 100.987C13.5861 101.179 13.569 101.424 13.3337 101.465C12.1128 101.682 8.05463 99.4106 7.89504 97.8438C8.02608 96.3783 8.42701 95.289 9.05461 95.2447ZM17.6539 95.6802C18.3579 95.6636 18.7713 96.2424 18.7673 97.181C18.7645 97.8311 18.3679 98.0954 17.5616 98.374C15.838 98.9694 14.7762 97.8314 15.9813 96.575C16.4877 96.0469 17.1722 95.6916 17.6539 95.6802ZM16.6021 99.5007C17.9022 99.5054 18.2788 100.517 17.3255 101.39C16.4301 102.209 14.6229 102.213 14.6267 101.314C14.6297 100.608 15.7746 99.4977 16.6021 99.5007ZM8.54079 100.711C9.4205 100.951 11.5614 102.374 12.503 102.541C12.5526 103.021 11.9266 103.152 12.8155 104.055C13.2191 104.465 13.2535 104.744 12.9027 104.917C11.8288 105.445 8.10833 103.776 7.85913 102.057C7.73812 101.218 8.04018 100.741 8.54079 100.711ZM13.3953 102.767C14.6753 102.817 16.1233 102.852 15.971 103.416C15.8605 103.825 15.4025 104.906 14.8166 104.704C14.5318 104.605 14.2551 104.344 14.0572 104.169C13.3742 103.564 13.1926 102.76 13.3953 102.767ZM61.8024 107.657C65.5311 110.772 79.0778 143.31 50.8477 167.016L44.8569 168.672C71.961 149.035 67.4519 121.157 60.1382 109.13C60.1398 108.777 60.0321 108.817 59.3574 109.381C58.7669 109.875 58.7041 109.981 58.9418 110.072C67.2077 121.808 70.2968 154.955 37.7309 170.95C37.1846 171.473 38.2905 171.393 38.2905 171.393C38.3482 170.963 52.9541 167.688 51.9233 167.606C65.5366 156.502 77.3891 130.023 62.6346 106.943C62.2784 106.727 61.8024 107.657 61.8024 107.657ZM57.0999 111.341L56.91 112.075C68.7257 133.479 57.4471 159.701 35.4836 169.406C35.8453 169.651 36.2465 169.82 36.6501 169.994C61.5659 157.615 68.7502 131.415 57.8814 111.122L57.0999 111.341ZM55.1246 112.859L54.9869 113.636C64.7685 131.852 57.003 157.13 33.6575 167.384C33.4361 168.487 33.6611 168.165 34.753 168.113C61.7652 154.747 64.3049 129.329 55.8527 112.822L55.1246 112.859ZM53.4467 115.043C52.6838 115.974 51.2869 116.455 50.8229 117.653C58.6704 136.79 48.528 155.211 31.3588 162.976C31.3448 163.94 30.5959 166.322 32.4138 165.942C53.6261 157.075 62.8552 133.508 53.5805 114.958C53.5805 114.958 53.4597 115.039 53.4467 115.043ZM159.995 152.043C160.776 152.094 161.476 152.312 162.201 152.4C164.836 152.715 166.545 154.487 165.368 155.565C164.981 155.919 164.44 155.716 162.729 154.943C161.942 154.588 161.816 154.256 161.653 153.455C161.458 152.495 161.251 152.398 160.986 153.143C160.719 153.895 160.432 154.362 159.532 154.172C157.006 153.63 157.961 152.025 159.995 152.043ZM131.81 168.336C125.483 165.023 117.67 159.049 113.203 152.262C110.982 156.106 108.373 163.103 108.373 163.103L98.4425 160.543L98.3257 160.734L108.141 163.344L107.184 166.366C107.081 166.692 105.561 170.132 105.561 170.132L120.892 176.733C119.942 178.105 118.906 178.992 117.589 180.271C116.845 180.992 116.824 181.927 116.824 181.927L138.08 163.219C138.08 163.219 140.822 166.971 141.842 167.822C142.798 168.62 143.096 168.813 141.98 169.051C136.985 169.726 133.109 173.216 134.461 177.896C134.679 178.417 135.119 178.225 136.066 177.676C139.382 174.905 147.487 172.34 147.764 172.991L147.796 175.971C139.07 176.088 139.964 182.007 140.603 185.182C140.603 185.25 138.08 187.285 138.08 187.285C138.972 187.717 139.846 188.164 140.671 188.696C139.904 192.644 143.55 198.367 150.712 195.438C151.331 196.024 151.916 196.613 152.599 197.348C153.332 196.565 154.177 194.721 154.177 194.721C157.735 196.206 165.116 192.882 161.341 185.266L163.422 183.434L161.423 182.271C161.371 180.335 161.046 178.605 159.793 176.918C159.793 176.918 163.152 177.708 165.637 177.841C167.172 177.969 168.466 178.005 168.337 177.149C168.299 176.897 168.069 175.665 167.919 175.261C167.178 173.266 163.333 171.801 159.599 171.608C158.99 171.576 158.334 171.594 158.203 171.448C157.959 171.174 158.397 170.786 158.799 170.85C160.844 171.179 162.811 169.784 163.165 168.01C163.235 167.699 163.653 167.129 164.253 166.523C165.317 165.448 165.4 165.476 165.38 163.923C165.366 162.845 165.571 162.606 166.11 161.884C166.805 160.853 167.129 159.509 166.779 158.118C166.668 157.677 166.216 157.054 166.601 155.956C167.228 154.169 165.851 152.535 164.044 151.604C163.899 151.566 163.943 151.697 163.823 151.829C162.184 152.3 160.188 151.216 160.188 151.216C159.776 151.03 161.584 141.339 165.329 142.204C165.952 142.553 166.215 144.237 166.168 144.267C166.34 144.263 166.434 143.276 166.191 142.617C165.938 141.926 165.356 141.268 164.239 141.462C163.373 141.613 162.373 142.674 161.921 143.206C160.171 145.263 160.151 146.576 159.567 148.765C159.286 149.799 159.255 149.739 157.704 148.621C156.59 147.818 156.05 147.561 156.438 147.09C156.612 146.879 157.333 146.21 157.333 146.21L170.891 134.173V254.712H94.2256L94.7621 239.222C96.2008 228.33 93.6698 205.457 91.7547 203.306C93.2317 201.775 97.8148 198.084 97.5621 197.917L96.9546 197.586L94.5315 199.642L88.5478 197.97C85.9952 196.344 83.3903 194.84 80.6881 194.2C76.2757 193.154 67.7774 196.484 67.7699 196.519C54.1933 197.446 43.3212 202.533 43.4735 202.494C42.8822 201.993 42.0997 200.394 42.0791 200.404C35.0808 191.417 28.2007 186.384 18.8013 180.242L30.7068 174.174L2.49452 146.976L2.24598 124.89L43.115 88.8394C43.356 88.2168 56.154 97.1796 60.919 104.473C61.8326 100.908 63.5343 97.6702 64.9522 94.1695C65.1005 93.8493 73.0831 96.8927 75.4511 97.0217C75.8052 97.041 76.0908 96.6965 76.0908 96.6965L65.5552 93.5352L67.7102 87.8415C67.7102 87.8415 68.4604 86.2945 67.6136 86.0379C62.8111 84.6046 58.3043 82.0781 53.7112 79.9255C53.7112 79.9255 55.8566 77.7248 55.8889 77.6275C55.9192 77.5359 56.789 76.355 56.5817 75.948C54.2451 78.0396 35.1775 94.3557 35.1775 94.3557C34.6351 91.5554 33.7825 90.5765 31.9288 88.8486C32.9388 88.8039 34.5194 87.8828 35.433 87.2686C38.2274 85.3903 39.7488 82.0385 39.3828 80.0802C36.7003 80.8676 34.2781 81.791 30.9181 82.3537C29.0302 82.67 27.2389 83.4567 26.1528 84.3007L25.986 81.1762C25.9924 81.2118 30.5066 81.9062 32.5972 79.1111C34.399 76.7023 33.6604 73.9452 33.2466 72.5393C33.2931 72.2272 33.193 72.2622 33.97 71.602C34.5436 71.1146 35.4374 70.4847 35.4374 70.4847C35.4759 70.3074 33.1064 69.4972 32.706 68.7572C33.3368 62.9662 28.3223 60.7306 24.0777 61.7595C23.2845 61.9803 22.9059 62.1175 21.9626 61.148C21.822 61.0036 20.6901 59.9002 20.6901 59.9002C20.6901 59.9002 20.1906 60.9636 19.9346 61.4293C19.1022 62.9438 18.8738 62.4879 17.0793 62.5691C12.5333 62.7747 10.5048 66.1614 11.5482 70.319C11.7931 71.2949 11.6833 71.1444 10.9889 72.3784C10.6343 73.0086 10.0551 73.8129 10.0551 73.8129C10.0551 73.8129 10.8889 74.2392 11.4507 74.4709C12.2828 74.8141 12.3262 75.2157 12.323 75.9811C12.4391 77.6683 12.8404 78.7979 13.8917 80.247C10.3306 80.3226 7.59863 80.0159 4.37414 79.0278C4.86765 83.6028 8.52278 85.3065 12.9995 85.9769C12.9995 85.9769 12.5298 86.3817 12.0356 86.5621C10.9884 86.8421 10.3327 87.6908 10.3425 88.4511C10.1917 89.1771 9.68257 89.906 9.21367 90.2939C8.51665 90.8505 7.94383 91.6349 8.21829 93.1521C8.148 94.2515 7.86003 94.5693 7.51023 94.989C6.80779 95.8319 6.57063 96.6697 6.74573 97.7775C6.82722 98.293 6.9998 99.3967 6.88427 100.538C6.69166 102.439 7.43005 103.152 8.36708 104.491C8.97416 105.358 8.8461 105.381 8.70572 106.01C8.36866 107.521 8.01793 108.298 7.65389 109.447C6.83939 112.019 6.80816 113.968 7.47431 114.47C8.47801 115.227 9.61427 114.999 10.1429 114.848C14.1035 113.72 13.4177 110.132 13.6264 107.723C13.7395 107.104 13.9685 106.807 14.1911 106.836C15.311 108.045 16.4948 108.745 18.0192 109.507C12.7481 114.457 9.30522 117.486 2.64192 122.885L2.82314 2.31701H78.8384C78.8384 2.31701 78.9177 3.20896 78.7367 7.57163C78.4076 16.4382 78.0034 25.7261 78.634 34.765C78.74 37.8932 78.6704 40.982 79.1574 44.0772C79.6318 47.0925 79.8416 50.3442 81.3688 53.1527C81.9825 54.6752 82.0023 54.558 79.6639 56.5519C78.5168 57.53 77.5422 58.5711 77.5848 58.7547C77.599 58.8158 77.5341 59.0451 77.71 58.9153C77.8271 58.8288 78.6743 58.055 78.7681 57.9529C79.4016 57.2638 80.4617 58.1483 84.0779 59.0894C84.7871 59.274 85.7864 59.8902 86.5509 60.4008C91.9563 64.6037 99.562 63.2932 105.248 61.001C106.861 60.3505 107.257 60.2833 109.85 59.9997C119.453 58.9492 129.713 55.0779 129.692 55.0899L130.945 56.9847C130.945 56.9847 131.417 56.9043 131.753 57.3809C137.276 67.0061 155.308 78.0043 154.988 77.4948L143.201 83.5155C151.782 93.2981 171.405 109.895 171.405 109.895L170.953 133.748C165.686 137.636 161.052 142.092 156.419 146.444C155.088 147.661 154.147 148.355 154.653 148.378C155.855 148.209 156.894 149.303 157.872 150.062C158.492 150.7 158.342 150.642 157.627 151.513C157.125 152.125 156.941 152.302 156.939 152.744C156.957 153.6 156.95 154.173 156.125 154.815C155.612 155.409 155.319 155.789 155.226 156.493C155.134 157.196 155.141 157.647 154.617 158.268C153.729 158.443 153.645 159.635 153.801 160.169C154.731 161.019 154.306 161.94 154.393 161.747C152.618 163.525 150.754 165.065 151.944 162.58C152.48 161.654 152.667 160.887 152.667 160.887C152.667 160.887 151.812 161.704 151.365 162.09C150.68 162.675 150.43 162.33 150.41 160.515C150.322 159.142 149.694 157.225 149.445 156.859C149.305 156.654 149.282 157.009 149.347 158.332C149.433 160.071 149.658 160.576 148.994 162.313C148.097 164.659 147.459 164.992 148.916 164.911C150.296 164.834 151.462 164.82 152.066 165.58C152.269 165.836 152.531 166.275 153.089 166.534C154.224 167.106 155.127 167.741 155.758 168.374C157.799 170.422 157.213 172.253 153.267 171.011C151.19 170.358 152.551 169.535 154.784 169.725C156.155 169.844 156.386 169.376 155.199 169.041C152.991 168.664 152.635 168.434 151.179 170.032C145.063 169.473 141.629 166.319 139.979 163.749C139.288 162.674 139.077 162.469 139.558 161.86C139.747 161.62 139.632 161.694 139.306 162.026C138.981 162.358 138.092 162.636 137.798 162.875C135.744 164.766 133.661 166.798 131.81 168.336ZM158.429 155.09C159.467 155.208 159.447 156.012 158.52 156.786C157.649 157.394 157.053 157.512 156.561 157.055C155.701 156.254 156.812 155.084 158.429 155.09ZM161.452 155.647C162.288 155.644 163.356 155.999 164.624 156.971C166.137 158.132 166.483 160.942 165.093 161.428C164.511 161.632 164.421 161.433 163.18 160.345C162.344 159.611 161.436 158.948 160.543 158.555C158.719 157.754 158.485 157.452 159.717 156.906C159.977 156.783 160.313 156.494 160.467 156.267C160.783 155.799 160.879 155.65 161.452 155.647ZM159.481 159.389C159.723 159.395 160.047 159.531 160.554 159.781C163.628 161.331 165.132 163.76 164.091 165.131C163.408 166.03 162.298 165.687 161.451 164.412C160.974 163.693 159.707 162.774 158.27 162.101C156.624 161.331 156.588 161.221 157.777 160.695C158.265 160.48 158.632 160.174 158.87 159.786C159.147 159.336 159.17 159.38 159.481 159.389ZM160.467 165.177C162.79 167.314 162.524 168.471 161.015 169.341C159.985 169.934 158.332 170.083 157.79 169.591C156.915 168.885 156.938 168.075 157.906 167.816C158.808 167.637 158.47 167.304 157.627 167.106C154.614 166.317 152.763 164.842 156.037 165.162C156.977 165.254 157.886 164.58 158.378 164.042C159.088 163.247 160.048 164.792 160.467 165.177ZM2.05652 166L69.8515 255.553L15.0433 255.454C15.0433 255.454 14.837 254.796 15.2835 249.429C15.9429 242.146 14.9302 235.83 13.0618 228.721C13.2977 228.697 10.4375 220.091 8.21315 215.887C7.80837 215.006 7.87486 214.921 9.18802 214.765C13.0677 214.19 17.2465 213.323 21.1224 211.811C22.9239 211.664 25.5694 212.312 25.4266 212.109C25.3623 212.012 23.0824 210.083 23.0824 210.083C16.7536 212.417 10.9142 213.27 5.41722 213.849C12.714 225.308 15.318 240.907 13.1301 254.919L2.62863 254.89L2.5966 185.931L2.05652 166ZM14.1734 179.263C15.1308 179.228 17.5165 180.782 17.8078 181.951C17.8675 182.19 18.4877 183.627 19.1829 184.963C19.1969 185.21 21.547 189.125 20.5143 188.784C18.4596 186.208 14.789 181.822 13.8656 179.684C13.8672 179.4 13.9054 179.273 14.1734 179.263ZM21.4972 183.18C21.6257 183.827 22.3363 185.519 22.8976 186.634C24.3608 189.54 26.6266 194.095 26.166 195.392C25.8555 196.266 26.1742 196.221 25.3451 195.141C24.9395 194.614 23.6736 192.985 23.3697 192.609C22.6282 191.691 23.1271 192.533 22.7039 191.039C21.6947 186.813 20.0641 184.593 19.0046 182.124C18.6268 180.964 21.0117 182.713 21.4972 183.18ZM22.8002 183.824C22.9973 183.952 25.684 185.695 25.9556 185.945C26.9082 189.07 30.7159 199.082 29.7303 200.871C29.3869 200.623 27.9358 199.008 27.7343 198.176C27.2952 193.389 25.6488 189.946 23.8828 186.378C23.3859 185.303 22.9954 184.228 22.8002 183.824ZM27.8542 187.34C28.7049 187.723 29.5851 188.6 30.0838 189.383C30.4172 189.914 30.588 190.54 30.9018 191.856C31.8756 195.94 33.7331 200.081 32.8977 204.439C32.3767 205.091 31.2433 203.613 31.0813 202.158C30.5444 197.331 30.0835 195.019 28.244 189.342C27.8871 188.241 27.6171 187.378 27.8542 187.34ZM32.1691 191.084C32.3508 191.092 32.7231 191.403 33.344 191.941C34.552 192.987 34.7221 193.373 34.7294 195.108C34.7686 197.659 35.6895 200.571 35.8325 203.147C35.915 204.633 36.2099 208.477 35.9608 208.705C35.6092 209.152 34.0497 207.523 34.1701 205.027C34.3688 202.025 34.2075 199.766 32.8207 194.573C32.1798 192.173 31.8554 191.148 32.1332 191.089C32.1435 191.087 32.157 191.084 32.1691 191.084ZM157.336 175.924C162.18 178.793 160.472 184.088 159.435 184.739C166.124 192.537 155.726 196.53 152.427 193.727C147.542 198.205 139.16 194.452 142.388 187.07C142.384 187.07 136.253 176.259 148.352 176.981C148.352 176.981 148.56 172.612 148.219 172.412C143.9 172.145 138.029 175.981 136.366 177.043C135.444 177.557 135.242 177.311 135.242 177.311C135.012 175.044 135.006 174.005 136.004 172.741C137.747 170.535 140.628 169.789 144.413 169.022C149.096 170.353 153.556 172.441 157.895 172.116C160.285 172.129 162.729 172.486 165.045 173.633C166.608 174.313 167.422 176.865 167.422 176.865C164.97 178.048 157.336 175.924 157.336 175.924ZM155.032 159.89C155.053 159.116 156 158.253 156.933 158.354C158.215 158.439 158.383 159.84 157.243 160.356C156.914 160.602 155.85 160.239 155.792 160.511C155.87 160.988 155.349 160.787 155.248 160.615C155.072 160.412 155.032 160.123 155.032 159.89ZM154.255 162.944C154.726 162.639 155.119 162.612 155.593 162.555C156.32 162.473 157.25 162.575 157.457 163.278C157.66 163.968 156.224 164.375 155.063 164.393C154.472 164.403 153.788 164.509 153.611 164.126C153.444 163.767 154.017 163.106 154.255 162.944ZM7.64363 113.632C8.57851 110.635 7.99473 108.957 9.55231 105.262L13.344 106.427C13.344 106.427 13.5048 110.051 12.7405 112.07C11.9751 114.087 9.46057 115.696 7.64363 113.632ZM35.8889 194.696C36.3367 194.746 37.4353 196.189 37.931 197.509C38.386 198.732 38.2358 200.285 38.5673 201.604C39.3117 206.121 39.2676 210.646 39.0701 212.014C38.9717 212.695 38.4955 212.418 37.8438 211.768C36.8961 210.823 37.0271 210.803 37.0383 208.18C37.0478 205.931 36.5072 200.375 36.2584 199.246C35.7981 197.158 35.6065 195.166 35.7145 194.824C35.7448 194.728 35.806 194.687 35.8889 194.696ZM80.2372 195.237C85.1203 195.954 89.0242 199.03 91.2611 204.094C93.4204 209.243 93.9521 216.268 94.2872 222.727C94.2639 224.272 93.5737 223.882 91.7651 222.921C89.7889 222.031 89.3686 222.289 86.4842 222.898C84.6844 223.278 84.8471 222.149 87.808 220.275C88.8162 219.669 89.9893 218.858 89.6038 218.737C89.4083 218.675 88.5063 218.899 87.8542 219.385C84.949 221.552 84.1612 222.079 84.9989 219.972C85.2106 219.44 85.8837 217.963 86.1649 217.256C87.2172 214.609 86.0046 213.477 82.4309 211.801C81.5365 211.382 80.9484 210.683 81.8408 212.147C82.5707 213.344 81.0618 214.31 79.1933 212.909C77.8946 211.935 75.2851 212.584 74.4426 213.799C73.6267 214.976 74.0633 217.172 75.6716 217.883C77.0889 218.446 77.6174 218.041 76.2467 217.164C74.4838 216.036 74.8267 214.133 76.8066 214.14C77.2955 214.142 78.1595 214.645 80.3426 215.74C81.9048 216.52 83.017 216.19 83.0188 215.026C83.0204 214.246 83.5031 214.31 84.5306 214.779C85.9144 215.41 85.7627 215.981 85.0318 217.745C84.5387 218.977 84.2933 220.378 83.8415 221.665C82.6759 226 82.5208 230.909 83.8097 232.439C87.2378 236.508 90.8787 236.077 93.9958 233.388L93.8624 237.844C90.684 240.198 86.9705 241.802 81.2377 250.528C79.2386 248.211 70.6601 238.739 56.9047 236.599L53.8094 232.691C53.862 232.449 51.4965 218.158 49.9495 213.292C49.9495 213.292 51.6512 210.908 53.1971 209.151C59.373 202.13 69.8124 194.095 80.2372 195.237ZM62.2978 199.293C61.7686 199.448 61.5969 198.475 61.8847 198.289C62.5208 198.24 62.7456 198.259 63.3833 198.302C63.8645 198.329 63.8531 198.838 62.2978 199.293ZM39.0855 198.564C39.7722 199.016 40.6104 200.231 41.4303 201.339C41.8839 201.951 41.6266 202.968 41.6971 203.971C41.797 205.393 41.9681 207.738 42.0768 209.178C42.2887 211.988 42.0034 214.338 41.5585 215.186C41.1038 216.201 40.1814 215.5 39.9526 214.111C39.8976 213.778 40.1985 210.332 40.1989 208.44C40.1989 205.185 39.2974 201.169 39.0855 198.564ZM59.9064 198.544C60.1491 198.532 60.3337 198.54 60.4944 198.729C61.2349 199.605 61.5356 200.134 60.8608 200.614C59.9666 201.303 59.1526 201.129 58.6563 199.821C58.3372 198.889 59.0907 198.595 59.9064 198.544ZM57.1487 199.316C57.947 199.809 58.7394 201.109 58.8222 202.047C58.7714 202.305 58.5259 202.523 57.9899 202.922C57.4586 203.372 57.2908 203.343 56.6976 202.48C55.7675 201.139 55.332 200.256 55.5144 199.793C55.9792 199.347 56.584 199.169 57.1487 199.316ZM89.6637 199.486C90.9967 199.59 92.3131 200.152 93.6102 200.435L91.6313 202.2C91.0427 201.295 90.3727 200.39 89.6637 199.486ZM54.1907 200.406C54.9216 201.284 56.1962 203.58 56.1283 204.434C55.9418 204.724 55.6528 204.983 55.3465 205.146C55.1032 205.207 54.8843 204.813 54.0595 203.467C52.6254 201.127 52.2056 200.467 52.95 200.186C53.3412 200.146 53.9367 200.163 54.1907 200.406ZM51.2994 200.95C52.0971 201.605 54.0105 205.092 54.0656 206.074C54.0439 206.35 53.9546 206.589 53.7772 206.775C52.5741 207.968 52.8788 207.776 51.0875 204.374C49.575 201.576 49.1759 201.3 50.1759 200.985C50.3972 200.915 50.9509 200.823 51.2994 200.95ZM48.4236 201.86C48.9486 201.853 49.0963 202.664 50.1198 204.509C51.8333 207.997 52.4764 208.482 52.0883 208.855C51.6103 209.411 51.3307 209.802 50.8766 209.126C49.8433 207.576 48.818 205.598 47.8559 203.862C47.0857 202.565 47.0168 202.408 47.5117 202.091C47.7954 201.909 48.2182 201.863 48.4236 201.86ZM79.0086 202.851C78.3649 203.018 75.7757 203.775 77.3616 203.912C77.6821 203.939 78.4943 203.752 79.065 203.716C80.6681 203.614 84.0023 203.892 83.8829 203.609C83.5787 202.546 79.8821 202.645 79.0086 202.851ZM46.1822 203.178C46.1822 203.237 46.5978 203.916 47.0113 204.583C49.4469 208.924 50.8009 210.505 50.3681 211.191C50.0121 211.605 49.462 212.127 49.1366 212.003C48.6128 211.804 47.9147 210.383 46.1719 207.166C44.3708 203.842 44.1832 203.593 45.1092 203.162C45.4883 203 45.9483 202.879 46.1822 203.178ZM43.7494 204.709C44.8688 206.388 44.7217 206.167 44.7089 211.631C44.7008 215.031 44.2273 217.2 43.6109 218.036C43.288 218.474 42.7184 218.217 42.4359 217.359C42.3067 216.967 42.6748 216.384 42.7438 215.764C43.1794 211.672 42.8751 207.584 42.8853 203.712C43.2232 203.68 43.5686 204.436 43.7494 204.709ZM72.6207 206.049C73.142 206.736 73.0146 207.289 73.0106 208.213C73.0051 209.519 73.1074 209.615 74.0847 208.956C74.951 208.371 75.0206 208.333 76.5663 209.301C77.4832 209.875 78.6399 209.94 79.3883 209.306C79.9154 208.859 80.0979 209.06 80.8044 209.23C81.5731 209.624 81.7916 209.685 83.4416 208.946C84.5556 208.491 84.6006 208.426 85.2631 208.748C86.4286 209.695 86.6007 209.352 86.4432 208.113C86.4463 207.681 86.5821 206.872 86.7203 206.347C87.3001 204.143 86.361 204.119 85.1194 205.524C84.6386 206.068 83.5668 206.303 82.554 205.864C81.1034 205.236 78.8392 205.49 77.1654 205.75C75.185 206.057 74.2679 205.553 73.4724 204.927C73.0216 204.572 71.9914 204.255 71.8773 204.527C71.7631 204.799 71.9966 205.227 72.6207 206.049ZM46.0634 209.141C46.3114 209.091 46.6918 209.769 47.2486 211.205C47.9673 213.058 46.7113 219.5 45.9557 220.555C45.5559 221.108 45.2993 221.448 44.478 220.422C44.1513 219.971 44.4056 219.828 44.7294 218.562C45.2222 216.634 45.6372 213.517 45.6632 212.066C45.6701 210.184 45.7823 209.196 46.0634 209.141ZM48.5878 215.39C48.7662 215.401 48.9748 215.773 49.2599 216.507C49.6638 217.516 49.4676 219.46 48.9367 220.948C48.6293 221.814 48.3369 222.738 47.813 223.514C47.6346 223.949 46.7207 223.796 46.4688 222.832C46.3093 222.222 46.8594 221.464 47.1255 220.493C47.3928 219.518 47.6978 218.277 47.849 217.653C48.1279 216.128 48.327 215.373 48.5878 215.39ZM68.1261 218.244C68.1039 218.242 68.0837 218.244 68.0696 218.249C68.0737 218.243 68.0593 218.259 68.0542 218.263C68.0124 218.302 69.959 220.259 70.4811 220.806C70.7541 221.019 73.099 223.649 71.6407 223.045C67.9613 221.638 63.6557 222.328 61.0044 224.688C60.6723 224.983 60.398 224.681 59.3933 224.612C57.334 224.47 56.5862 225.224 57.8387 226.16C58.0304 226.303 58.4307 226.368 58.6114 226.598C58.7772 226.809 58.7278 227.187 58.814 227.293C62.7961 232.17 70.1712 233.119 74.8013 229.933C75.3837 229.532 75.7105 229.391 76.2533 229.54C77.3303 229.836 77.4254 229.004 76.4739 227.841C76.059 227.334 75.5481 226.749 75.8458 226.58C76.4339 226.114 76.7246 225.351 75.7022 225.065C74.9974 224.868 74.2071 224.145 73.811 223.135C73.3484 221.955 68.8132 218.33 68.1261 218.244ZM50.0501 220.38C50.9153 220.361 50.9554 225.078 49.9988 226.51C49.5073 227.053 48.3832 226.044 48.5519 225.01C48.6801 224.223 49.5993 220.677 49.8089 220.493C49.8939 220.419 49.9768 220.381 50.0501 220.38ZM67.6951 223.324C68.4215 223.318 69.4159 223.618 70.2064 224.277C70.6338 224.633 71.3821 226.176 71.0712 226.78C70.9842 227.088 70.0866 227.07 70.0053 226.844C69.512 223.731 66.7762 223.279 65.9077 226.186C65.9077 226.186 65.3448 226.627 65.2728 225.776C65.4676 224.126 66.3082 223.337 67.6951 223.324ZM89.7218 223.594C90.5912 223.579 91.4202 223.982 91.846 224.839C92.1428 225.437 92.1753 225.939 92.0575 226.202C91.9695 226.397 91.6765 226.312 91.6765 226.312C90.288 222.799 88.3989 224.424 87.7145 226.366C87.7145 226.366 87 226.569 86.9111 226.36C86.8218 226.15 86.8774 225.755 87.1615 225.209C87.704 224.164 88.7365 223.611 89.7218 223.594ZM71.1481 223.812C71.6398 223.787 72.4814 224.156 73.1108 224.742C73.7501 225.336 73.8129 225.691 73.2963 226.132C72.986 226.397 71.883 226.659 71.6693 226.198L70.7403 224.196C70.6519 224.006 70.9247 223.823 71.1481 223.812ZM64.4575 223.907C65.008 223.908 65.1243 224.023 64.2599 225.879C64.0751 226.275 61.8575 225.699 62.2801 224.934C62.9143 224.325 63.907 223.906 64.4575 223.907ZM86.669 224.053C86.8903 224.044 87.0704 224.073 87.1461 224.167C86.9479 224.233 86.1097 226.189 86.1097 226.189C85.3184 226.1 84.3722 226.204 84.201 225.606C84.0394 225.042 84.3587 224.698 85.4735 224.304C85.8109 224.191 86.3 224.069 86.669 224.053ZM93.1585 224.555C93.9983 224.839 94.1946 225.495 94.0872 225.833C94.0058 226.09 93.609 226.092 93.3278 225.895C93.0604 225.608 92.6664 225.12 92.6967 224.792C92.7842 224.465 92.8909 224.462 93.1585 224.555ZM51.3277 226.362C51.5857 226.81 52.0517 229.35 51.5072 229.285C50.9789 229.159 50.7328 228.393 50.6401 227.703C50.6211 227.561 51.0916 226.379 51.3277 226.362ZM60.5683 227.718C60.8128 227.685 61.4287 227.885 62.3436 228.362C65.3544 229.704 68.4409 229.893 71.7194 229.218C73.6102 228.765 74.0925 228.5 74.3596 228.799C74.8134 229.308 74.0973 229.817 71.4272 230.645C68.4993 231.553 65.4615 231.399 61.4667 228.799C60.3932 228.1 60.254 227.759 60.5683 227.718ZM93.9796 228.418C94.4752 229.271 92.7877 230.081 91.9329 230.309C90.1165 230.793 87.3646 230.567 85.8103 229.705C85.6799 229.633 85.5548 229.556 85.4358 229.474C84.1719 228.606 84.6951 227.986 86.1028 228.655C87.6166 229.375 90.6974 229.508 92.3313 228.781C93.1502 228.416 93.7128 227.959 93.9796 228.418ZM56.5919 230.009C56.424 230.043 56.708 230.435 57.2948 231.022C61.4136 235.288 71.2401 237.602 76.7635 233.205C78.4934 231.708 78.2298 231.033 75.5013 232.23C72.4842 233.146 68.1965 233.266 64.4883 232.76C62.6648 232.532 59.6947 231.887 58.1876 230.871C57.2383 230.23 56.74 229.979 56.5919 230.009ZM84.9912 230.137C85.2426 230.156 85.6834 230.242 86.6395 230.7C88.0351 231.37 91.2041 231.141 92.2417 230.787C94.4282 230.043 94.8769 230.989 92.8054 232.045C90.4975 233.334 87.3119 232.83 85.4529 231.169C84.8773 230.693 84.5661 230.1 84.8187 230.053C84.8433 230.048 84.9553 230.134 84.9912 230.137ZM57.6861 237.681C65.797 238.365 78.0374 245.792 82.8103 254.712H80.0634C75.2684 247.692 67.8905 242.041 59.1351 239.933C58.7888 239.687 57.5004 237.993 57.6861 237.681ZM93.688 239.316L93.3134 241.782C91.9542 242.81 86.9719 246.619 83.2767 252.582C82.507 252.549 82.1338 251.693 82.2622 251.11C85.2206 245.727 88.758 242.755 93.688 239.316ZM60.9075 241.246C62.7682 241.128 74.8753 247.127 78.9521 254.712H76.7202C72.1341 249.202 67.0372 245.607 62.5129 244.164C61.4129 243.094 60.2084 241.293 60.9075 241.246ZM93.3134 242.962L93.2929 246.295C90.3962 248.897 88.2791 251.514 86.6215 254.712H84.3722C84.3722 254.712 83.8725 253.798 84.0466 253.229C86.603 248.984 89.0512 245.893 93.3134 242.962ZM74.9214 254.712H72.745C70.9078 252.316 68.1788 250.01 65.6735 248.638C64.6469 247.464 63.4966 246.016 63.9595 245.781C63.987 244.914 73.6209 250.92 74.9214 254.712ZM93.3605 247.933L93.3134 249.86C91.8402 251.598 90.6056 253.056 89.4262 254.712H87.5713C89.2628 251.343 93.5118 247.022 93.3605 247.933ZM68.379 251.664C69.0504 251.827 71.503 253.989 71.4247 254.712L70.3207 254.683C69.7013 253.961 68.9668 253.21 68.5313 252.472C68.2585 252.005 68.0836 251.572 68.379 251.664ZM92.9337 252.26C92.9413 252.257 92.9449 252.258 92.9491 252.26C92.9526 252.261 92.9279 254.712 92.9279 254.712H91.0659C90.8653 254.679 91.9675 252.86 92.9337 252.26Z" fill="#131F67"/>
<path id="path3090" d="M131.672 1.72488C122.546 1.72363 113.318 1.77177 103.052 1.87164L172.366 92.6147L172.422 72.4563L150.179 45.9709C155.241 44.5304 161.422 43.5352 166.289 43.1351C160.038 30.3485 156.911 18.3398 159.665 1.88111C149.819 1.77673 140.797 1.72612 131.672 1.72488ZM158.511 2.30245C157.968 8.11281 157.256 14.5925 158.398 21.7885C154.791 20.5732 153.945 22.6493 153.347 22.8677C152.668 21.4714 150.154 19.0558 147.307 21.895C145.828 23.371 146.547 26.1474 149.982 27.3996C146.048 27.6782 144.004 24.576 143.313 21.3766C141.187 20.1209 138.952 18.8796 138.739 14.4766L139.83 14.6446C139.467 17.7166 142.927 19.2811 144.951 17.8149C146.26 16.8896 146.4 15.4615 145.884 13.2432C146.935 13.0446 149.398 12.0933 148.747 9.17421C147.848 5.14417 143.362 5.61721 141.312 8.26757C139.609 6.32176 136.485 5.96075 135.232 8.98244C134.535 10.6657 136.125 12.5558 137.931 12.9213C133.919 13.6311 131.896 8.52674 131.672 5.07197L130.009 2.34979C140.856 2.29163 145.6 2.30329 158.511 2.30245ZM104.18 2.40187L112.231 2.4066L170.984 72.5583L171.107 90.0228L104.18 2.40187ZM124.535 2.4066L125.817 2.42081C126.823 8.59532 130.671 13.0657 137.254 15.2411C137.596 20.2856 140.232 27.1381 150.235 29.4532C149.94 35.1492 153.906 40.5923 158.152 43.2014C158.152 43.2012 157.006 43.4632 156.11 43.5422C150.401 39.366 148.995 33.217 148.429 30.6794C148.236 30.313 147.692 30.2241 147.259 30.1349C142.374 28.5427 138.262 24.8402 136.582 20.3209L135.525 15.8849C135.527 15.3151 135.402 15.5828 133.95 15.0896C130.181 13.8097 126.697 10.048 125.135 5.55486C124.313 3.19253 124.535 2.4066 124.535 2.4066ZM119.358 2.42081L123.868 2.42554C123.868 2.42554 123.894 3.15958 123.96 3.6375C124.567 8.06099 128.871 13.6125 133.262 15.4541C133.883 15.7146 134.748 16.0805 134.95 16.2542C136.177 23.5056 139.74 27.873 147.259 30.864C147.379 30.9785 147.718 31.0511 147.818 31.1954C148.843 35.6796 151.084 40.878 155.345 43.7364L153.503 43.9115L119.358 2.42081ZM141.389 10.0315C142.408 10.0315 143.236 10.7949 143.236 11.7358C143.236 12.6767 142.408 13.4354 141.389 13.4354C140.369 13.4354 139.541 12.6767 139.541 11.7358C139.541 10.7949 140.369 10.0315 141.389 10.0315ZM79.1419 19.3314C79.2487 19.5776 53.9163 39.349 56.3815 76.5492L55.6478 77.3067L55.8479 77.5718C55.0113 78.4479 54.2057 79.1509 53.2927 80.0052C58.5458 83.0943 67.7022 86.466 67.7309 86.3775L65.9813 90.1175L76.9254 93.3794L75.458 96.9348C75.458 96.9348 67.844 94.6056 64.6883 93.635C63.1315 96.8199 62.1891 100.184 61.0557 103.496C60.949 103.763 60.7002 103.635 60.3117 103.118C54.6267 94.1719 42.9504 87.7168 43.344 88.3564L1.93807 124.606L1.65587 147.009L30.3117 174.259C30.3117 174.259 22.0191 178.024 18.0951 180.494C21.1465 182.791 24.6002 184.561 27.6334 186.733C33.9081 190.817 38.143 196.819 42.2101 200.884C61.3899 192.11 80.7053 192.598 97.3872 197.925C95.4437 199.812 93.2747 201.447 91.2713 203.493C96.1202 215.232 94.5683 238.545 94.3241 239.179C104.419 229.664 119.437 209.26 117.433 180.532L121.682 176.602C121.604 176.401 111.055 171.19 106.659 170.056L107.875 166.485L97.3462 163.451L98.5212 160.615L109.009 163.417C110.994 158.919 113.098 152.619 113.098 152.619C117.286 158.4 121.902 163.658 131.405 169.009L172.575 132.664L172.308 109.296L144.278 83.4328L155.946 77.8227C154.825 76.9885 153.199 76.1968 152.046 75.3609C151.964 75.3013 152.278 75.1214 152.195 75.0627C151.902 74.8549 151.688 74.6862 151.389 74.4946C151.322 74.4516 151.112 74.7316 151.046 74.6887C147.086 72.1269 143.126 69.6061 140.009 66.5411C139.931 66.4636 140.047 66.1449 139.968 66.0677C138.348 64.4711 136.736 62.9854 135.089 61.4139C134.325 60.7024 133.062 59.0137 133.062 59.0137L132.99 58.455L131.22 56.4004C125.52 59.5026 101.217 67.2893 77.7002 58.6681L82.1691 54.5446C80.9795 51.8961 80.208 48.9406 79.9013 46.5201C78.6715 36.8126 79.1419 19.3314 79.1419 19.3314ZM153.272 24.8279C154.348 24.8279 155.222 25.6341 155.222 26.6269C155.222 27.6197 154.348 28.4259 153.272 28.4259C152.196 28.4259 151.328 27.6197 151.328 26.6269C151.328 25.6341 152.196 24.8279 153.272 24.8279ZM159.371 26.9677C160.363 31.4389 162.545 37.9313 164.719 42.3077L162.129 42.5727C160.02 41.3085 157.792 39.464 157.558 36.8476C151.855 36.888 150.188 28.6353 152.271 29.6259C152.005 32.4451 154.197 33.5562 156.348 33.2796C158.199 33.0414 159.8 30.6822 157.597 28.0781C158.576 27.7265 159.055 27.4609 159.371 26.9677ZM78.557 40.1904C78.9347 45.9083 80.1512 50.0784 81.2866 54.3978L70.0193 64.2071C70.8981 55.2536 73.7482 47.252 78.557 40.1904ZM132.595 59.0232L134.027 60.9168C117.744 69.7394 89.9522 70.363 73.0208 62.9242L75.2682 60.95C90.1564 67.153 114.396 67.6139 132.595 59.0232ZM26.8432 61.9678C25.2026 61.9492 23.3089 62.5265 21.3019 63.9373C13.8321 60.7973 8.93966 68.1373 13.5594 72.9986C12.8756 76.4976 12.3579 77.1494 15.2116 80.6917C12.1801 81.0477 8.35362 80.316 5.09867 79.8537C5.64868 85.0354 13.6903 86.2416 17.0382 85.6721C20.6526 84.9493 24.0625 86.5996 24.2111 86.6379C26.3362 87.1853 27.6566 88.1293 29.7524 88.5836C33.2087 89.3423 38.2701 85.6048 39.0033 82.0551C39.0726 81.5783 39.2323 81.1464 38.9469 81.0752C36.5841 81.6327 33.9883 82.4187 31.6867 82.8836C29.4327 83.394 27.7338 83.8974 26.0171 85.1371L25.8735 80.8574C37.5753 81.3711 32.4827 71.1055 31.8201 70.6646C33.9944 66.6142 31.379 62.0193 26.8432 61.9678ZM133.206 62.2898L135.751 67.9377L128.988 70.0539L127.259 64.5243L133.206 62.2898ZM26.3558 62.4602C30.3333 62.4957 33.8906 66.3607 30.0705 70.6883C37.4755 76.7141 27.9856 83.1714 23.4671 78.6891C17.4513 83.772 11.0606 78.463 14.4214 72.9276C8.00596 67.6305 15.9178 60.5259 21.3224 65.1019C22.6498 63.2193 24.5478 62.444 26.3558 62.4602ZM72.5334 64.5291C73.4855 64.5291 74.2574 65.2412 74.2574 66.1197C74.2574 66.9983 73.4855 67.7104 72.5334 67.7104C71.5811 67.7104 70.8094 66.9983 70.8094 66.1197C70.8094 65.2412 71.5811 64.5291 72.5334 64.5291ZM28.4748 64.6474C28.3764 64.6485 28.2587 64.6895 28.1311 64.7942C27.9381 64.8107 27.5194 65.4742 26.4687 66.5979C24.6425 68.5509 24.4454 68.5694 24.4454 68.5694C22.4997 67.982 21.1988 68.2992 19.9165 69.0475C19.9165 69.0475 18.455 68.792 16.4378 67.237C15.5179 66.5274 15.0228 66.3735 14.8627 66.7541C14.6921 67.1596 15.1093 67.559 16.874 68.6668C19.316 70.1998 19.1646 70.0826 19.1646 70.0826C19.0134 71.4299 19.2503 72.525 19.8026 73.5447C19.8026 73.5447 19.3723 74.5016 17.6385 76.5966C17.1482 77.1886 16.7467 77.8325 16.7457 78.0263C16.7423 78.8414 17.513 78.2935 19.2855 76.2273C19.98 75.4174 20.9332 74.258 20.9332 74.258C23.0149 74.9232 23.7443 74.5186 25.0494 74.0906C25.0494 74.0906 25.4969 74.3976 26.6321 75.2326C28.7092 76.7604 29.1586 76.923 29.4138 76.7291C29.7574 76.4681 29.7119 76.3827 28.9263 75.858C26.5835 74.293 25.7776 73.3887 25.7776 73.3887C26.2541 71.6766 25.7329 70.2602 25.2222 69.367C25.2222 69.367 25.2593 69.1489 26.5815 67.7862C27.5527 66.7853 28.8818 65.2061 28.7981 64.9788C28.8204 64.8374 28.6911 64.6451 28.4748 64.6474ZM76.4226 64.993L82.5129 66.7399L81.1686 72.582L74.6781 70.6504L76.4226 64.993ZM120.497 66.4275L122.195 72.1275L115.858 73.6803L114.822 67.63L120.497 66.4275ZM124.945 66.5222C125.897 66.5222 126.669 67.2343 126.669 68.1129C126.669 68.9914 125.897 69.7036 124.945 69.7036C123.993 69.7036 123.221 68.9914 123.221 68.1129C123.221 67.2343 123.993 66.5222 124.945 66.5222ZM139.347 66.7257L144.673 71.1001L138.762 73.8555L135.915 68.1555L139.347 66.7257ZM89.1266 67.9898L95.3144 68.662L95.063 74.7976L87.9619 73.9217L89.1266 67.9898ZM67.6591 68.056L74.5447 70.8445L72.0614 77.2452L65.0116 74.452L67.6591 68.056ZM85.4067 68.5531C87.9443 68.9197 87.2616 71.6825 85.4067 71.7345C84.4546 71.7345 83.6827 71.0224 83.6827 70.1438C83.6827 69.2653 84.4546 68.5531 85.4067 68.5531ZM107.669 68.5579L108.516 74.6981L102.092 75.0579L101.954 68.8182L107.669 68.5579ZM112.087 69.2585C113.039 69.2585 113.811 69.9707 113.811 70.8492C113.811 71.7277 113.039 72.4399 112.087 72.4399C111.135 72.4399 110.363 71.7277 110.363 70.8492C110.363 69.9707 111.135 69.2585 112.087 69.2585ZM22.6572 69.8345C23.6395 69.8345 24.4376 70.5663 24.4376 71.4725C24.4376 72.3788 23.6395 73.1153 22.6572 73.1153C21.6752 73.1153 20.882 72.3788 20.882 71.4725C20.882 70.5663 21.6752 69.8345 22.6572 69.8345ZM98.7264 69.7746C99.6785 69.7746 100.45 70.4867 100.45 71.3653C100.45 72.2438 99.6785 72.956 98.7264 72.956C97.774 72.956 97.0024 72.2438 97.0024 71.3653C97.0024 70.4867 97.774 69.7746 98.7264 69.7746ZM128.983 70.1675L131.487 76.4782L124.468 78.566L122.482 72.0849L128.983 70.1675ZM133.909 70.3379C134.861 70.3379 135.633 71.0501 135.633 71.9286C135.633 72.8071 134.861 73.5193 133.909 73.5193C132.956 73.5193 132.185 72.8071 132.185 71.9286C132.185 71.0501 132.956 70.3379 133.909 70.3379ZM146.043 72.1275L150.579 75.0864L148.331 76.2415C147.742 74.9408 146.703 73.3985 146.043 72.1275ZM81.2097 72.7003L87.9054 74.0401L86.8844 80.5118L79.5781 79.1673L81.2097 72.7003ZM61.2969 73.0554L64.8525 74.5987L62.5077 79.991L56.7561 77.1647L61.2969 73.0554ZM77.1922 73.4057C78.1445 73.4057 78.9162 74.1179 78.9162 74.9964C78.9162 75.8749 78.1445 76.5871 77.1922 76.5871C76.2401 76.5871 75.4683 75.8749 75.4683 74.9964C75.4683 74.1179 76.2401 73.4057 77.1922 73.4057ZM115.863 73.7608L117.059 80.2325L109.506 81.2124L109.039 74.6129L115.863 73.7608ZM144.14 73.8839C145.092 73.8839 145.863 74.596 145.863 75.4746C145.863 76.3531 145.092 77.0653 144.14 77.0653C143.187 77.0653 142.416 76.3531 142.416 75.4746C142.416 74.596 143.187 73.8839 144.14 73.8839ZM138.783 73.9312L141.282 79.6359L133.893 82.4859L131.707 76.7765L138.783 73.9312ZM119.942 74.3431C120.895 74.3431 121.666 75.0553 121.666 75.9338C121.666 76.8123 120.895 77.5245 119.942 77.5245C118.99 77.5245 118.218 76.8123 118.218 75.9338C118.218 75.0553 118.99 74.3431 119.942 74.3431ZM94.9911 74.9917L102.061 75.11L101.979 81.6527L94.2369 81.4539L94.9911 74.9917ZM151.538 75.4462L154.319 77.2262C125.699 94.2074 85.4942 96.3125 54.1188 79.5981C54.1188 79.5981 55.4009 78.4191 56.1301 77.728C84.4143 93.3465 125.707 91.1548 151.538 75.4462ZM91.1584 76.1847C92.1108 76.1847 92.8824 76.8969 92.8824 77.7754C92.8824 78.6539 92.1108 79.3661 91.1584 79.3661C90.2063 79.3661 89.4344 78.6539 89.4344 77.7754C89.4344 76.8969 90.2063 76.1847 91.1584 76.1847ZM105.674 76.5445C106.626 76.5445 107.398 77.2567 107.398 78.1352C107.398 79.0137 106.626 79.7259 105.674 79.7259C104.721 79.7259 103.95 79.0137 103.95 78.1352C103.95 77.2567 104.721 76.5445 105.674 76.5445ZM71.9998 77.4203L79.3831 79.3898L78.126 84.7678L70.0296 82.6185L71.9998 77.4203ZM67.1152 77.4582C68.0676 77.4582 68.8392 78.1704 68.8392 79.0489C68.8392 79.9274 68.0676 80.6396 67.1152 80.6396C66.1631 80.6396 65.3913 79.9274 65.3913 79.0489C65.3913 78.1704 66.1631 77.4582 67.1152 77.4582ZM124.463 78.6039L126.228 84.64L118.065 86.2497L117.079 80.3129L124.463 78.6039ZM129.152 79.4797C130.105 79.4797 130.876 80.1919 130.876 81.0704C130.876 81.9489 130.105 82.6611 129.152 82.6611C128.2 82.6611 127.428 81.9489 127.428 81.0704C127.428 80.1919 128.2 79.4797 129.152 79.4797ZM22.5076 80.4171L22.4922 84.6495C21.1384 83.6198 19.6091 82.5238 18.0438 81.416C19.6404 81.4942 21.1246 81.0877 22.5076 80.4171ZM5.69385 80.5212C6.06639 80.5179 6.93837 80.7989 7.97708 80.7958C11.3013 80.7861 17.5105 81.7429 19.347 83.1345C19.959 83.5967 20.8751 84.0071 21.3737 84.7536C21.3721 85.1096 20.8265 85.1188 20.0243 84.659C18.4854 83.7769 15.9245 82.9906 12.4974 82.5522C11.8781 82.473 11.8009 82.4962 11.7996 82.7653C11.7979 83.0979 12.3703 83.292 14.1751 83.5653C16.5109 83.9191 17.008 84.1305 17.5256 84.2613C18.9127 84.6117 18.0264 85.0799 16.5984 85.2058C10.7707 85.7095 6.4077 83.3959 5.52966 80.7532C5.45901 80.5798 5.52457 80.5228 5.69385 80.5212ZM86.8793 80.6159L94.2112 81.4918L93.8777 87.1539L85.8531 86.3065L86.8793 80.6159ZM24.5292 81.1083C25.8101 82.0361 24.929 84.8489 24.2316 85.6768C23.7801 86.1418 22.7226 85.8952 22.7283 85.2413C22.8879 84.6539 22.662 81.8564 22.8001 80.9899C23.3106 80.7216 24.0626 80.7974 24.5292 81.1083ZM109.496 81.3592L109.876 87.1965L101.877 87.5326L101.938 81.7995L109.496 81.3592ZM82.5078 81.7521C83.4599 81.7521 84.2317 82.4643 84.2317 83.3428C84.2317 84.2214 83.4599 84.9335 82.5078 84.9335C81.5555 84.9335 80.7838 84.2214 80.7838 83.3428C80.7838 82.4643 81.5555 81.7521 82.5078 81.7521ZM37.9361 81.8326C38.2315 86.1161 31.1012 89.0228 28.4338 87.7078C27.2526 87.1255 27.744 86.7667 30.0859 86.3301C33.1164 85.5899 35.1121 84.8688 35.1141 84.3465C35.1158 84.026 34.6562 84.0647 33.421 84.4885C31.5189 85.078 29.5417 85.3314 27.7257 86.084C26.3682 86.6527 25.84 86.8519 25.5348 86.51C24.8953 85.7933 27.9118 83.9846 31.0402 83.5038C33.3875 83.1431 35.7541 81.9886 37.9361 81.8326ZM113.909 82.3676C114.861 82.3676 115.633 83.0798 115.633 83.9583C115.633 84.8368 114.861 85.549 113.909 85.549C112.956 85.549 112.185 84.8368 112.185 83.9583C112.185 83.0798 112.956 82.3676 113.909 82.3676ZM97.8747 83.5322C98.8269 83.5322 99.5986 84.2444 99.5986 85.1229C99.5986 86.0014 98.8269 86.7136 97.8747 86.7136C96.9224 86.7136 96.1507 86.0014 96.1507 85.1229C96.1507 84.2444 96.9224 83.5322 97.8747 83.5322ZM136.289 86.2355C147.828 96.3726 160.474 108.043 170.907 117.642C170.892 122.665 170.861 132.711 170.861 132.711L131.025 167.645C123.811 163.582 117.705 158.502 112.082 149.48C112.716 148.975 113.274 148.654 113.755 148.102L111.677 149.248C104.328 138.404 101.211 116.798 113.693 99.4771L101.081 99.9032L103.139 95.9406L116.869 95.2494L122.421 89.753C122.421 89.753 124.18 89.4527 125.638 89.1423C127.084 88.8343 130.036 88.0551 132.2 87.4095C134.364 86.764 136.206 86.2352 136.289 86.2355ZM43.1593 89.0429C43.1593 89.0429 55.016 94.9886 61.5996 106.896C40.3182 123.787 32.2964 143.456 30.4861 163.929C18.9032 153.932 13.05 148.403 2.58456 138.695L2.96424 124.209L43.1593 89.0429ZM87.9208 90.9318C84.8532 96.9833 82.2139 103.613 79.85 110.716L76.5509 109.817C76.5509 109.817 78.6848 108.993 79.6345 108.472L77.9208 105.925L81.1686 104.694L79.2497 102.535L82.5437 100.774L80.8967 98.8664L83.9136 97.4745L82.0409 95.4861L85.2066 93.8576L83.5545 91.9544L87.9208 90.9318ZM88.9316 90.946C88.9316 90.946 89.3565 91.0206 89.8552 91.1117C89.9749 91.0694 89.2606 92.6974 89.3369 92.7545C90.4892 92.9733 90.5564 92.9142 90.9019 93.0101L91.7792 91.3342L93.221 91.5851C90.3127 97.6415 87.2024 104.268 85.417 111.44L83.7187 111.114C83.7187 111.114 84.2149 109.601 84.2164 109.4C84.0169 109.361 83.0607 108.99 82.7643 108.879C82.6621 109.116 82.0563 110.868 82.0563 110.868L80.712 110.834C82.9123 103.003 86.748 94.3184 88.9316 90.946ZM94.4575 91.178L97.4693 93.4788L94.0522 94.705L95.8223 96.878L92.2 98.0852L94.2779 100.343L90.6915 101.565L92.831 104.297L89.1009 105.456L91.456 107.857L88.0901 109.31L90.1066 111.152C90.1066 111.152 88.0064 111.791 87.8849 111.819C87.5473 111.899 86.1353 111.578 86.1353 111.578C88.2629 104.588 90.8919 97.5039 94.4575 91.178ZM21.1839 92.3426C20.3522 92.8406 20.8266 93.9252 19.7832 94.8517C19.6166 95.0178 19.6023 95.3992 19.5369 95.7323C19.4874 95.985 18.6629 99.0093 18.6629 99.0093C18.6629 99.0093 18.8712 98.7783 19.2012 97.8137C19.4828 96.9904 19.7274 95.4281 19.88 95.1673C20.649 94.9505 20.7658 92.636 21.5456 92.9529C21.9961 93.136 21.9101 93.5143 21.6559 94.402C21.1008 96.1759 20.8828 96.9234 21.8355 95.7134C23.2586 94.1328 23.3975 92.7062 21.7945 92.4041C21.6255 92.3742 21.282 92.3457 21.1839 92.3426ZM42.7027 93.0007L5.47836 125.25L5.36548 137.285L18.3209 149.399L27.5153 157.623C30.853 139.206 38.5102 121.636 57.3615 106.432C54.473 102.146 49.5246 96.7476 42.7027 93.0007ZM143.042 93.3321C121.17 102.817 116.14 122.269 122.913 139.879C133.336 127.51 141.517 115.889 143.042 93.3321ZM65.1963 94.3168L75.1296 97.2662L71.3892 109.035L62.4462 106.531L61.5329 104.448L65.1963 94.3168ZM141.944 94.6245C140.993 110.363 134.561 125.734 123.37 137.796C117.711 124.915 121.115 104.321 141.944 94.6245ZM88.4442 94.7097L87.8182 96.1726L89.1933 96.5324L89.7782 95.0458L88.4442 94.7097ZM87.0691 98.1657L86.5047 99.6522L87.9157 100.093L88.4442 98.5823L87.0691 98.1657ZM145.663 98.4355C142.602 120.267 129.819 140.133 116.315 150.256C120.618 156.697 125.678 160.84 130.82 164.298L168.86 130.676L168.711 119.46L145.663 98.4355ZM45.1398 104.23C44.9062 105.028 44.8234 105.434 44.8234 105.434C44.8234 105.434 45.2614 105.061 46.4179 104.477C53.8922 101.037 51.4805 106.268 47.9588 108.203C47.1718 108.589 46.3627 109.049 46.3627 109.049C46.3627 109.049 47.1107 109.205 47.9211 109.344C52.4572 110.213 51.4916 112.661 46.7607 112.28C46.0612 112.224 45.2393 112.102 45.239 112.138C45.239 112.174 45.5225 113.094 45.85 113.855C47.4449 117.561 44.4698 117.849 42.5128 115.493C42.2404 115.165 41.6229 114.259 41.6229 114.259C41.6229 114.259 41.43 114.944 41.3122 115.607C39.6216 121.416 35.4506 121.268 37.0074 115.375C37.2023 114.765 37.4395 113.675 37.4395 113.675C37.4395 113.675 36.5017 114.198 35.481 114.619C30.0791 116.844 29.2023 114.554 34.1094 111.205C35.5056 110.252 35.9788 109.878 35.9788 109.878C35.1098 109.817 34.3084 109.694 33.6008 109.53C29.6862 108.623 28.6426 106.464 34.9149 106.565C35.8413 106.583 36.785 106.639 36.785 106.639C36.785 106.639 36.4757 105.398 36.1489 104.463C34.6358 100.133 37.6853 99.6172 40.2578 103.496C40.8051 104.321 40.962 104.327 40.962 104.327C40.883 104.329 41.1236 102.849 41.747 101.481C44.8612 96.1584 46.0807 101.016 45.1398 104.23ZM112.415 99.9221C109.803 104.181 107.524 108.416 106.438 112.832L96.2738 112.671C96.977 108.756 98.7724 104.683 100.917 100.377C105.055 100.272 108.787 100.105 112.415 99.9221ZM85.5812 101.811L84.9962 103.378L86.4688 103.795L87.0024 102.27L85.5812 101.811ZM9.57277 104.751C8.4839 107.362 8.11951 110.27 7.5153 112.6C7.2604 113.951 7.52006 114.514 8.39781 114.816C9.64662 115.246 11.4485 114.66 12.4563 113.329C13.0246 112.579 13.4371 111.029 13.5235 108.292L13.621 105.854C12.0762 105.589 11.0212 105.207 9.57277 104.751ZM84.2061 105.092L83.7187 106.531L85.1399 107.019L85.6838 105.565L84.2061 105.092ZM150.035 105.632C151.764 105.671 152.086 105.814 153.652 106.668L156.674 109.537C155.882 110.237 155.386 111.22 155.386 112.312C155.386 114.434 157.252 116.156 159.553 116.156C160.692 116.156 162.477 115.048 162.477 115.048L167.267 119.625C164.475 120.753 161.741 118.157 160.712 117.13C160.471 116.889 160.409 116.723 160.409 116.723C160.409 116.723 160.452 116.85 160.352 117.357C159.95 119.395 157.772 125.41 155.689 125.089C153.343 124.728 155.732 116.131 155.757 116.329C154.144 117.902 146.285 119.577 146.836 117.821C147.929 114.331 153.808 112.986 154.581 112.38C151.455 110.645 147.493 105.834 150.035 105.632ZM9.95246 105.744C10.9479 105.809 11.6309 105.92 12.3075 106.181C12.6227 106.259 12.6368 106.501 12.6718 106.73C12.6777 107.76 12.9578 110.785 11.9227 110.816C10.7729 110.793 9.6937 111.021 8.93655 111.554C8.32766 111.983 8.12577 111.673 8.29006 110.574C8.44924 109.509 9.02289 107.271 9.27005 106.365C9.30931 105.992 9.63132 105.728 9.95246 105.744ZM41.0095 105.783C38.7093 105.783 36.8432 107.505 36.8432 109.627C36.8432 111.75 38.7093 113.471 41.0095 113.471C43.3097 113.471 45.1757 111.75 45.1757 109.627C45.1757 107.505 43.3097 105.783 41.0095 105.783ZM41.0095 107.128C42.5046 107.128 43.7186 108.248 43.7186 109.627C43.7186 111.007 42.5046 112.122 41.0095 112.122C39.5143 112.122 38.3004 111.007 38.3004 109.627C38.3004 108.248 39.5143 107.128 41.0095 107.128ZM62.5062 107.174C72.0556 122.384 70.9492 143.26 59.6909 158.447L71.7946 157.665L70.204 160.525L57.2999 161.685C55.3283 163.35 53.5338 165.253 51.5944 167.034L51.5739 167.664C47.1501 168.612 42.7223 169.703 38.2132 171.202C35.833 169.046 31.356 164.735 31.3854 164.626L31.6732 163.231C62.3621 148.784 53.3844 119.811 51.2239 117.428C54.5159 113.781 58.4457 110.349 62.5062 107.174ZM147.68 109.94C148.923 109.94 149.927 110.871 149.927 112.018C149.927 113.165 148.923 114.096 147.68 114.096C146.437 114.096 145.427 113.165 145.427 112.018C145.427 110.871 146.437 109.94 147.68 109.94ZM157.685 110.498L161.456 114.082C160.967 114.528 160.295 114.806 159.553 114.806C158.057 114.806 156.844 113.691 156.844 112.312C156.844 111.6 157.167 110.954 157.685 110.498ZM28.1567 110.943C29.3997 110.943 30.404 111.87 30.404 113.017C30.404 114.164 29.3997 115.095 28.1567 115.095C26.9139 115.095 25.9043 114.164 25.9043 113.017C25.9043 111.87 26.9139 110.943 28.1567 110.943ZM11.4096 111.814C12.4636 112.14 12.218 113.048 10.8561 113.848C9.97497 114.365 9.16779 114.479 8.39268 114.096C6.92389 113.371 9.97147 111.341 11.4096 111.814ZM28.8083 116.899L15.2475 129.004C16.1008 126.993 16.1322 124.987 16.1967 122.978C20.2773 123.366 21.9858 121.456 21.3891 117.524C24.0248 117.669 26.7563 117.413 28.8083 116.899ZM50.5375 118.281C56.8254 134.824 51.3642 152.332 31.697 162.471C32.5067 146.619 39.7178 131.463 50.5375 118.281ZM68.4493 119.73C79.242 122.337 91.5277 123.552 104.283 123.56C104.379 128.038 104.612 132.774 105.607 137.346C94.7412 134.724 82.605 133.504 69.3472 133.72C69.8973 128.986 69.0167 123.617 68.4493 119.73ZM148.48 122.178L136.987 134.577L137.469 127.807C141.34 128.261 142.719 126.378 142.149 122.656C144.26 122.897 146.369 122.556 148.48 122.178ZM36.8022 122.864L35.894 127.816C33.6003 127.873 31.3489 128.625 31.3789 133.35L24.5241 133.275L36.8022 122.864ZM163.288 123.778C164.531 123.778 165.535 124.709 165.535 125.856C165.535 127.003 164.531 127.934 163.288 127.934C162.045 127.934 161.035 127.003 161.035 125.856C161.035 124.709 162.045 123.778 163.288 123.778ZM26.3763 124.407C27.6193 124.407 28.6287 125.339 28.6287 126.486C28.6287 127.633 27.6193 128.559 26.3763 128.559C25.1333 128.559 24.1239 127.633 24.1239 126.486C24.1239 125.339 25.1333 124.407 26.3763 124.407ZM158.265 126.538L157.064 134.037C153.933 133.783 151.319 134.228 152.123 139.311C149.474 139.072 145.794 139.649 143.329 139.846L158.265 126.538ZM147.044 127.897C148.287 127.897 149.296 128.828 149.296 129.975C149.296 131.122 148.287 132.049 147.044 132.049C145.801 132.049 144.791 131.122 144.791 129.975C144.791 128.828 145.801 127.897 147.044 127.897ZM9.87549 129.506C11.1185 129.506 12.1279 130.438 12.1279 131.585C12.1279 132.731 11.1185 133.658 9.87549 133.658C8.6325 133.658 7.62818 132.731 7.62818 131.585C7.62818 130.438 8.6325 129.506 9.87549 129.506ZM17.3409 131.963C20.2157 132.559 18.8857 138.742 18.2388 140.423C18.1896 140.469 26.2598 136.522 26.7406 138.265C27.0559 141.757 20.0602 144.192 20.0602 144.192C20.0602 144.192 24.7752 147.971 24.9089 150.346C24.9204 151.883 22.9375 151.598 20.3629 149.65C19.2625 148.653 18.411 147.905 17.6539 147.212C18.5382 146.507 19.0956 145.463 19.0956 144.301C19.0956 142.178 17.2296 140.457 14.9294 140.457C13.659 140.457 12.5228 140.983 11.7585 141.81C11.1614 141.28 10.4858 140.661 9.5779 139.869C8.09075 138.586 7.04693 137.567 7.19719 137.105C9.15942 135.83 13.0623 139.255 13.4106 139.566C13.1182 138.899 15.2766 132.318 17.3409 131.963ZM13.4106 139.566C13.4262 139.602 13.4473 139.623 13.4773 139.623C13.4773 139.623 13.4269 139.581 13.4106 139.566ZM135.966 136.792C137.334 136.775 137.249 139.647 136.761 141.138C136.428 142.276 136.099 143.207 136.099 143.207C136.099 143.207 137.252 142.376 137.762 142.156C141.483 140.548 142.87 142.369 140.994 144.481C140.093 145.567 138.863 145.808 137.865 146.72C139.287 146.78 140.92 147.07 142.149 147.738C143.104 148.265 143.854 148.903 143.852 149.3C143.848 150.188 141.486 150.666 139.275 150.436C138.335 150.455 136.566 149.991 136.566 149.991C136.566 149.991 137.3 151.129 137.567 151.809C138.392 153.922 138.103 156.396 136.91 156.392C134.914 155.9 133.94 153.852 133.16 152.382C132.519 154.021 131.898 155.775 130.471 156.993C129.056 158.201 128.33 157.198 128.403 155.152C128.432 154.337 129.08 151.909 129.08 151.909C120.698 154.52 121.32 150.987 127.863 147.893C123.833 146.12 121.385 144.525 128.239 144.163C128.058 144.012 126.861 140.625 128.142 139.832C129.332 139.094 131.868 141.626 131.99 141.749C131.938 141.499 132.658 139.516 133.862 138.146C134.786 137.182 135.471 136.799 135.966 136.792ZM128.239 144.163C128.248 144.171 128.256 144.171 128.26 144.163C128.26 144.163 128.241 144.164 128.239 144.163ZM164.936 141.926C163.476 142.049 162.568 143.244 161.892 144.286C161.755 144.498 161.503 144.573 161.409 144.852C160.804 146.649 160.276 148.801 159.952 151.481C160.877 151.832 162.964 152.424 163.886 152.105C164.146 152.005 164.065 151.386 164.153 151.182C165.608 147.801 166.328 145.273 166.328 143.72C166.328 142.467 165.861 141.848 164.936 141.926ZM14.9396 141.773C16.4348 141.773 17.6487 142.893 17.6487 144.272C17.6487 145.065 17.2476 145.771 16.6226 146.228C14.8778 144.622 13.9845 143.781 12.8155 142.724C13.3117 142.145 14.078 141.773 14.9396 141.773ZM165.452 142.963C165.818 143.783 164.642 144.673 163.119 144.668C162.214 144.664 161.919 144.782 162.322 144.058C162.802 143.177 164.751 141.393 165.452 142.963ZM145.027 142.383C146.27 142.383 147.28 143.315 147.28 144.462C147.28 145.609 146.27 146.535 145.027 146.535C143.784 146.535 142.775 145.609 142.775 144.462C142.775 143.315 143.784 142.383 145.027 142.383ZM26.2942 142.53C27.5372 142.53 28.5466 143.457 28.5466 144.604C28.5466 145.751 27.5372 146.682 26.2942 146.682C25.0512 146.682 24.0469 145.75 24.0469 144.604C24.0469 143.457 25.0512 142.53 26.2942 142.53ZM132.78 143.373C130.48 143.373 128.614 145.095 128.614 147.217C128.614 149.339 130.48 151.061 132.78 151.061C135.08 151.061 136.946 149.339 136.946 147.217C136.946 145.095 135.08 143.373 132.78 143.373ZM77.0999 143.889C76.0045 148.318 74.3187 152.553 72.1896 156.742C68.1732 156.966 63.8321 157.139 60.9685 157.514C65.7374 149.807 65.8527 147.995 67.6181 143.912L77.0999 143.889ZM84.0009 144.514C85.1288 144.637 86.3652 144.794 87.4796 144.992C85.4296 151.65 82.7188 158.486 79.2189 165.065L77.0999 164.762L76.0942 163.616L79.4601 162.376L76.8382 159.905L81.184 158.693L78.5109 156.259L82.8054 155.27L80.5068 152.694L84.36 151.307L81.9126 148.391L86.0173 147.35L84.0009 144.514ZM132.78 144.717C134.275 144.717 135.489 145.837 135.489 147.217C135.489 148.597 134.275 149.712 132.78 149.712C131.285 149.712 130.071 148.597 130.071 147.217C130.071 145.837 131.285 144.717 132.78 144.717ZM88.2492 145.096L89.6807 145.309L89.2395 146.725L90.8711 147.047L91.3995 145.517C91.3995 145.517 92.7118 145.629 92.8516 145.726C91.1425 152.153 85.0992 165.605 85.0219 165.534L83.4673 165.321L83.8777 163.962L82.4308 163.773V163.758L81.733 165.235L80.1886 165.117C83.9304 157.238 86.4778 151.19 88.2492 145.096ZM164.299 145.607C165.446 145.603 165.377 146.148 164.545 148.145C163.763 150.021 163.471 150.772 163.092 151.015C162.187 151.607 160.239 151.111 160.397 150.247C160.91 147.445 161.092 146.25 161.876 145.869C162.692 145.72 163.488 145.611 164.299 145.607ZM94.006 145.839L97.7413 146.507L94.6166 148.221L96.6022 150.36L92.7643 151.871L95.0938 154.096L91.3893 155.492L93.6417 157.94L89.7987 159.436L92.4155 161.528L88.0953 162.788L89.732 165.108L88.1055 165.946L86.0994 165.657C89.4294 158.489 91.5696 152.593 94.006 145.839ZM103.185 147.553L110.502 149.39L111.964 151.8L108.531 162.494L98.7828 159.853L103.185 147.553ZM88.6443 148.585L87.9465 150.342L89.5576 150.649L90.1784 148.841L88.6443 148.585ZM87.2282 152.619L86.5304 154.375L88.044 154.65L88.7572 152.874L87.2282 152.619ZM85.8018 156.165L85.0886 157.912L86.5612 158.191L87.2641 156.439L85.8018 156.165ZM154.543 159.379C154.545 159.379 153.796 159.879 153.599 160.1C153.762 160.501 154.234 161.117 154.164 161.521C154.1 161.825 153.732 162.071 153.18 162.613C151.803 164.092 151.318 163.931 152.118 162.352C152.381 161.856 152.498 161.396 152.498 161.396C152.179 161.807 151.939 162.295 151.723 162.682C151.269 163.489 150.845 164.252 150.845 164.252C151.723 164.531 152.306 165.133 152.872 165.523C152.872 165.523 153.16 164.807 153.36 164.123C153.638 163.168 154.185 162.775 154.858 162.447C155.282 162.239 155.687 161.862 155.687 161.862C154.947 161.166 154.862 160.17 154.543 159.379ZM84.2779 159.81L83.5237 161.671L84.9911 162.002L85.8069 160.103L84.2779 159.81ZM1.49682 164.487C1.36294 171.896 1.62906 176.774 1.34802 184.764L23.0874 210.76L19.6959 211.811C19.6959 211.811 19.659 212.171 19.4753 212.218C14.8298 213.397 7.29468 214.571 7.29468 214.571C12.8989 226.378 16.5334 241.143 14.0263 255.891L70.2912 255.754L1.49682 164.487ZM120.491 177.043L118.552 178.837C89.9378 164.548 50.5275 164.604 21.7688 181.905L19.424 180.319C50.8125 161.764 89.429 161.88 120.491 177.043ZM2.54864 167.086L68.7725 254.864L60.9941 254.968L2.60508 184.489L2.54864 167.086ZM144.668 168.672C144.668 168.672 142.755 169.13 141.148 169.605C136.547 170.965 134.394 173.42 134.817 176.83C134.942 177.837 135.225 177.823 137.1 176.73C141.488 174.174 141.763 174.061 147.228 172.583C147.651 172.469 148.265 172.554 148.265 172.554L148.024 176.536C138.913 176.504 139.41 183.182 142.031 186.653C141.113 188.258 139.106 193.862 145.715 195.994C149.011 196.599 152.503 194.128 152.395 194.001C158.476 196.654 165.532 192.205 160.03 184.499C162.099 181.138 160.64 178.643 158.665 176.498C158.665 176.498 158.999 176.525 161.877 177.014C166.243 177.757 167.911 177.625 167.911 177.625C167.917 173.999 164.662 172.38 157.875 171.887C153.068 172.513 144.668 168.641 144.668 168.672ZM71.3584 169.094C71.6872 169.092 72.012 169.092 72.3384 169.098L72.0203 175.291L64.6268 175.603L64.1445 169.435C66.6909 169.273 69.0575 169.101 71.3584 169.094ZM80.2194 169.245L88.1517 170.135L86.9511 175.925L79.6448 175.201L80.2194 169.245ZM144.391 169.312C145.206 169.295 145.028 170.076 144.073 170.249C142.647 170.506 138.99 172.471 138.988 172.981C138.987 173.309 139.168 173.262 140.507 172.602C141.176 172.272 142.572 171.71 143.606 171.347C144.64 170.985 145.821 170.548 146.233 170.377C147.462 169.865 148.072 170.219 147.629 171.186C147.336 171.826 147.22 171.876 144.37 172.711C141.792 173.465 141.319 173.661 139.681 174.628C139.07 174.989 137.987 175.566 137.274 175.906C135.59 176.711 135.248 176.714 135.253 175.632C135.161 172.424 139.006 170.018 144.216 169.326C144.28 169.317 144.337 169.313 144.391 169.312ZM75.9044 170.064C76.896 170.064 77.7002 170.806 77.7002 171.721C77.7002 172.637 76.896 173.378 75.9044 173.378C74.9126 173.378 74.1086 172.637 74.1086 171.721C74.1086 170.806 74.9126 170.064 75.9044 170.064ZM56.2789 170.505L56.8689 176.124L49.5985 177.847L47.9361 172.043C50.7176 171.414 53.4974 170.973 56.2789 170.505ZM149.937 170.931C151.93 171.211 151.772 175.422 150.753 176.153C149.185 177.195 148.221 175.015 148.921 172.124C149.119 171.254 149.482 170.951 149.937 170.931ZM60.4041 171.158C61.3959 171.158 62.1999 171.9 62.1999 172.815C62.1999 173.73 61.3959 174.472 60.4041 174.472C59.4125 174.472 58.6083 173.73 58.6083 172.815C58.6083 171.9 59.4125 171.158 60.4041 171.158ZM95.9198 171.641L104.139 173.71L102.128 179.58L94.4165 177.578L95.9198 171.641ZM91.4457 171.754C92.4375 171.754 93.2415 172.496 93.2415 173.411C93.2415 174.326 92.4375 175.068 91.4457 175.068C90.4541 175.068 89.6499 174.326 89.6499 173.411C89.6499 172.496 90.4541 171.754 91.4457 171.754ZM158.685 172.247C162.227 172.281 166.897 173.92 166.905 176.446C166.833 177.164 159.487 176.211 156.094 174.95C154.891 174.503 153.424 173.142 153.426 172.573C153.428 172.236 154.145 172.26 154.437 172.588C154.915 173.123 156.606 173.682 160.492 174.586C163.476 175.279 163.774 175.306 163.775 174.889C163.777 174.508 162.013 173.983 160.102 173.691C159.141 173.546 158.244 173.278 156.767 173.161C156.078 173.158 155.91 172.759 156.484 172.488C157.11 172.317 157.868 172.239 158.685 172.247ZM152.431 173.553C153.324 173.94 153.647 174.71 154.14 175.116C153.527 175.384 153.253 175.654 152.262 175.722C152.28 175.117 152.101 174.395 152.431 173.553ZM44.7909 174.008C45.7826 174.008 46.5867 174.75 46.5867 175.665C46.5867 176.58 45.7826 177.322 44.7909 177.322C43.7991 177.322 42.9951 176.58 42.9951 175.665C42.9951 174.75 43.7991 174.008 44.7909 174.008ZM39.9577 174.477L41.8971 180.214L34.9499 183.003L32.4871 177.317C34.8887 176.152 37.5157 175.306 39.9577 174.477ZM72.0819 175.414C72.0819 175.414 77.6162 175.421 79.5268 175.442L79.0804 181.919L72.1743 181.966L72.0819 175.414ZM64.6883 175.769L65.0732 182.236L58.4236 183.06L57.1101 176.555L64.6883 175.769ZM106.731 175.826C107.722 175.826 108.526 176.568 108.526 177.483C108.526 178.398 107.722 179.14 106.731 179.14C105.739 179.14 104.935 178.398 104.935 177.483C104.935 176.568 105.739 175.826 106.731 175.826ZM154.842 175.977C158.891 175.993 162.753 180.291 158.752 184.792C165.314 189.451 158.18 197.281 152.38 192.718C144.086 200.234 139.45 190.027 142.882 187.321C137.814 179.635 144.041 174.779 150.466 178.169C151.649 176.621 153.258 175.971 154.842 175.977ZM87.0691 176.162L94.3652 177.658L92.8978 184.054L85.771 182.719L87.0691 176.162ZM111.215 176.318L117.885 179.377L112.713 183.969L108.87 182.203L111.215 176.318ZM68.4493 177.043C69.441 177.043 70.2451 177.785 70.2451 178.7C70.2451 179.615 69.441 180.356 68.4493 180.356C67.4575 180.356 66.6535 179.615 66.6535 178.7C66.6535 177.785 67.4575 177.043 68.4493 177.043ZM82.8618 177.251C83.8536 177.251 84.6576 177.993 84.6576 178.908C84.6576 179.823 83.8536 180.565 82.8618 180.565C80.2187 180.183 80.9299 177.305 82.8618 177.251ZM49.6396 178.183L51.266 184.579L44.5087 186.686L42.0921 180.456L49.6396 178.183ZM54.283 178.638C55.2747 178.638 56.0788 179.38 56.0788 180.295C56.0788 181.21 55.2747 181.952 54.283 181.952C53.2912 181.952 52.4872 181.21 52.4872 180.295C52.4872 179.38 53.2912 178.638 54.283 178.638ZM154.309 181.587C153.801 182.17 153.133 182.857 153.133 182.857C151.452 182.217 149.822 182.472 148.732 183.163C148.732 183.163 147.573 182.31 146.515 181.521C144.681 180.154 144.07 179.842 144.068 180.413C144.068 180.532 144.69 181.117 145.448 181.715C147.516 183.348 147.938 183.936 147.938 183.936C147.441 185.417 147.447 186.578 148.396 187.823C148.396 187.823 148.436 187.986 147.709 188.692C146.392 189.974 145.033 191.954 145.346 192.245C145.735 192.607 146.836 191.74 148.217 190.018C149.202 188.79 149.498 188.764 149.498 188.764C151.177 189.182 152.108 189.56 153.787 188.282C153.787 188.282 154.42 188.459 155.685 189.422C157.657 190.924 158.365 191.247 158.579 190.739C158.754 190.323 158.494 190.045 156.824 188.873C155.737 188.11 154.528 187.216 154.528 187.216C154.883 186.678 155.135 184.766 153.919 183.457C153.919 183.457 153.967 183.543 155.765 181.393C156.961 179.963 157.168 179.782 156.772 179.476C156.243 178.838 154.487 181.384 154.309 181.587ZM102.195 179.755L108.778 182.307L106.423 188.656L100.066 186.26L102.195 179.755ZM29.7627 180.181C30.7545 180.181 31.5585 180.923 31.5585 181.838C31.5585 182.754 30.7545 183.495 29.7627 183.495C28.7711 183.495 27.9669 182.754 27.9669 181.838C27.9669 180.923 28.7711 180.181 29.7627 180.181ZM97.105 180.352C98.0968 180.352 98.9008 181.094 98.9008 182.009C98.9008 182.924 98.0968 183.666 97.105 183.666C96.1132 183.666 95.3092 182.924 95.3092 182.009C95.3092 181.094 96.1132 180.352 97.105 180.352ZM25.1654 180.806L27.3204 185.73L22.4204 182.359L25.1654 180.806ZM79.1881 182.075L85.7453 182.79L84.7089 188.556L79.0547 188.083L79.1881 182.075ZM72.0306 182.089L71.9639 188.017L65.735 188.263L65.2066 182.345L72.0306 182.089ZM39.9833 183.169C40.9749 183.169 41.7791 183.911 41.7791 184.826C41.7791 185.741 40.9749 186.483 39.9833 186.483C38.9915 186.483 38.1875 185.741 38.1875 184.826C38.1875 183.911 38.9915 183.169 39.9833 183.169ZM35.0166 183.287L37.5513 189.243L33.6211 190.994L28.3517 186.393L35.0166 183.287ZM58.4595 183.363L59.4754 189.03L52.9797 190.511L51.4046 184.745L58.4595 183.363ZM151.302 183.42C152.716 183.42 153.862 184.478 153.862 185.782C153.862 187.087 152.716 188.144 151.302 188.144C149.888 188.144 148.742 187.087 148.742 185.782C148.742 184.478 149.888 183.42 151.302 183.42ZM75.2989 183.599C76.2906 183.599 77.0947 184.341 77.0947 185.256C77.0947 186.172 76.2906 186.913 75.2989 186.913C74.3071 186.913 73.5031 186.172 73.5031 185.256C73.5031 184.341 74.3071 183.599 75.2989 183.599ZM92.9901 184.21L99.9168 186.279L97.5873 191.397L91.6048 189.901L92.9901 184.21ZM62.2922 184.423C63.284 184.423 64.088 185.165 64.088 186.08C64.088 186.995 63.284 187.737 62.2922 187.737C61.3005 187.737 60.4964 186.995 60.4964 186.08C60.4964 185.165 61.3005 184.423 62.2922 184.423ZM88.6289 185.034C89.6205 185.034 90.4247 185.776 90.4247 186.691C90.4247 187.606 89.6205 188.348 88.6289 188.348C87.6371 188.348 86.8331 187.606 86.8331 186.691C86.8331 185.776 87.6371 185.034 88.6289 185.034ZM44.6473 186.975L47.0331 192.041L40.5169 194.64L37.6796 189.475L44.6473 186.975ZM49.265 187.278C50.2567 187.278 51.0608 188.02 51.0608 188.935C51.0608 189.85 50.2567 190.592 49.265 190.592C48.2732 190.592 47.4692 189.85 47.4692 188.935C47.4692 188.02 48.2732 187.278 49.265 187.278ZM73.2723 188.807C83.9699 188.787 93.6268 190.85 101.379 193.811L99.0702 195.809C73.9257 187.836 57.4825 191.428 40.6195 198.252L38.9161 196.311C50.8351 190.931 62.5746 188.828 73.2723 188.807ZM101.718 188.869C102.71 188.869 103.513 189.611 103.513 190.526C103.513 191.441 102.71 192.183 101.718 192.183C100.726 192.183 99.9219 191.441 99.9219 190.526C99.9219 189.611 100.726 188.869 101.718 188.869ZM36.1916 192.505C37.6343 192.583 37.7723 195.067 37.0998 194.351L35.4938 192.637C35.7546 192.534 35.9855 192.493 36.1916 192.505ZM103.411 193.532C103.358 195.415 101.424 208.04 94.8988 216.72C94.5027 212.33 93.3546 207.081 92.0717 203.578C92.0717 203.578 99.0931 197.592 103.411 193.532ZM19.9371 212.663L53.893 254.911L50.3271 254.887C49.582 251.785 48.5038 248.611 46.3866 246.238C44.6675 244.311 43.128 242.86 40.0449 241.565C38.1896 240.787 37.9507 240.953 37.8335 239.638C37.2734 232.249 30.7886 227.602 25.8222 225.833C25.3429 221.367 23.1577 216.973 17.6795 213.274L19.9371 212.663ZM16.6307 213.674C19.7332 215.642 23.1335 217.348 24.9656 225.105C25.1033 226.727 25.211 226.554 26.5918 227.031C32.0034 228.495 36.7112 234.496 37.1306 239.743C37.1261 241.325 37.6854 241.465 39.7986 242.285C42.3936 243.29 45.0876 245.418 46.6124 247.511C48.8805 250.522 49.6812 255.08 49.4856 254.864L47.618 254.873C46.2857 247.144 41.0157 244.061 35.4414 242.617C35.8754 231.706 26.6808 228.301 23.4696 227.789C23.6583 219.929 18.1472 216.688 14.5907 214.05C15.2539 213.81 16.6307 213.674 16.6307 213.674ZM11.1381 214.758C13.9155 215.596 16.0204 219.167 15.8068 220.81C19.4702 221.236 23.3192 224.504 22.4744 227.908C22.2034 228.052 21.7756 228.081 21.3521 227.69C22.3338 221.087 11.6508 224.356 15.9196 229.133L14.011 230.284C12.4758 223.676 10.5858 219.932 8.53446 215.158C9.28271 214.976 11.1381 214.758 11.1381 214.758ZM19.9833 228.603C20.9321 228.603 21.697 229.313 21.697 230.189C21.697 231.064 20.9321 231.775 19.9833 231.775C19.0344 231.775 18.2644 231.064 18.2644 230.189C18.2644 229.313 19.0344 228.603 19.9833 228.603ZM29.1546 235.73C33.2339 236.795 34.5541 240.605 34.4197 241.991L33.5282 241.973C32.094 235.936 24.6371 239.22 27.75 244.034C23.7638 245.394 24.0784 248.788 25.252 250.131C26.8721 251.984 31.0023 251.925 32.2614 249.074C36.1369 253.699 41.4837 248.509 36.7663 244.198C40.6297 245.511 41.2495 250.286 40.6688 251.778C42.4622 252.343 44.5283 254.969 44.2522 254.954L15.3039 254.958C15.3039 254.958 16.7052 244.18 15.2167 236.045C17.1427 236.473 18.4343 236.902 20.6503 234.502C24.2364 237.242 26.8138 235.174 26.6277 232.807C26.3521 231.152 25.4252 230.329 23.8878 229.455C27.0266 228.743 29.4001 233.753 29.1546 235.73ZM32.3845 243.324C33.3621 243.324 34.1547 244.055 34.1547 244.957C34.1547 245.859 33.3622 246.59 32.3845 246.59C31.407 246.59 30.6144 245.859 30.6144 244.957C30.6144 244.055 31.407 243.324 32.3845 243.324Z" fill="black"/>
</g>
</g>
</g>
</g>
</g>
</g>
</svg>
