<svg width="174" height="257" viewBox="0 0 174 257" fill="none" xmlns="http://www.w3.org/2000/svg">
<g id="red-A">
<path id="A" d="M21.0867 202.207C18.4369 204.141 15.3933 205.107 11.9558 205.107C8.58993 205.107 5.90438 204.248 3.89917 202.529C1.82235 200.739 0.783936 198.698 0.783936 196.406C0.783936 194.115 1.14201 192.432 1.85815 191.357C3.93498 192.575 6.47729 193.184 9.48511 193.184C12.5645 193.184 14.8562 192.79 16.3601 192.002C17.9356 191.143 19.4395 189.997 20.8718 188.564L36.1257 143.34L38.2742 135.928C38.9187 133.708 39.241 131.667 39.241 129.805C39.241 123.288 36.1615 119.134 30.0027 117.344C35.6602 115.195 39.6348 112.868 41.9265 110.361C45.5072 106.423 48.336 101.23 50.4128 94.7852L62.2292 55.1465C59.9376 52.0671 57.2162 50.5273 54.0652 50.5273C50.9141 50.5273 47.9779 51.2077 45.2566 52.5684C44.5404 51.2793 44.1824 49.847 44.1824 48.2715C44.1824 46.6243 44.5046 45.0846 45.1492 43.6523C45.8653 42.2201 46.8321 40.9668 48.0496 39.8926C50.7709 37.6009 54.6381 36.4551 59.6511 36.4551C64.6641 36.4551 68.9252 37.959 72.4343 40.9668C76.0151 37.959 80.4552 36.4551 85.7546 36.4551C91.1257 36.4551 95.3868 37.8874 98.5378 40.752C103.121 37.8874 107.776 36.4551 112.503 36.4551C117.229 36.4551 120.882 37.3503 123.46 39.1406C126.109 40.931 127.434 43.3659 127.434 46.4453C127.434 47.8776 127.005 49.1309 126.145 50.2051C124.498 48.9876 122.565 48.3789 120.344 48.3789C115.546 48.3789 112.431 51.6374 110.999 58.1543L124.749 102.09C126.468 107.604 130.764 111.901 137.639 114.98C139.573 115.84 141.542 116.628 143.548 117.344C136.386 119.707 132.805 123.252 132.805 127.979C132.805 129.769 133.092 131.344 133.665 132.705L154.182 187.705C157.333 190.999 160.52 192.646 163.743 192.646C166.966 192.646 169.472 192.038 171.262 190.82C172.05 191.393 172.444 192.467 172.444 194.043C172.444 195.618 172.193 197.087 171.692 198.447C171.191 199.736 170.403 200.882 169.329 201.885C167.037 204.033 163.671 205.107 159.231 205.107C154.791 205.107 150.924 203.89 147.63 201.455C143.906 203.89 139.68 205.107 134.954 205.107C130.299 205.107 126.288 203.926 122.923 201.562C119.7 203.926 115.904 205.107 111.536 205.107C107.167 205.107 103.551 204.212 100.686 202.422C97.8217 200.56 96.3178 197.946 96.1746 194.58C96.1746 192.575 96.5684 191.322 97.3562 190.82C99.2898 192.038 101.259 192.646 103.264 192.646C107.49 192.646 110.462 191.787 112.18 190.068L104.016 162.676H45.9011L38.8113 186.416C41.7475 190.928 45.2924 193.184 49.446 193.184C53.6713 193.184 56.8223 192.575 58.8992 191.357C59.6869 192.646 60.0808 194.437 60.0808 196.729C60.0808 198.949 58.9708 200.918 56.7507 202.637C54.5307 204.284 51.6661 205.107 48.157 205.107C44.6479 205.107 41.4252 204.212 38.489 202.422C35.9109 204.212 32.9389 205.107 29.573 205.107C26.2787 205.107 23.45 204.141 21.0867 202.207ZM99.6121 148.174L74.6902 65.3516L50.198 148.174H99.6121ZM120.13 174.492C121.419 174.492 122.063 173.06 122.063 170.195C122.063 165.182 121.311 160.312 119.807 155.586L115.725 143.018C112.861 133.564 111.428 127.62 111.428 125.186C111.357 121.175 113.111 118.525 116.692 117.236C111.751 116.234 108.743 114.694 107.669 112.617C107.167 111.758 106.738 111.077 106.38 110.576C106.093 110.075 105.771 109.502 105.413 108.857C105.126 108.141 104.768 107.246 104.339 106.172C103.909 105.098 103.336 103.558 102.62 101.553L95.9597 81.4648C94.3842 76.4518 92.0567 72.6562 88.9773 70.0781C88.0463 69.2904 87.1869 68.8249 86.3992 68.6816C91.1973 86.0124 94.3484 97.1126 95.8523 101.982C106.236 133.923 112.467 152.865 114.544 158.809L120.13 174.492ZM151.819 184.16L152.034 184.805L151.819 184.16Z" fill="#EE0000"/>
</g>
</svg>
