<svg width="184" height="263" viewBox="0 0 184 263" fill="none" xmlns="http://www.w3.org/2000/svg">
<g id="red-K">
<g id="layer1">
<g id="g929">
<g id="g3270">
<g id="g4012">
<g id="g3023">
<g id="g2993">
<path id="path3995" d="M5.38914 3.041C5.33313 80.3978 6.04181 175.465 5.94437 259.717L178.614 259.959L177.946 3.69296L5.38914 3.041ZM56.4264 4.76575C86.2151 5.56342 116.192 4.80144 146.202 5.06671C146.202 5.06671 135.265 22.6542 131.95 28.1899C131.224 29.4072 131.149 30.2693 131.538 30.7752C132.14 31.558 132.088 32.8803 131.411 33.6441C131.12 33.9713 130.989 34.1834 130.966 34.3795C130.944 34.5752 131.133 34.79 131.286 35.1445C131.816 36.8332 130.436 37.999 128.993 38.5384C128.026 38.9002 125.872 39.1365 124.283 39.064C114.325 38.6098 94.8076 30.7765 86.7605 30.1554C81.1786 28.701 73.9614 29.1947 68.0123 29.4974C66.8891 29.5581 67.0902 27.1317 67.0902 27.1317C66.168 19.1154 60.0571 12.1276 56.4264 4.76575ZM147.82 5.64504L175.972 5.7189L176.091 9.93307L164.224 21.1685C163.106 22.2192 162.225 23.0905 162.225 23.0905L162.134 33.2455C154.067 29.2105 152.467 24.4019 151.002 19.1132C137.486 28.3226 136.816 48.5229 151.533 58.9464C151.662 54.4291 155.392 45.5584 161.975 44.9104L162 80.0993L153.92 72.7578L136.32 72.9416C139.23 68.5826 139.302 65.117 137.432 61.0235C134.281 54.3356 129.427 39.0731 129.802 39.1248C129.802 39.1248 129.942 38.7971 130.342 38.7152C131.802 38.4161 132.732 37.1123 132.318 35.5425C132.24 35.0371 132.243 35.1559 132.615 34.5002C134.052 32.2376 132.349 29.7761 132.349 29.7761L147.82 5.64504ZM54.4494 5.70633L64.9794 23.424C64.9794 23.424 64.8401 24.2354 64.8956 24.7121C64.9772 25.3978 65.2234 26.0083 65.6453 26.6481C65.9245 27.0713 66.13 27.6492 66.1923 28.1826C66.2949 29.0613 66.2954 29.062 67.68 30.2236C67.9709 30.4676 68.0266 30.6176 67.9181 30.8705C67.457 31.9451 67.7218 34.1438 68.6248 36.7702C69.7652 40.0873 70.0615 40.0444 67.9179 44.4751C67.4707 45.4005 66.9299 46.6355 66.3488 47.771C63.7029 52.7857 63.2937 54.1463 67.8132 56.829C69.0856 57.5843 69.4574 58.2382 69.1364 59.738C68.8839 60.9179 68.8314 61.6721 69.4421 62.3386C69.838 62.7707 70.1974 62.8423 70.0972 63.1749C70.0291 63.4013 69.7314 64.3826 69.8287 65.2083C70.0908 67.4331 67.3127 70.7051 64.7813 71.8491C64.2747 72.1809 64.1309 71.7746 63.8456 71.3096C61.2334 67.052 54.7076 68.7649 54.2651 73.8376C54.1481 75.1789 54.1919 75.7607 53.818 76.0453C53.6913 76.1418 53.3084 76.3418 53.3084 76.3418C53.3084 76.3418 43.5363 82.2105 37.3218 85.2252C36.9166 85.4218 36.5526 85.7464 36.2669 85.7992C35.9368 85.8602 35.692 85.8046 35.4884 85.6139C33.2044 81.5699 34.4837 76.7997 34.6834 75.1084C34.6352 74.509 34.0826 74.3991 33.2492 74.3888C31.8378 74.3712 29.804 75.6949 29.3601 76.9307C28.9827 77.9813 28.7403 78.6615 28.3998 78.6562C28.0575 78.651 27.8916 78.2267 27.0442 76.7099C25.2812 73.5537 25.0087 73.1537 23.3584 71.3196C22.0421 69.8567 20.9177 69.6611 19.6228 70.7473C18.7226 71.5025 18.7535 70.845 17.9892 70.4615C16.6702 69.6263 14.6836 70.3689 14.6323 71.5415C14.5894 72.5253 14.5789 73.2649 13.5039 73.3281C12.3066 73.3984 11.7844 74.8306 12.1176 76.8745C12.2931 77.9501 12.3276 78.123 11.972 78.5164C10.8118 79.8001 10.6589 80.6879 11.2925 82.4839C13.0986 87.6032 15.7227 91.0516 18.186 95.708C18.186 95.708 11.8992 99.0015 8.1677 100.916L8.25022 5.72125L54.4494 5.70633ZM176.492 10.9624L176.484 93.6566L163.026 81.3515C163.026 81.3515 162.793 65.5046 162.819 59.026C162.844 52.5474 162.958 46.0696 162.932 44.8647C162.906 43.6599 163.014 38.5335 163.066 33.2706C163.175 22.2449 162.084 23.606 164.3 21.4942L176.492 10.9624ZM150.128 20.8342L150.868 22.8315C145.213 25.8242 138.27 42.5308 150.935 54.8258L150.675 57.3547C137.398 46.1522 139.889 30.1216 150.128 20.8342ZM151.091 23.1952C153.023 26.9073 155.223 30.1949 158.227 32.2104C156.6 35.7915 155.896 39.7437 158.63 45.0796C156.703 46.0554 154.024 48.6491 151.247 53.9675C141.253 44.5762 143.507 30.9875 151.091 23.1952ZM76.5943 30.0823C82.1468 30.0998 87.9366 30.9488 93.2419 32.4404C96.5608 48.1351 102.421 58.6929 102.385 64.8363C102.385 64.8363 101.922 64.7634 100.936 64.1025C98.52 62.48 95.3424 63.378 93.638 65.4356C92.0222 67.3861 93.6406 70.1053 92.8125 71.2432C91.2448 73.365 87.2135 77.2863 86.5397 77.1553C86.0496 77.06 86.1289 76.8614 87.8583 74.411C89.6594 71.859 91.0412 69.5459 90.4495 68.9791C90.1985 68.7385 90.0639 69.2457 88.7192 71.4018C85.5629 76.4625 82.7896 79.5902 81.6945 79.1813C81.1818 78.9899 81.4479 78.5706 83.7831 75.721C86.4206 72.5028 87.1546 70.4884 86.895 69.5962C86.6954 68.9105 86.2863 70.0174 85.1901 71.9954C84.0224 74.0888 81.9141 76.4203 80.2089 78.6598C79.6681 79.4705 78.9752 79.9393 78.0881 80.308C77.4306 80.5708 76.383 81.0003 75.7757 80.9272C75.4636 80.8896 75.6792 80.7198 76.1077 80.3331C79.4705 77.1343 82.3632 73.566 84.0075 70.1389C84.2613 69.6895 83.8998 69.0485 83.4843 69.5199C80.9651 73.6124 77.4588 78.7176 73.6578 80.9662C72.8419 81.4481 71.6155 81.856 70.5102 81.7681C68.6414 81.7154 69.3029 81.3309 71.0067 80.3202C74.6539 78.1566 79.7778 71.9277 80.6076 69.7229C80.8037 69.2018 80.587 68.9035 80.2273 68.9389C77.2215 73.3789 73.2522 78.2634 68.6446 80.3022C66.1617 81.4012 63.0331 81.6133 61.496 80.9135C60.3696 80.4007 60.6526 80.2253 62.6531 80.1085C67.4676 79.6762 73.1151 75.497 75.9164 71.0696C77.556 68.6185 76.4076 69.1801 74.5359 71.544C71.3411 75.5788 65.0053 79.4416 61.0819 79.1291C57.1138 78.905 54.8352 76.0506 55.3498 73.6081C55.6612 72.1304 56.7964 70.6257 59.0166 70.1976C62.8188 69.4643 65.2963 75.0492 61.8156 76.096C60.6301 76.4526 60.1799 76.18 60.6097 75.7402C63.1921 74.6976 62.0505 71.8221 59.8744 71.525C58.5052 71.338 56.9162 72.1903 56.8455 74.158C56.8825 75.6249 58.1824 77.0611 60.7955 77.0995C63.8936 77.1451 68.6511 75.0856 71.543 71.2843C73.5956 68.3788 71.7084 69.3579 70.1786 71.2963C68.8289 73.0066 64.4749 75.3953 64.1436 75.307L64.2949 73.3348C64.3605 73.6757 70.9983 69.4789 70.6156 66.3468C70.3712 64.0734 70.7308 63.3788 73.2836 63.4113C75.192 63.4355 77.6173 64.06 78.3208 64.8728C79.0463 65.677 79.8604 65.9317 79.5024 64.5775C78.9214 62.3796 79.6229 62.0185 78.249 62.4331C77.3009 62.7191 76.4611 62.0126 75.5121 61.3857C74.4681 60.6962 73.1464 60.3997 71.5685 60.4497C70.3898 60.4871 69.8582 60.4205 70.0483 59.3903C70.1824 58.6636 70.3341 58.0031 70.1078 57.5264C69.74 56.7512 68.2656 55.9484 66.6003 54.8073C64.6341 53.4601 64.9988 53.3815 69.2111 44.4252C70.9797 40.6647 70.9886 39.8925 69.9376 37.1121C68.2767 32.7187 68.0177 30.9599 71.1466 30.3519C72.9176 30.1664 74.7435 30.0765 76.5943 30.0823ZM94.3513 32.6545L95.9745 33.0865C95.9867 33.0879 101.015 49.1422 103.897 56.9818C104.776 59.3736 105.443 62.6047 105.606 65.639C105.519 69.8164 102.975 72.8099 99.8801 73.1328C97.6888 73.3614 95.3137 72.3041 94.23 70.0422C93.3159 67.8915 94.0127 65.3576 96.6586 64.4873C101.239 62.9806 104.581 68.4012 100.089 70.0611C97.7661 70.9197 95.5627 69.3619 96.6121 67.5545C97.3477 66.2874 99.4101 66.4283 99.8953 67.7391C100.29 69.1341 100.949 68.4775 100.67 67.5327C99.8239 64.5231 95.653 65.2251 95.3131 67.9959C95.3066 71.4298 99.3612 72.2429 101.784 70.3187C103.662 68.7804 103.864 65.9955 103.401 63.578C102.766 58.5571 99.7132 52.0416 97.5513 44.6079C96.4718 40.8961 94.9062 36.4703 94.3513 32.6545ZM158.968 32.9384L162.016 34.0617L161.927 43.3766L159.339 44.1983C155.964 39.4 158.791 32.9423 158.968 32.9384ZM97.1599 33.4424L99.3933 34.2435C100.605 40.8208 106.352 53.3996 108.371 62.7838C108.927 68.423 109.015 70.0776 104.89 73.0748L104.89 73.0324L102.66 73.0288C102.66 73.0288 102.652 72.9026 103.629 72.2281C109.032 68.4963 105.826 60.2481 103.801 53.9096C100.269 43.786 97.1161 33.4296 97.1599 33.4424ZM76.2712 34.0645C75.9881 34.0672 75.7007 34.0775 75.4108 34.0914C72.0397 34.2537 71.4857 34.4531 71.4736 35.1327C71.451 36.4125 72.0157 36.9813 75.1514 36.6723C77.8652 36.4048 81.7949 36.8015 84.5009 37.886C87.5878 39.1232 88.3207 39.4151 89.43 39.9467C92.2149 41.2813 91.7305 39.9572 89.214 38.4174C84.0732 35.2718 80.518 34.024 76.2712 34.0645ZM100.589 34.5569L102.685 35.3011C102.685 35.3011 103.237 36.8177 103.434 37.6854C105.459 46.0826 110.993 55.5315 111.624 65.3514C111.765 68.5694 111.164 71.5682 108.616 73.0148L106.697 73.0117C108.752 71.1234 110.121 70.5792 109.56 64.0032C108.667 55.5574 102.678 44.9964 100.589 34.5569ZM104.308 35.9267L106.241 36.5904C108.447 47.9293 119.46 64.8839 112.414 73.0445L110.657 73.0417C112.23 70.7767 112.881 68.7861 112.652 65.7259C111.987 55.4249 106.338 45.4197 104.308 35.9267ZM107.549 36.9748L109.63 37.568C112.435 49.0572 123.262 67.8949 115.509 73.0873L113.982 73.0471C119.835 62.9469 111.01 52.471 107.549 36.9748ZM111.176 38.0518C111.815 38.3825 112.729 38.5418 113.425 38.7303C115.6 47.4177 119.589 55.9644 121.396 64.0554C122.001 68.4845 120.946 71.7986 117.942 73.0535L117.301 73.0524C120.002 69.2876 119.502 64.5325 118.075 59.3925C116.155 52.4799 112.415 44.8724 111.176 38.0518ZM78.3711 38.1498C77.4038 38.1397 76.3918 38.2742 75.3209 38.5884C74.224 38.9706 74.3573 39.7717 75.3749 39.6078C75.7199 39.5522 76.3302 39.4529 76.7346 39.3882C79.233 38.9885 82.3097 39.8279 86.0358 41.9279C86.9357 42.435 87.9139 42.9237 88.1565 43.0921C88.841 43.5672 89.5722 43.5665 89.3225 42.9619C89.2226 42.7199 87.7866 41.6846 86.5161 41.0226C83.799 39.4941 81.273 38.1799 78.3711 38.1498ZM114.713 38.9636L116.81 39.2643C120.723 56.0769 129.364 66.5338 121.944 72.7579L120.091 72.7549C122.122 70.8392 123.043 67.8362 122.378 64.2835C121.699 60.6571 119.688 54.8994 118.022 49.8366C116.09 43.9675 114.535 39.0046 114.713 38.9636ZM117.721 39.4403L119.497 39.7499C121.565 46.5848 125.083 55.0589 127.198 62.1159C128.498 66.4558 127.962 71.7975 125.04 72.7771L123.538 72.7983C126.023 69.7318 126.382 66.5339 125.258 62.3959C122.949 53.9023 119.445 46.4875 117.721 39.4403ZM128.686 39.4675C130.468 46.5526 134.756 57.364 136.297 61.0971C138.349 64.9103 137.721 70.5506 134.62 72.7784L133.154 72.8044C134.928 71.2721 135.541 68.688 135.264 66.0079C134.482 58.4337 128.718 47.9215 126.639 39.8512L128.686 39.4675ZM120.892 39.79L122.724 39.9486C124.545 47.3595 128.102 54.5662 130.405 61.9795C130.834 63.6526 131.206 65.6962 131.052 67.1996C130.729 70.3517 129.316 72.8359 128.079 72.8339L126.816 72.8319C129.4 69.988 129.282 66.1046 128.186 61.9287C126.375 55.0272 121.978 46.7026 120.892 39.79ZM73.1754 39.7505C72.4117 39.7529 72.3971 40.401 73.6152 41.3934C74.3605 42.0005 74.3035 41.7983 74.2603 42.1825C74.0758 43.8229 74.3513 45.3251 75.0823 43.6373C75.2774 43.1866 75.5629 42.6783 75.8476 42.7419C76.3851 42.8966 76.1103 43.8125 76.369 44.2764C76.8063 45.0944 76.3396 45.2937 75.2731 45.0391C74.5055 44.8558 74.4613 45.2411 73.9838 45.7307C73.1478 46.5878 73.2828 47.1006 74.5672 46.8358C74.779 46.7922 74.9579 46.8487 75.122 46.8839C75.5223 46.9699 75.888 47.2059 76.8408 47.8824C78.0648 48.7514 79.7989 49.9097 80.9246 50.088C82.7275 50.3737 82.3268 49.5721 80.8502 49.045C79.5851 48.5934 78.0174 47.3426 78.0235 46.9972C78.0274 46.7318 78.4254 46.8899 80.7077 46.3125C81.6978 46.062 83.0907 45.5003 83.6776 45.2509C84.6466 44.839 84.6925 44.8425 86.2084 44.8869C88.7903 44.9625 89.1845 44.8815 87.3766 43.6335C83.723 41.1117 78.8443 39.4661 76.254 40.5058C75.4685 40.8211 75.4872 40.6271 74.9205 40.3243C74.1799 39.9286 73.5755 39.7492 73.1754 39.7505ZM125.539 40.0617C128.058 49.1204 132.948 57.2409 134.124 65.8314C134.39 68.2885 133.941 70.6879 131.734 72.7596L130.247 72.7808C130.03 72.7838 132.329 69.5006 132.137 66.687C132.2 65.1862 132.024 63.5762 131.566 61.9861C128.699 54.3456 125.875 47.4204 123.686 40.139L125.539 40.0617ZM79.7416 42.9606C79.756 42.959 79.7691 42.9587 79.7824 42.9606C80.4739 43.0624 80.497 43.3173 80.2952 43.6504C79.9961 44.1442 79.4678 45.0931 79.4678 45.0931C79.4678 45.0931 78.7663 45.2197 78.6228 45.0539C78.3707 44.7134 79.2987 43.0099 79.7416 42.9606ZM81.4974 43.256C81.5742 43.255 81.669 43.2916 81.818 43.3461C82.4815 43.5904 83.633 44.0911 83.1343 44.4761C82.5437 44.9321 80.2577 45.1338 80.3692 44.9435L81.1352 43.6376C81.2978 43.3601 81.3694 43.2575 81.4974 43.256ZM74.4827 51.1582C74.4236 51.1612 74.3737 51.1743 74.335 51.1957C74.2022 51.269 74.5015 51.7617 74.9386 52.3198C76.956 54.852 74.1553 55.5975 72.1758 54.2407C70.2966 52.8813 67.391 53.0043 67.8075 54.4271C67.9544 54.9286 67.8097 55.1725 68.8599 55.1885C69.7934 55.2028 70.0342 55.2514 70.8747 55.7864C74.0891 57.8319 78.2526 55.1073 76.2269 52.1756C75.8445 51.6222 74.8965 51.1372 74.4827 51.1582ZM82.4169 55.1208C81.2482 55.1189 80.509 55.9257 81.9721 56.1699C87.1981 57.0484 83.6828 62.0672 80.0007 59.4724C76.6835 56.6872 72.2396 56.6993 72.1827 58.6717C72.174 59.1682 72.1987 59.1851 72.9859 59.3242C74.837 59.6515 77.6011 60.4366 78.6591 60.9331C79.2811 61.2251 79.9355 61.498 80.1139 61.5395C82.3267 62.2889 85.1683 61.3242 85.7335 59.5966C86.2507 58.0154 85.8407 55.1263 82.4169 55.1208ZM16.8119 71.1816C17.5118 71.1905 18.255 71.7593 18.7845 72.591C20.008 74.5129 21.4935 77.7436 22.4419 79.5243C22.681 79.9732 22.6896 80.3735 22.6741 80.5864C22.7468 81.6296 23.1236 82.0242 23.7922 81.5556C24.4498 81.0948 25.3625 80.3233 24.2937 80.1974C23.2203 79.445 22.6236 78.3414 23.2905 77.6712C23.7813 77.1778 23.5903 76.8565 23.1953 76.8358C21.6892 76.8128 19.4521 72.6562 20.5118 71.7633C21.9417 70.5586 23.5186 72.0562 26.8682 78.2432C28.3443 80.9755 28.4073 83.9633 27.1402 82.4812C26.7093 82.1076 26.7965 82.3009 26.2882 83.4755C25.9061 84.3586 25.5929 84.7771 24.1401 86.0675C22.3709 87.6388 21.2981 88.881 21.258 89.1537C21.1813 89.6749 22.212 89.1902 22.965 88.2835C24.6462 86.7666 24.7096 86.3616 24.6906 88.3759C24.6735 90.1977 24.5718 90.5304 24.9259 90.5187C25.4777 90.5003 25.7756 89.0596 26.0366 87.321C26.3472 85.7553 27.2267 84.9666 28.6899 84.0976C29.0915 83.8591 29.0987 83.6941 29.0228 83.0034C28.7572 80.7903 30.1222 76.6667 30.7383 77.6879C30.825 77.9177 31.0924 78.4547 31.235 78.8307C31.3495 79.4132 31.7437 80.071 32.3475 80.1161C33.097 80.6379 33.0939 80.9193 33.3504 82.8263C33.4342 83.4489 33.7295 84.3832 33.937 84.88C34.3234 85.8048 34.6694 86.3467 34.453 86.6221C34.3157 86.7577 34.0247 87.0131 34.0247 87.0131L21.7737 93.7177C21.7737 93.7177 20.812 94.2085 20.4642 94.3432C19.4936 94.7476 18.9046 94.4465 18.429 93.7736C15.8424 90.1895 14.0697 86.1647 12.2548 82.4524C11.1649 80.2488 12.2383 78.7944 13.6481 80.5718C14.196 81.2627 13.9143 81.7022 13.6384 83.0351C13.5885 83.2762 13.8305 83.1844 14.2845 83.2532C14.9995 83.1832 15.3432 83.7753 15.3151 84.7791C14.861 86.2167 15.4867 85.441 15.7823 85.3697C16.3479 85.3783 16.4728 85.6936 16.7886 86.2915C16.9848 87.1341 17.385 86.8908 17.9696 86.3359C18.4526 85.8773 18.4542 85.8886 17.4837 84.8109C15.8071 83.1212 13.4849 79.3089 12.8862 76.989C12.721 76.349 12.7825 75.8381 12.9093 75.4978C13.6713 73.915 14.7281 73.9113 15.8761 76.1255C16.0715 76.5023 16.4561 77.1097 16.7288 77.4765C17.1707 78.071 17.4443 78.5813 17.4275 79.5256C17.0853 80.3164 17.0299 80.3322 17.3239 80.4409C18.054 80.7098 19.35 81.9354 19.4063 83.0303C19.4635 84.1425 19.6655 84.7335 20.6108 84.0751C21.6887 83.3245 21.231 83.0211 20.1718 82.0547C19.062 80.8261 18.997 79.7624 19.6585 78.878C19.767 78.5811 19.7215 78.497 19.313 78.533C18.0212 78.6468 16.7685 77.1288 17.6684 75.9774C18.0828 75.3026 18.0347 75.1284 17.4511 75.1088C17.1469 75.0985 16.6447 75.1516 16.3974 75.0221C16.0169 74.3581 15.2214 73.4293 15.231 72.6702C15.6096 71.6034 16.1943 71.1738 16.8119 71.1816ZM93.5148 71.3623C95.6344 72.5719 97.7333 73.8308 100.117 74.4073C94.575 83.6218 85.6806 88.5496 78.242 90.4681C78.4928 91.649 78.67 92.8258 79.9009 93.5522C79.8593 93.3737 79.3172 91.2779 79.4377 90.8475C89.6848 88.4399 98.7187 79.1535 101.033 74.3616L146.047 73.9814C112.622 103.599 111.213 145.357 138.373 180.404L135.239 182.093C114.315 152.93 114.581 124.865 120.909 106.081C125.396 92.7629 133.421 82.5961 139.515 76.788C139.515 76.788 115.111 76.4376 102.963 76.8327C101.194 79.3323 99.5489 81.3733 97.1722 83.7318C97.1722 83.7318 103.354 78.2171 103.197 77.2578C114.454 77.2704 126.064 76.6863 137.305 77.4309C124.121 92.0037 117.609 107.06 116.457 121.231C116.412 123.075 116.293 122.044 115.634 122.721L113.552 125.705L111.893 122.597C110.762 122.256 108.535 122.799 107.591 122.481C102.927 141.614 107.561 164.722 113.623 179.807C113.623 179.807 112.092 180.599 110.211 180.462C108.152 180.035 107.647 180.561 105.863 180.894C103.81 181.252 103.094 181.249 102.638 181.729C102.385 181.996 101.928 182.368 101.41 182.628C96.4083 184.303 90.5311 190.604 90.5312 190.515L85.0324 188.217C90.1203 178.995 96.0778 175.683 106.547 171.604L105.582 167.478C94.4327 171.307 87.3335 175.902 81.7246 184.842C74.9398 184.742 47.4571 184.518 47.4283 184.598C58.6609 172.8 67.5326 154.99 68.5251 141.096C68.7672 138.389 68.3563 139.69 69.6492 138.884L71.6847 136.646L73.2739 138.857C73.2739 138.857 74.4252 140.22 75.1571 139.087C77.238 119.712 75.117 97.6119 65.0724 82.1934C66.8598 82.0869 68.64 82.0439 70.3501 82.9853C74.2745 91.2623 76.5772 101.484 77.5705 109.144C78.8277 118.841 78.6271 129.774 77.3106 139.057L77.9824 139.143C79.9685 127.08 79.3274 114.245 77.5464 103.024C76.6324 97.1705 73.6711 88.0133 71.6315 83.7849C71.0679 82.6164 70.6294 82.314 71.1662 82.1419C83.4438 81.2043 89.0935 77.4167 93.5148 71.3623ZM59.4758 72.3266C60.4149 72.3281 61.1748 73.035 61.1732 73.9054C61.1715 74.7759 60.409 75.4803 59.4699 75.4788C58.5308 75.4773 57.7709 74.7704 57.7725 73.8999C57.7742 73.0295 58.5368 72.325 59.4758 72.3266ZM151.74 73.278C148.14 76.2876 145.247 79.4079 142.207 82.7335C151.163 94.1911 161.116 106.612 169.486 116.537C169.486 116.537 172.393 114.947 172.381 114.748C172.375 114.644 172.15 114.116 172.097 114.233C171.972 114.508 169.743 115.659 169.743 115.659L143.255 83.3203C143.255 83.3203 144.697 81.7255 145.143 81.2234C147.207 80.5982 152.959 74.0174 153.24 74.1535C157.732 77.3543 171.27 90.9137 176.486 95.0722L176.481 132.649C175.938 134.151 161.466 139.922 151.212 161.521C146.071 164.18 140.379 165.606 135.083 167.917C135.083 167.917 136.426 169.883 137.084 170.421C136.278 168.801 136.136 168.492 137.969 167.804L176.213 153.426L176.136 156.342L175.506 161.376C165.094 167.304 156.312 169.781 141.981 178.725C140.958 178.944 140.133 179.853 139.056 179.9C102.584 129.922 126.03 92.3496 147.377 73.488L151.74 73.278ZM32.6563 75.6383C33.654 75.6552 33.3979 77.8 33.0275 78.541C32.2897 79.0765 31.5555 78.5986 31.5733 77.5949C31.5785 77.2676 31.5106 76.9584 31.4219 76.9057C30.8697 76.5775 31.7968 75.6252 32.6563 75.6383ZM54.9871 77.0146C55.8261 77.607 56.1356 78.3948 56.4441 79.1829C55.3109 79.0161 52.2785 78.2048 53.7031 77.5788L54.9871 77.0146ZM49.4583 79.7945C75.7622 116.809 74.5082 156.075 45.0181 185.793L82.2574 185.801C87.0138 177.139 94.9202 171.867 105.03 168.628L105.906 171.352C94.2872 174.789 88.4012 180.508 83.7135 188.437L39.3014 188.365C56.3968 171.374 64.2409 157.011 65.5078 137.566C66.7142 119.047 61.6627 102.124 46.2627 81.7477L49.4583 79.7945ZM56.8901 80.2313L63.1059 82.9641L62.1733 88.8801L55.6623 86.0854L56.8901 80.2313ZM45.6719 81.8742C78.8463 128.568 64.5187 161.352 37.9111 188.613L33.0187 188.68L21.6338 178.842L21.7302 238.513C21.7302 238.513 10.5926 248.591 9.3128 249.799C8.04849 250.923 7.10453 249.191 7.10453 249.191L7.28402 170.089L7.78366 166.989L7.96848 149.945L15.0614 146.493L41.5746 178.822C41.5746 178.822 40.5043 180.279 40.0084 180.537C39.686 180.705 39.9213 180.995 40.1909 180.962C40.9372 180.873 43.0709 178.67 42.6242 178.314C33.0053 167.229 15.1243 145.525 15.1243 145.525L7.6544 149.123C7.6544 149.123 7.89715 134.972 7.77272 129.54C8.06174 128.259 9.09753 128.604 9.79661 128.033C18.4003 122.927 24.4681 116.687 28.2174 110.631C28.493 110.179 30.1523 107.46 30.3161 107.213C30.9007 106.334 32.3521 103.582 33.1975 101.824C33.67 100.842 34.1727 99.6518 34.3626 99.5093C39.5364 97.957 44.9683 95.7503 50.1651 93.7684L42.7063 83.3511L45.6719 81.8742ZM25.2873 82.4358C25.0067 82.4315 24.2923 82.7311 23.3252 83.5415C21.5399 85.0378 19.1864 87.4972 19.1781 87.9659C19.6559 88.1266 20.0796 87.8725 20.4618 87.5149C21.9565 85.4774 24.2631 84.6834 25.6173 82.8988C25.8279 82.5687 25.6068 82.4322 25.2873 82.4358ZM42.037 84.6288C42.037 84.6288 47.1841 91.6058 48.501 93.4589C34.8934 98.4278 20.6518 104.997 8.04003 109.24L8.04529 106.446L10.0452 101.433L42.037 84.6288ZM62.2591 89.2672L67.3403 91.7104L65.8946 97.0263L60.7681 94.3565L62.2591 89.2672ZM66.4373 98.1219L70.6115 100.951L68.694 105.459L64.489 102.767L66.4373 98.1219ZM32.3278 101.375C32.3278 101.375 31.6798 103.465 30.5946 105.336C25.4067 113.657 20.3321 121.051 9.86387 127.462C9.46648 127.133 8.33054 125.284 8.33054 125.284L8.23338 122.816C13.7846 118.697 18.5746 115.675 25.9398 103.573L28.0693 102.774L29.8802 103.504L31.1109 101.477L32.3278 101.375ZM54.0808 101.429C49.2442 110.897 44.4843 120.663 36.7932 128.034L57.7517 155.254C64.701 136.071 62.1684 118.077 54.0808 101.429ZM27.6404 103.453L26.6293 105.07L28.3737 106.007L29.3848 104.39L27.6404 103.453ZM24.7892 103.623C20.9678 111.505 15.2433 117.566 7.73617 121.919L7.46778 110.343L24.7892 103.623ZM26.1236 105.98L25.1126 107.597L26.857 108.534L27.868 106.917L26.1236 105.98ZM69.0639 106.389L72.8451 109.727L70.5881 113.399L66.7094 110.415L69.0639 106.389ZM127.086 108.12C127.081 108.122 127.078 108.126 127.076 108.13C120.383 127.297 122.347 145.618 131.45 161.578C135.95 151.25 139.641 144.339 148.409 133.349C143.035 126.803 127.627 107.914 127.086 108.12ZM24.6328 108.261L23.5709 109.85L25.2847 110.834L26.3466 109.246L24.6328 108.261ZM53.6716 110.545C59.6472 123.851 59.0955 135.839 55.8851 146.224L40.9309 128.65C46.4335 122.341 50.0913 116.365 53.6716 110.545ZM23.0809 110.543L21.9428 112.084L23.6055 113.144L24.7436 111.598L23.0809 110.543ZM21.4019 112.748L20.157 114.223L21.7431 115.377L22.9881 113.902L21.4019 112.748ZM70.7746 114.4L74.1645 117.392L72.014 121.263L68.573 118.336L70.7746 114.4ZM19.4376 115.043L18.1317 116.462L19.6617 117.672L20.9677 116.254L19.4376 115.043ZM128.909 115.64L143.995 133.748C138.927 139.319 134.712 145.886 130.942 152.966C126.752 140.723 124.873 128.698 128.909 115.64ZM17.3105 117.291L15.9131 118.638L17.3666 119.934L18.764 118.586L17.3105 117.291ZM52.627 119.155L45.6912 128.417L53.605 137.815C54.468 132.736 54.6708 126.838 52.627 119.155ZM15.0513 119.397L13.5624 120.659L14.9242 122.039L16.4131 120.777L15.0513 119.397ZM12.864 121.2L11.2938 122.378L12.5637 123.833L14.1288 122.656L12.864 121.2ZM71.951 122.254L74.7859 125.335L71.8985 128.497L69.2057 125.68L71.951 122.254ZM108.064 122.864L109.993 122.934C106.774 151.86 112.966 166.509 118.445 179.249C118.445 179.249 118.431 179.759 118.245 179.909C117.348 180.194 115.534 180.5 114.082 179.312C106.712 161.663 105.138 139.934 108.064 122.864ZM10.3201 123.079L8.68391 124.171L9.86212 125.688L11.4983 124.596L10.3201 123.079ZM131.245 124.303C130.754 124.303 130.305 136.205 132.143 142.02L139.119 133.292L131.245 124.303ZM113.25 126.237L115.571 129.139L113.096 132.254L110.577 129.296L113.25 126.237ZM8.42431 126.856C8.54103 126.839 8.73189 127.141 9.10549 127.381C9.45256 127.718 9.40247 127.693 9.01273 127.98C8.40335 128.429 8.22202 128.356 8.23445 127.653C8.28781 127.075 8.33353 126.869 8.42431 126.856ZM72.0755 129.134L74.6399 132.55L71.7878 135.938L69.3611 132.362L72.0755 129.134ZM113.033 133.523L115.736 136.585L113.403 139.937L110.451 136.728L113.033 133.523ZM175.74 134.271L175.973 137.796L175.039 136.507L173.316 137.726L174.514 139.205L176.018 138.122L176.107 139.543C166.557 145.917 162.429 153.249 158.548 158.748L156.826 159.42L154.867 158.842L153.907 160.411L152.242 160.772C152.191 160.763 155.597 154.031 161.416 147.182C166.597 141.084 175.713 134.215 175.74 134.271ZM176.835 139.789L176.892 152.323L159.811 158.407C164.255 151.417 169.491 144.932 176.835 139.789ZM172.597 138.258L171.037 139.44L172.378 140.872L173.933 139.69L172.597 138.258ZM170.195 140.142L168.691 141.38L170.089 142.765L171.593 141.517L170.195 140.142ZM113.193 140.743L116.404 143.924L114.04 147.672L110.696 144.689L113.193 140.743ZM167.768 142.167L166.356 143.5L167.896 144.876L169.308 143.543L167.768 142.167ZM165.545 144.273L164.188 145.658L165.825 146.977L167.182 145.592L165.545 144.273ZM163.311 146.633L162.05 148.094L163.754 149.319L165.014 147.854L163.311 146.633ZM114.282 148.8L118.299 151.227L116.326 155.66L112.315 152.818L114.282 148.8ZM161.362 148.895L160.178 150.413L161.993 151.567L163.192 149.998L161.362 148.895ZM159.54 151.289L158.442 152.859L160.278 153.957L161.37 152.335L159.54 151.289ZM157.911 153.66L156.9 155.277L158.802 156.286L159.813 154.65L157.911 153.66ZM156.441 156.112L155.43 157.729L157.536 158.577L158.373 157.035L156.441 156.112ZM116.445 157.048L120.559 159.64L118.728 164.285L114.386 161.428L116.445 157.048ZM176.157 161.717L176.18 257.36L130.836 257.433C130.836 257.433 128.723 253.971 124.301 245.974C122.429 242.588 120.843 241.149 120.685 238.47C120.858 236.897 120.077 235.111 118.687 234.389C118.221 234.147 117.438 234.438 117.701 233.765C117.99 233.025 117.11 231.883 116.87 231.64C116.596 231.211 116.768 231.107 116.742 229.512C116.716 227.97 116.629 227.325 116.275 226.16C115.379 223.218 115.182 221.748 115.7 220.223C117.047 216.357 118.449 213.392 120.261 209.788C121.315 207.678 121.156 206.853 117.938 205.315C115.528 204.163 115.207 204.175 115.515 202.499C115.659 201.713 115.792 201.218 115.615 200.838C115.506 200.606 115.107 200.282 114.873 200.096C114.558 199.846 114.654 199.331 114.977 198.949C115.293 198.574 115.297 198.038 114.985 197.142C114.33 195.258 115.826 192.765 118.647 191.046C119.894 190.286 119.859 190.444 121.155 191.711C124.945 195.413 130.59 193.1 130.611 187.89C130.617 186.266 130.02 186.361 131.679 185.598C137.302 182.294 148.843 176.287 148.766 176.452C149.514 177.872 149.763 179.083 150.235 180.612C150.642 181.922 150.588 182.022 150.431 184.571C150.288 186.875 150.212 187.41 150.797 187.559C154.123 187.904 154.885 186.814 155.526 184.825C155.803 183.946 156.334 184.125 156.662 184.496C157.924 186.634 159.521 188.858 160.571 190.378C161.882 192.318 164.095 193.286 165.256 192.372C165.501 191.619 165.702 191.596 167.171 191.908C168.952 192.286 169.969 191.363 170.142 190.148C170.211 189.663 169.83 189.683 170.785 189.205C173.155 187.585 172.257 185.366 171.905 184.03C171.935 184.101 172.917 183.479 172.942 182.229C173.067 175.739 167.016 166.382 167.152 166.624L176.157 161.717ZM118.899 165.362L123.711 167.526L122.565 172.856L117.621 170.786L118.899 165.362ZM165.756 167.419C168.523 170.405 170.52 175.378 171.548 178.617C172.056 180.231 172.115 182.071 171.659 182.326C171.208 182.578 170.998 182.307 171.085 181.344C171.157 180.541 171.184 179.92 170.813 179.928C169.736 180.184 169.697 178.672 169.808 178.317C169.882 178.08 170.015 177.913 170.074 177.784C170.34 177.199 169.647 177.277 168.929 177.268C168.294 177.281 168.131 176.923 168.162 176.366C168.145 175.747 167.261 175.866 166.757 176.335C166.297 176.763 166.392 177.269 167.014 177.624C167.908 178.133 168.751 179.382 170.826 183.689C172.031 186.189 171.669 187.962 170.228 187.94C169.228 187.911 168.068 185.371 167.131 183.499C166.888 183.015 167.499 182.476 167.713 182.216C168.268 181.544 168.184 181.332 167.364 181.319C166.595 181.307 166.269 181.37 165.808 180.491C165.634 180.16 165.508 179.655 165.57 179.334C165.968 178.366 165.155 178.131 164.366 178.502C163.37 178.885 163.376 179.707 164.89 181.056C165.864 182.543 165.609 182.439 164.682 183.438C164.488 183.791 164.604 184.008 165.012 184.015C166.186 183.684 167.46 185.645 167.11 186.316C166.75 186.604 165.765 187.647 166.716 187.448C168.649 186.964 169.82 189.588 168.68 190.476C166.981 191.262 166.58 191.015 163.974 186.169C163.165 184.665 162.191 183.048 162.071 182.882C161.952 182.716 161.899 182.272 161.905 181.914C162.021 181.039 161.618 180.839 160.797 181.186C160.18 181.322 159.623 181.79 160.403 182.237C161.312 183.697 161.634 183.932 161.132 184.301C159.991 185.14 160.485 185.107 161.761 185.345C162.386 185.52 162.703 185.819 162.875 186.177C163.532 187.551 164.697 189.49 164.812 189.884C165.197 190.892 164.498 191.343 163.542 191.298C162.542 191.319 162.085 190.586 161.6 189.96C159.786 187.614 158.481 185.291 156.63 182.628L156.884 180.141C156.884 180.141 157.37 180.24 157.643 180.119C158.177 179.882 158.496 179.105 158.802 178.073C159.292 177.175 162.175 175.137 163.279 174.041C163.483 173.917 163.654 173.712 163.657 173.588C163.651 173.186 162.408 173.453 161.589 174.321C160.386 175.307 159.874 174.968 159.915 173.705C159.8 172.145 158.772 172.925 158.717 174.449C158.583 175.652 158.131 176.384 157.221 177.056C155.504 178.324 155.79 178.002 155.867 179.767C156 182.844 154.714 185.373 153.879 183.694C153.582 183.098 153.235 182.421 152.486 182.39C151.956 182.368 151.695 181.885 151.405 180.694C150.975 178.767 150.371 177.526 149.821 175.751L165.756 167.419ZM123.057 173.98L128.602 176.037L127.553 181.415L122.059 179.457L123.057 173.98ZM165.366 174.544C165.328 174.546 165.285 174.555 165.238 174.572C163.673 175.665 162.229 176.891 160.523 177.83C159.884 178.179 159.136 179.082 159.131 179.324C159.126 179.559 159.889 179.555 160.633 179.255C161.339 178.971 165.37 175.475 165.375 175.153C165.653 174.87 165.626 174.529 165.366 174.544ZM114.4 180.993C115.712 180.992 114.946 181.352 112.079 183.188C109.281 184.981 104.663 190.656 104.125 192.764C103.88 193.721 104.535 193.796 105.276 192.483C108.68 186.442 115.11 180.928 120.987 181.183C123.866 181.308 125.42 182.03 123.036 182.342C116.502 183.075 111.612 186.52 107.325 193.397C107.322 193.551 107.713 193.544 108.161 193.28C112.081 188.853 116.499 182.989 124.241 183.477C129.825 183.797 131.4 189.956 126.76 192.05C122.715 193.876 118.996 189.408 122.351 186.767C123.44 185.91 124.119 186.288 123.073 187.165C120.828 189.047 123.569 192.409 126.303 191.139C127.967 190.496 128.644 188.292 127.182 186.624C123.93 182.915 116.905 185.72 112.002 191.696C111.488 192.325 111.041 193.691 111.474 193.545C112.234 193.256 112.694 192.705 113.142 192.085C114.892 189.843 116.236 188.719 118.603 187.516C120.431 186.587 120.543 186.762 119.858 188.377C119.57 189.058 119.339 189.284 118.629 189.706C115.647 191.587 113.792 194.11 113.715 195.719C113.659 196.894 114.584 198.431 113.577 198.744C111.87 199.488 107.217 198.871 105.964 197.382C105.062 196.311 104.711 196.93 105.386 198.669C105.832 199.818 105.812 200.467 106.488 200.351C107.343 199.933 107.93 200.032 109.587 200.875C110.386 201.281 111.802 201.661 112.665 201.848C114.238 202.187 114.568 202.045 114.532 202.676C114.521 202.87 114.592 203.414 114.545 203.757C114.286 205.658 115.998 206.308 118.331 207.562C119.694 208.294 119.154 209.045 117.568 212.662C116.744 214.298 116.038 216.499 115.022 218.16C114.072 220.026 113.987 222.071 114.593 224.402C115.717 228.73 116.528 230.929 114.509 231.315C109.311 232.036 97.8334 231.987 91.5723 229.745C89.9905 218.594 81.5294 202.039 82.6269 197.764C84.7945 200.805 93.9097 200.016 91.181 191.521C91.181 191.521 91.9295 190.486 93.4153 189.094C97.2473 185.504 98.1924 184.91 96.3699 188.075C94.9688 190.508 93.1819 193.683 93.1408 194.299C93.1081 194.789 93.5205 194.904 93.843 194.512C94.082 194.222 94.3662 193.516 94.6145 192.98C96.9034 188.036 100.809 183.583 103.497 182.513C104.19 182.238 104.154 182.533 103.674 183.075C100.507 186.715 98.0873 190.082 96.3629 194.479C96.2858 194.932 96.98 195.123 97.2025 194.692C100.178 188.938 101.067 187.633 104.717 183.582C106.152 181.99 107.486 181.187 108.55 181.276C109.47 181.353 109.197 181.493 108.344 182.333C107.692 182.974 106.73 183.867 105.171 185.678C102.423 188.872 99.6552 194.072 100.671 193.801C100.845 194.235 101.713 192.853 102.447 191.534C104.457 188.419 106.593 184.301 111.358 181.598C112.353 181.218 113.44 181.001 114.4 180.993ZM22.3459 181.849L30.8073 189.715L47.8568 189.54C45.0375 193.585 46.5272 199.865 48.0697 203.536C51.0937 210.733 55.5234 222.614 55.1962 222.787C55.1962 222.787 52.716 223.373 52.4892 224.83C52.153 226.99 53.1635 226.831 51.7028 228.779C51.3743 229.217 51.5836 230.046 51.9334 230.704C52.1637 231.187 52.3831 231.914 51.9504 232.479L36.8654 257.323L8.32614 257.404L8.3355 252.431L22.6506 239.043L22.4961 229.175C30.2862 231.335 32.9487 238.794 33.6063 244.317C47.7075 232.431 47.3933 214.5 34.1113 203.23C31.4956 215.115 22.2026 217.57 22.4064 217.335L22.3459 181.849ZM128.369 183.431C129.281 183.494 130.512 183.632 131.346 184.05C130.78 184.363 130.377 184.735 130 185.119C129.545 184.367 128.93 183.956 128.369 183.431ZM152.001 183.555C152.76 183.553 153.688 185.614 153.151 186.095C152.849 186.366 151.871 186.467 151.522 186.262C151.075 185.954 151.308 183.556 152.001 183.555ZM125.104 187.083C126.083 187.085 126.875 187.821 126.873 188.728C126.871 189.635 126.077 190.369 125.098 190.368C124.12 190.366 123.328 189.63 123.33 188.723C123.331 187.816 124.126 187.082 125.104 187.083ZM50.1176 189.303L51.3953 189.333C49.0672 192.208 48.7494 194.685 49.5661 198.277C50.4846 202.319 57.5192 217.518 57.9677 221.701C57.988 221.89 58.007 222.423 58.007 222.423L56.2709 222.529C56.2709 222.529 56.142 222.096 56.0887 221.929C53.6736 214.353 51.2667 208.574 49.5856 204.157C47.9111 199.394 45.3471 192.332 50.1176 189.303ZM59.454 189.346C59.4661 189.344 59.4761 189.348 59.4846 189.351L60.7114 189.362C60.6661 189.387 58.8731 192.934 58.7407 195.088C58.5905 197.529 59.2223 200.189 60.0905 202.815C62.1412 208.496 65.1466 214.824 66.8099 221.994C66.8292 222.077 67.012 222.773 67.012 222.773L65.195 222.543C65.195 222.543 65.0181 221.809 64.9981 221.708C63.755 215.402 60.2676 208.85 58.1919 202.642C57.1277 199.82 56.3908 196.351 56.7782 193.702C57.0516 191.833 59.0799 189.382 59.454 189.346ZM74.2937 189.384C72.9906 191.247 71.8032 193.583 71.7165 195.415C71.6351 198.825 72.7014 201.705 73.7659 204.72C77.0434 214 78.6327 218.896 80.2669 226.338L78.517 225.642C78.517 225.642 78.4496 225.224 78.4111 225.104C77.4843 220.444 77.4244 220.85 71.9578 205.175C70.6769 201.412 69.4557 198.113 69.7014 194.983C69.7592 193.199 71.4446 189.671 73.2144 189.392L74.2937 189.384ZM76.3962 189.388L78.0303 189.39C78.0303 189.39 77.1288 190.272 76.8673 190.601C74.0059 194.267 74.8245 198.206 76.2333 202.902C78.1716 209.365 81.7642 216.594 83.6317 226.443C83.6663 226.625 83.6296 227.575 83.6296 227.575L81.6863 226.845C79.9364 217.815 75.5949 208.448 73.5094 200.326C72.2831 195.557 72.6403 192.544 75.4991 189.952C76.2153 189.441 76.3962 189.388 76.3962 189.388ZM56.4554 189.407L57.6772 189.409C57.6772 189.409 55.6283 192.516 55.6265 194.347C55.2789 197.623 56.5521 201.246 58.0143 205.043C60.2616 210.879 63.2333 217.936 64.1429 221.65C64.1787 221.796 64.2992 222.462 64.2992 222.462L62.1664 222.354C62.1664 222.354 62.0562 221.456 61.9296 221.042C59.4829 213.056 57.0947 207.889 54.2809 200.597C53.8551 199.493 53.1801 195.131 53.9911 192.305C54.6277 190.088 56.4554 189.407 56.4554 189.407ZM53.182 189.407L54.5005 189.442C54.5005 189.442 54.3017 189.773 53.7958 190.573C51.3824 194.607 52.4536 198.294 53.9365 202.404C55.9151 207.887 59.025 214.583 60.9626 220.918C61.0718 221.275 61.2195 222.353 61.2195 222.353L59.3156 222.326C59.3156 222.326 58.9312 221.036 58.9059 220.896C57.8459 215.024 52.077 205.232 50.5852 197.783C49.7672 193.788 50.4812 191.315 53.182 189.407ZM70.842 189.435C70.842 189.435 68.7553 192.775 68.5617 194.636C68.1821 198.287 69.4259 201.312 70.8475 205.432C73.3003 212.541 76.7645 220.884 77.0679 224.695C77.0779 224.821 77.1278 225.285 77.1278 225.285L74.9859 224.574C74.9859 224.574 74.8906 224.176 74.8495 224.036C72.9944 217.137 70.7986 210.266 67.8443 202.521C67.117 199.908 66.1609 197.279 66.2497 195.034C66.6904 192.037 67.2423 191.229 69.1722 189.456L70.842 189.435ZM80.2701 189.455L81.9959 189.491C81.9959 189.491 81.4799 189.746 80.247 190.96C73.4279 196.716 84.4433 213.016 86.9636 227.845C86.9912 228.004 87.0691 228.562 87.0691 228.562L85.1714 227.927C84.9931 227.188 84.8598 226.289 84.6415 225.482C82.5916 217.9 79.8521 210.103 77.3377 203.031C75.9293 197.879 75.4196 193.342 77.9716 190.81C78.7712 189.936 80.2701 189.455 80.2701 189.455ZM62.5185 189.436L64.3562 189.486C63.0251 191.027 62.2413 193.431 62.1659 195.57C62.0902 198.1 62.8156 200.561 63.7094 203.165C65.5425 208.506 68.1634 214.312 69.9569 221.517C70.058 221.995 70.1426 222.301 70.1892 222.509C70.2632 222.839 70.4676 223.363 70.4676 223.363L68.5287 223.002C68.5287 223.002 68.3293 222.535 68.1991 222.289C68.0037 221.919 67.8257 221.449 67.6672 220.886C66.7351 217.127 63.2942 208.596 61.2006 202.613C59.5385 198.843 59.0961 192.257 62.5185 189.436ZM85.4626 189.539C87.8134 189.463 89.9354 191.315 90.4348 193.053C90.9192 194.899 90.2908 196.98 88.099 198.004C84.5448 199.666 80.7303 195.224 83.5373 192.787C85.6647 190.94 88.8039 192.315 88.1154 194.682C87.6714 196.223 85.1484 196.319 84.735 194.762C84.6218 194.243 84.3423 193.726 84.1408 194.01C82.8296 196.851 87.2172 198.189 89.0454 195.547C90.1306 193.429 88.0775 190.695 85.0471 191.209C80.8922 191.914 80.405 196.799 82.119 202.501C84.508 211.513 90.2244 223.638 90.2038 229.2C90.2037 229.273 90.2236 229.502 90.2236 229.502L88.4021 228.994C88.4021 228.994 88.3897 228.9 88.377 228.819C87.2988 221.05 81.0987 208.18 79.3321 198.292C78.5668 193.783 80.4672 190.515 84.7294 189.627C84.9759 189.576 85.2194 189.547 85.4626 189.539ZM67.4411 189.581C66.1597 191.162 65.3197 193.541 65.277 195.24C65.2337 197.728 66.1926 200.153 66.9836 202.746C68.9855 209.148 73.6677 220.972 73.4919 223.184C73.5404 223.422 73.6682 224.157 73.6682 224.157L71.8517 223.653C71.8517 223.653 71.7796 223.547 71.6438 223.243C71.0423 221.045 68.1786 211.629 64.9662 203.488C63.7305 200.214 63.1309 197.665 63.2198 195.496C63.4878 192.504 64.4145 191.256 65.8324 189.592L67.4411 189.581ZM102.028 200.245C97.317 200.486 97.7604 205.81 100.677 206.717C101.721 206.985 102.334 206.756 102.5 206.545C102.689 206.306 102.479 205.939 101.794 205.846C99.8144 205.24 99.1108 203.077 100.901 202.174C101.878 201.701 103.437 202.009 105.316 203.303C108.673 205.616 112.793 205.767 112.26 203.432C112.131 202.866 111.867 202.789 109.406 202.474C107.407 202.219 106.507 201.631 105.636 201.194C104.263 200.505 103.053 200.218 102.028 200.245ZM34.5761 205.086C46.7255 216.123 44.8894 233.387 34.4761 242.016C34.2635 241.317 33.8124 239.607 33.7627 239.655C41.5959 232.126 45.3018 219.77 34.0073 207.081C34.0659 207.129 34.2607 206.167 34.5761 205.086ZM110.851 205.502C110.736 205.504 110.635 205.515 110.545 205.544C107.392 206.338 106.733 209.224 108.775 210.415C110.026 211.146 110.99 210.701 109.433 209.817C108.098 209.06 108.761 207.076 110.38 207.101C111.087 207.112 111.568 207.397 113.365 208.63C114.844 209.644 116.238 209.727 116.557 208.356C116.748 207.539 116.453 207.175 115.511 207.387C115.094 207.481 114.849 207.255 114.285 206.89C113.029 206.078 111.656 205.486 110.851 205.502ZM33.3141 207.538C44.2621 219.358 40.7172 231.662 33.306 238.862C31.2854 233.302 26.313 229.828 26.313 229.828C28.1964 225.972 29.3227 221.944 25.8233 216.85C29.0927 214.121 31.8038 211.121 33.3141 207.538ZM104.582 211.961C104.067 211.952 104.234 212.412 105.445 213.199C108.333 215.027 108.58 215.356 105.777 215.309C105.067 215.269 103.953 215.734 103.322 215.928C99.6624 217.053 99.4858 216.963 97.7366 216.579C97.1534 216.452 96.5624 216.225 96.3063 216.44C95.9105 216.773 95.4667 216.993 95.9632 217.492C96.3252 217.855 96.9996 218.134 97.8194 218.571C102.062 220.833 102.447 221.374 107.441 221.503C108.012 221.518 108.307 221.243 108.642 221.24C109.458 221.233 109.885 221.418 110.708 222.117C112.214 223.396 112.287 222.468 111.392 220.792C110.923 219.913 110.512 219.703 110.744 219.035C111.273 217.513 110.524 217.209 109.538 218.557C108.8 219.612 108.716 219.587 108.022 218.229C107.101 216.532 107.537 215.75 108.936 216.857C109.996 217.696 110.268 217.074 110.683 216.412C111.228 215.541 111.147 214.759 110.177 214.825C109.619 214.863 109.098 214.625 108.661 214.181C107.804 213.311 106.159 212.219 104.582 211.961ZM105.775 216.55C105.89 216.556 105.97 216.6 106.009 216.711C106.017 217.269 105.602 218.409 105.261 219.008C105.152 219.274 104.966 219.307 104.706 219.356C103.83 219.504 103.769 219.253 103.928 218.751C104.25 217.975 104.518 216.871 105.648 216.554C105.695 216.55 105.737 216.548 105.775 216.55ZM103.55 216.933C103.904 216.91 103.915 217.046 103.773 217.344C103.519 217.847 103.073 218.322 102.742 218.716C102.039 219.135 100.899 217.847 101.405 217.515C102.111 217.258 102.641 216.993 103.376 216.952C103.442 216.942 103.499 216.937 103.55 216.933ZM24.9614 217.646C25.1503 217.646 25.343 217.682 25.5415 217.76C28.19 221.086 27.9996 226.142 25.9329 228.935C25.7788 229.144 25.6219 229.181 25.3624 229.1C24.4761 228.611 23.3495 228.429 22.5082 228.146L22.5265 218.421C23.3938 218.252 24.1429 217.643 24.9614 217.646ZM94.9176 218.552C94.7149 218.56 94.6302 218.688 94.8864 218.934C98.7526 221.537 104.074 224.555 108.99 223.398C109.441 223.308 109.805 223.08 109.719 222.648C109.666 222.38 109.167 222.147 108.625 222.279C107.498 222.552 105.337 222.584 104.45 222.451C101.072 221.932 98.0914 219.924 95.4976 218.746C95.3053 218.61 95.0753 218.546 94.9176 218.552ZM93.7828 221.028C93.6098 221.02 93.6228 221.18 93.731 221.481C94.2731 222.985 99.7445 226.499 104.069 227.665C107.782 228.666 113.12 227.696 112.813 226.06C112.653 225.207 111.978 225.002 109.607 225.277C104.386 226.208 99.3658 224.222 95.5576 222.017C94.5312 221.415 94.0052 221.037 93.7828 221.028ZM59.5993 223.03C61.8789 223.008 64.1388 223.183 66.5829 223.565C71.3374 224.325 76.8468 225.699 81.5065 227.709C89.4263 230.479 99.3865 232.622 107.843 232.347C109.907 232.404 113.637 232.247 114.36 232.028C116.245 231.639 116.766 232.011 117.211 234.179C117.29 234.651 117.447 234.788 118.1 235.2C119.101 235.83 118.932 236.451 118.808 237.839C118.704 239.007 119.463 239.663 122.506 244.89C125.969 250.839 129.344 257.751 129.344 257.751C98.8924 257.682 69.8421 256.588 38.6826 257.435C41.4964 251.281 49.1577 240.187 53.9625 231.28C52.8098 228.535 54.2406 228.071 53.6419 227.42C52.675 225.894 53.3788 223.756 55.4295 223.278C56.8579 223.128 58.2316 223.043 59.5993 223.03Z" fill="#131F67"/>
<path id="path3997" d="M39.0377 257.627C39.0377 257.627 49.0519 238.943 53.267 233.347C59.3298 226.249 86.6148 236.491 100.189 239.061C105.706 240.056 118.501 239.614 118.501 239.614L129.161 257.498L39.0377 257.627ZM18.3563 236.346L18.043 178.13L21.1641 179.942L21.77 238.419L8.24309 250.383L8.17546 246.871L18.3563 236.346ZM26.5423 229.716C29.77 223.721 26.1931 216.387 26.1936 216.39C28.0582 216.819 33.2748 207.683 33.7362 207.947C41.6758 217.005 43.0296 230.485 33.2923 238.821C30.8493 233.011 26.5739 229.716 26.5423 229.716ZM32.5589 188.553C38.6153 182.836 43.418 178.383 48.222 171.982C48.6154 171.461 22.7732 140.925 23.177 140.392C27.1801 136.305 32.5414 133.306 36.7176 128.371C36.7176 128.371 57.9091 154.178 58.3982 153.952C60.5655 145.89 62.1551 138.59 61.7602 130.159C60.4902 108.588 50.571 95.3668 50.4936 95.6264C47.094 115.438 13.9904 145.402 7.48772 143.253L7.47711 129.404C7.86929 130.097 28.4359 117.186 33.8851 100.087C34.2765 98.8588 50.2253 94.1565 50.114 93.9755C49.4427 92.3685 42.4869 83.2133 42.4869 83.2133C42.4869 83.2133 45.3059 82.0016 45.6187 82.0064C54.6382 92.4392 61.4332 106.175 63.7295 119.248C66.519 133.329 68.2899 159.794 37.7838 188.646L32.5589 188.553ZM123.917 152.284C119.178 138.567 119.334 124.374 121.544 114.468C124.921 96.5165 137.189 83.6786 147.027 73.8901L151.286 73.8988C151.286 73.8988 146.184 78.7759 144.328 80.5506C141.141 83.9274 136.521 90.9749 136.521 90.9749L161.875 121.806L176.366 118.928C176.366 118.928 175.903 132.701 176.352 132.702C165.078 141.321 156.973 149.125 151.142 161.7C147.58 162.915 135.77 167.612 135.77 167.612C130.162 166.332 152.526 133.955 148.286 133.399C146.541 132.06 127.241 107.839 126.864 107.888C117.898 133.182 126.548 159.774 142.202 178.362C140.419 179.429 138.806 180.259 138.954 180.008C132.25 171.355 126.381 161.028 123.917 152.284ZM77.5155 139.52C78.5182 140.964 83.1003 108.642 71.266 82.7446C72.3982 81.9521 82.2046 80.2297 82.2046 80.2297L84.8285 87.9823L78.1361 90.5962L79.3638 94.2303C84.5594 91.9046 95.8084 88.477 102.744 77.84C102.744 77.84 136.347 77.6271 137.062 77.6837C137.759 77.739 130.196 84.4338 123.01 97.9999C119.727 104.196 117.11 112.217 116.55 121.631C116.439 123.491 108.878 112.872 108.878 112.872C110.785 103.913 115.855 95.0985 120.908 86.2835C120.908 86.2835 113.181 85.8638 107.783 86.0014C99.3715 94.4917 94.0991 98.9651 81.434 103.006C86.0244 116.719 114.248 123.353 107.971 122.09C106.688 121.808 105.038 134.686 106.37 149.201C106.61 160.807 113.31 180.163 113.547 180.007C113.547 180.007 109.055 180.937 108.696 180.269C109.454 180.102 102.013 181.835 102.013 181.835L99.3667 174.621L106.57 171.563L105.414 167.491C105.386 167.494 89.5226 171.913 81.7328 184.72L47.0042 184.701C60.423 171.252 65.9108 157.937 68.8529 140.326C71.6935 140.803 77.5155 139.52 77.5155 139.52ZM163.144 23.3568C167.517 19.9768 176.298 11.1709 176.298 11.1709L176.404 15.6901L166.439 25.2621L166.428 84.4602L163.069 81.4655L163.144 23.3568ZM158.507 45.0161C156.714 45.8042 153.136 49.6894 151.426 54.0586C139.921 44.497 144.699 26.9672 151.014 23.3265C152.837 27.1588 158.128 32.244 158.006 32.1372C156.78 36.1449 155.839 40.2108 158.507 45.0161ZM56.5558 5.11055L145.427 5.39886C140.34 14.6428 135.675 22.1142 130.27 31.2139C127.461 34.3444 66.7958 20.988 66.5083 22.3082L56.5558 5.11055Z" fill="#E2CF00"/>
<path id="path3993" d="M8.06265 245.793L7.61612 168.062L17.7011 177.175L18.1885 236.868L8.06265 245.793ZM54.4446 230.805C52.3532 231.098 53.54 229.305 53.9253 227.601C54.1399 226.651 53.1496 225.755 53.1548 225.465C53.1847 223.778 54.5496 223.068 60.729 223.144C75.2962 224.105 82.8197 228.44 91.1728 230.463C99.172 232.401 107.105 232.375 115.937 232.2C116.582 232.547 118.939 238.202 118.498 238.767C98.5139 242.384 73.0473 228.748 54.4446 230.805ZM90.5258 190.614C88.4236 189.197 86.4486 188.932 84.4967 188.622C87.9332 183.041 92.0919 177.958 99.0274 174.783L102.238 182.183C98.1589 184.119 94.1536 186.424 90.5258 190.614ZM48.4762 171.342C48.4762 171.342 45.4776 175.868 42.6516 178.067C34.2814 167.627 15.5633 145.395 15.5633 145.395L7.59551 149.118C7.59551 149.118 7.57225 144.82 7.7527 144.52C29.2735 134.285 44.0632 114.898 50.5942 96.7317C50.5942 96.7317 54.0497 100.012 53.5919 101.396C47.7512 115.724 37.7827 130.087 23.1433 140.847L48.4762 171.342ZM75.3324 150.233L102.477 150.312L103.662 159.061C93.2621 162.273 84.6716 168.854 76.6365 176.469L63.7619 176.24C67.9992 167.675 73.8801 158.988 75.3324 150.233ZM175.899 113.545C176.772 116.013 175.883 118.671 176.22 118.56C143.678 133.413 134.325 166.112 134.325 166.112C134.325 166.112 131.247 161.577 131.389 160.876C148.283 126.232 159.545 125.218 161.715 121.456L136.177 90.71L141.98 83.4206L169.372 116.579C172.103 115.419 173.66 114.445 175.899 113.545ZM159.783 158.374C165.313 149.192 171.011 143.858 176.684 140.191L176.386 152.321L159.783 158.374ZM7.84241 122.053L8.006 110.286L24.7665 103.632C20.1181 112.981 13.8228 117.985 7.84241 122.053ZM82.4752 111.594L81.5005 103.315C91.6751 99.2208 100.668 93.7376 107.933 86.2246C115.724 85.8904 121.043 86.3882 121.001 86.2902C121.015 86.2757 113.572 96.356 108.627 112.238L82.4752 111.594ZM166.873 24.7849L176.144 16.1324L176.29 93.4831L167.01 85.2689L166.873 24.7849ZM85.423 87.6373L82.5012 79.9635C87.1228 78.3666 90.6259 74.8774 93.8899 71.4218C96.0947 73.2576 98.9435 73.9071 99.9321 74.261C101.286 74.5565 90.5458 86.467 85.423 87.6373ZM68.1824 29.5305C68.1824 29.5305 67.0289 28.9091 67.1572 28.0364C67.5416 26.9063 65.9305 24.3438 65.9299 24.3439C85.6479 18.8338 114.316 34.4757 131.354 31.2229C131.21 32.3252 131.404 33.6401 130.919 34.6787C131.451 36.8889 131.83 36.9606 129.5 38.3057C117.528 41.4248 104.93 34.7123 93.2482 31.4942C83.7179 28.695 75.9715 29.3918 68.1824 29.5305Z" fill="#D40000"/>
<path id="path3991" d="M55.5419 4.01813L59.1298 10.3078L58.5065 10.698C59.4838 12.2132 60.3134 13.9177 61.3129 15.4206L62.0361 15.3446C63.2146 17.4465 63.6921 18.2242 65.2342 20.7148L64.5359 20.7108C64.8933 21.8174 65.8144 22.5536 65.8318 23.3474C65.8392 24.335 65.5634 25.3371 66.2166 26.0066C66.9904 26.7998 67.0829 27.0193 66.9227 27.483C66.4974 28.7147 67.6995 30.0808 68.9223 29.9606C77.5397 28.9073 86.3172 29.8271 95.0888 32.2995C101.397 34.1545 106.995 36.23 112.297 37.6915C113.968 38.1571 117.347 38.8924 120.256 39.0946C128.326 39.6557 132.858 38.1389 131.504 35.0255C131.397 34.7762 131.155 34.5931 131.134 34.4649C131.095 34.2282 131.135 33.9722 131.594 33.6249C132.92 32.3736 132.182 31.46 131.378 30.071C131.378 30.071 141.774 12.926 146.967 4.38311L55.5419 4.01813ZM145.273 5.70551L137.687 17.7981C133.644 17.1125 132.688 20.263 132.626 20.7062C127.377 19.4499 128.172 25.7628 130.805 26.1934C130.974 27.1093 126.485 28.2394 124.124 26.0909C127.757 26.5479 129.053 22.0938 124.616 21.0964C130.475 17.0739 119.508 11.0193 119.362 19.3599C114.202 18.509 114.861 24.8329 118.134 25.3298C116.456 27.0388 111.531 27.0784 108.964 23.4662C113.339 25.5813 115.718 20.1445 111.172 18.614C116.794 14.06 105.81 9.83512 106.054 17.209C101.914 14.9262 99.0543 20.7242 104.584 21.6235C104.267 22.6672 97.0229 22.6637 95.1896 19.9614C100.324 21.0561 100.571 15.2604 96.0394 14.7814C100.599 9.43696 89.0557 6.71145 90.9805 14.0182C86.5218 12.3753 84.8266 17.5289 89.1686 19.1919C89.4082 20.0128 82.1292 20.6992 79.5875 17.7349C85.1825 16.9659 83.2346 11.938 79.6108 12.334C79.6108 12.334 79.6631 12.1896 79.8683 11.701C81.5885 6.65984 72.3921 6.22342 73.656 11.5741C73.8591 12.0667 74.0831 12.723 74.0831 12.723C71.5486 12.2402 69.9975 13.1949 70.1769 15.4002C70.8027 18.3289 72.4715 18.1153 74.607 17.5356C75.5005 18.4042 69.4505 21.2931 65.6606 18.6987C70.3105 17.4683 67.9656 12.416 64.0753 13.0912C63.9175 11.4796 62.0324 9.21634 59.567 10.3149L56.9695 5.55879L145.273 5.70551ZM152.748 72.967L147.288 73.0328C143.446 76.6559 115.63 100.323 120.24 136.148C122.212 151.471 126.802 164.732 139.111 180.41L142.412 178.621L142.916 178.935L177.144 160.757L177.172 155.22L137.452 170.591C136.666 169.813 136.205 168.946 135.543 167.988L151.461 161.748C151.461 161.748 151.844 160.853 151.968 160.441C157.22 148.186 167.86 139.325 177.121 132.48C177.095 120.406 177.081 95.1278 177.081 95.1278L153.208 73.0126C150.137 75.6066 147.412 78.2757 144.687 81.1715L172.08 114.717L169.644 116.181L142.539 82.8103C145.763 79.2291 149.261 76.1076 152.748 72.967ZM177.101 94.788C177.101 94.788 177.077 37.2707 176.949 9.49662L162.674 23.025L162.619 81.3252L177.101 94.788ZM176.039 14.9709L165.953 24.5838L165.954 83.8442L163.372 81.4759L163.481 23.8109L176.081 11.6159L176.039 14.9709ZM78.0637 13.3861C78.3638 13.8785 78.2323 14.5598 77.7475 15.1152C75.6839 17.4793 82.1435 21.6038 86.7982 20.8963C90.341 20.3578 93.3641 18.3912 92.0645 16.8891C91.0061 15.6656 91.7011 14.4311 92.9753 14.4414C94.2857 14.452 95.3362 15.4199 94.1979 16.7415C91.6657 19.6814 95.5123 23.1418 101.404 23.2228C105.571 23.2801 106.961 22.331 106.741 19.579C106.639 18.2902 106.912 17.9344 107.88 17.7404C109.426 17.4306 110.202 19.0733 108.919 20.3234C106.147 23.0228 109.284 27.0042 114.516 27.2692C116.43 27.3662 116.809 27.2723 118.947 26.158C120.618 25.2871 121.21 23.9687 120.394 22.9421C119.343 21.6209 120.766 20.0471 122.404 20.6991C123.574 21.1652 124.15 21.999 122.851 23.4086C121.145 25.2606 121.949 26.7917 125.226 27.8292C127.778 28.6374 129.547 28.5405 130.745 27.5314C131.118 27.2174 131.947 26.5617 131.934 26.7623C131.128 28.0476 130.414 29.2406 130.414 29.2406C125.06 31.4443 120.892 27.2973 121.029 27.143C115.513 30.0819 110.627 29.4522 106.507 24.4935C105.432 25.0433 97.7424 26.3293 92.2035 20.6748C86.599 23.2699 81.3955 22.1694 76.7752 19.2495C73.3514 22.2351 69.7471 22.7023 66.0059 21.2598L64.9007 19.1904C65.1806 19.0936 66.3834 21.2662 72.2448 20.264C74.2127 19.9276 77.6032 16.8684 75.7106 15.3714C74.8448 14.2322 74.82 13.7192 75.5878 13.0306C76.3431 12.3523 77.6301 12.7043 78.0637 13.3861ZM63.7052 16.074C64.031 16.6614 64.0728 17.6371 63.7135 17.0508C63.5239 16.7414 62.5345 15.3593 62.5815 15.3171C63.0431 15.2822 63.5002 15.7245 63.7052 16.074ZM176.04 16.7271L175.962 93.2013L167.403 85.3031L167.104 25.3929L176.04 16.7271ZM76.744 20.2697L79.441 21.8476L74.6067 21.813L76.744 20.2697ZM91.9186 21.6103L94.1816 23.6549L89.4175 22.7209L91.9186 21.6103ZM134.384 22.7382L133.367 24.6618C132.784 24.0554 132.616 22.7699 134.384 22.7382ZM151.456 54.5581C153.183 50.98 155.494 46.4236 159.223 44.9792C156.459 39.8652 156.829 34.758 158.802 31.9608C155.992 29.5278 153.109 26.6139 151.324 22.4275C142.417 29.6913 140.959 44.6387 151.456 54.5581ZM151.247 23.8256L151.857 25.2246C143.92 34.1961 146.343 45.9943 152.067 52.2974L151.24 53.8813C144.243 47.0162 141.201 32.5239 151.247 23.8256ZM103.892 28.8314C113.064 31.3421 120.407 35.2448 131.023 31.7957L131.069 33.7103C124.309 37.7176 110.863 33.4504 101.781 30.3264C87.181 25.3046 75.8112 25.5776 67.6877 26.1356C66.973 26.0046 66.4077 24.2729 67.5532 24.2631C82.7428 24.1324 80.292 22.3714 103.892 28.8314ZM105.972 25.4481L108.98 28.4164C106.718 27.7545 104.519 27.0199 102.473 26.1078L105.972 25.4481ZM151.969 26.2536L152.558 27.0096C152.813 27.3369 150.891 27.5034 151.214 27.1207L151.969 26.2536ZM100.177 31.5935C111.125 35.4241 123.18 39.2489 131.102 35.8489C131.102 35.8489 131.149 37.302 130.243 37.712C130.243 37.712 129.407 38.3364 126.613 38.6882C113.803 39.6418 105.498 34.7133 95.1655 31.7918C91.246 30.6836 84.9481 29.3384 78.4797 29.0796C74.6386 28.9114 68.7607 29.4131 68.7607 29.4131C67.4808 29.3122 67.5005 28.6116 67.4908 27.9246C78.6294 26.5662 88.8677 27.6098 100.177 31.5935ZM153.157 28.0237C153.298 28.0178 153.442 28.0274 153.584 28.0479L154.702 29.3758L153.37 31.332C153.37 31.332 152.199 30.3299 151.607 29.3472C151.28 28.7109 152.168 28.0647 153.157 28.0237ZM120.881 28.3445L124.345 30.7771C121.737 30.8916 118.801 30.977 115.898 29.9026L120.881 28.3445ZM150.26 29.628C150.534 29.6223 150.82 29.8904 151.155 30.4222C151.799 31.4446 151.713 31.6401 150.46 32.0113C148.813 32.4989 148.684 32.391 149.219 31.0231C149.584 30.0915 149.909 29.6352 150.26 29.628ZM155.528 30.2626L157.87 32.0909C156.569 35.2123 155.714 39.1754 158.304 44.8708C158.016 44.8881 156.327 46.4272 155.798 46.6894C154.313 46.1099 151.064 34.8278 155.528 30.2626ZM152.856 32.6476L152.254 36.1008C152.205 36.384 149.663 34.4611 149.902 33.5016C150.358 32.3624 151.907 32.6081 152.856 32.6476ZM148.645 33.8534C148.953 33.856 149.435 34.5471 150.027 35.4506C150.489 36.1555 150.394 36.4213 149.367 37.2757C147.855 38.6875 147.56 38.2254 147.899 35.8199C148.066 34.6314 148.297 33.8504 148.645 33.8534ZM151.76 36.9887C151.965 36.9929 152.144 37.039 152.274 37.1358L152.441 40.5006C152.456 40.8044 149.608 40.3764 149.236 39.0939C148.765 38.2724 150.655 36.9658 151.76 36.9887ZM147.995 39.8265C148.199 39.7998 148.836 40.1945 149.439 40.5272C150.487 41.1057 150.509 41.3594 149.604 42.4339C148.54 43.6961 148.013 43.4925 147.854 41.2938C147.796 40.4865 147.732 39.8607 147.995 39.8265ZM152.173 41.12C152.265 41.1201 152.347 41.1447 152.417 41.2006C152.921 41.6015 153.687 44.9751 153.362 45.3265C152.898 45.8269 150.468 45.1565 149.927 44.363C149.412 43.6079 151.286 41.1191 152.173 41.12ZM149.19 45.0854C149.469 45.0682 149.972 45.2472 150.731 45.5881C151.188 45.7931 151.95 46.1787 152.118 46.5067C152.414 47.084 151.919 47.9381 151.28 48.6468C150.857 49.1157 150.463 48.7657 149.649 47.1908C148.994 45.924 148.724 45.114 149.19 45.0854ZM154.096 46.6016C154.152 46.6005 154.202 46.6112 154.248 46.6349C155.076 47.0617 154.934 48.325 153.953 49.2581C152.775 50.3781 151.756 49.5313 152.571 48.1092C153.087 47.2084 153.704 46.6096 154.096 46.6016ZM85.7186 77.8659C85.0024 77.8947 83.8838 78.494 83.3949 79.0749C82.7771 79.8091 82.2394 79.7121 81.556 79.6571C80.7429 79.6447 79.505 79.8094 77.8279 80.5146C76.8776 80.9143 76.4444 81.004 75.0524 81.067C74.1439 81.1081 73.2332 81.2205 73.0309 81.3185C72.8286 81.4165 72.1743 81.6276 71.5791 81.7881C70.3624 82.1162 70.7946 82.4368 71.4895 83.8908C75.0222 92.3299 77.5467 102.161 78.4582 110.166C79.4812 119.35 79.1454 130.484 77.744 138.985C74.3471 139.001 72.2139 138.836 68.6362 138.886C66.1616 157.271 59.5124 171.863 46.2549 184.974L82.0275 185.116C86.145 174.99 104.863 167.292 105.477 167.863L106.455 171.563C106.455 171.563 92.9975 173.323 83.9062 189.134C84.8339 188.616 88.2079 188.982 90.4318 191.129C94.8913 185.907 102.197 182.501 102.245 182.582L102.49 181.951C102.49 181.951 103.829 181.532 105.006 181.326C105.384 181.26 106.158 181.127 106.672 180.961C107.466 180.704 107.86 180.431 109.086 180.531C111.636 180.761 114.197 180.079 114.142 180.066C106.585 160.641 104.824 143.115 107.829 122.763C110.626 122.788 116.76 122.895 116.76 122.895C117.388 117.177 118.18 111.455 120.086 106.058C122.532 99.1288 125.479 92.6886 130.215 86.8029C132.89 83.106 135.225 80.476 137.99 77.0115L102.972 77.03C98.3242 84.2422 89.3842 90.2574 82.2033 92.7579C79.7593 93.6044 79.4147 93.4782 79.012 92.413C78.2925 90.5098 78.327 90.5904 80.2382 90.0885C80.8765 89.9209 82.9197 88.9279 86.1076 87.5498C92.8735 84.38 97.533 78.5643 100.274 74.6382C101.365 73.0875 100.634 73.4369 98.7747 73.4183C97.0719 73.2921 96.2947 72.8028 94.7668 71.4771C94.2036 70.9884 93.9619 70.6406 93.7043 70.6684C91.7007 73.3258 88.3386 76.8304 85.7186 77.8659ZM93.9483 71.7329C95.5191 73.2974 97.3853 74.2142 99.8428 74.5157C95.9035 80.2234 91.0966 84.6839 85.5763 87.3915L82.7862 80.0764C89.6651 77.1212 91.5081 74.1529 93.9483 71.7329ZM151.022 74.1508C113.927 105.828 116.031 145.843 141.904 178.385L139.184 179.896C114.883 149.601 110.56 104.836 147.835 74.0103L151.022 74.1508ZM127.667 77.984L136.745 77.9814L130.551 85.3972L122.258 85.3554L127.667 77.984ZM126.244 78.0432L121.181 85.414L107.561 85.5544C99.3941 94.8543 90.6317 99.3832 81.7146 102.469L79.9905 94.5139C79.9904 94.514 94.1057 91.383 103.269 77.9052L126.244 78.0432ZM112.403 78.6311L109.241 81.8632L112.513 84.9593L115.513 81.8261L112.403 78.6311ZM119.551 78.5672L116.348 81.6434L118.837 84.7478L122.156 81.7425L119.551 78.5672ZM103.784 79.1032L103.23 83.9486L107.341 85.2058L107.949 81.0636L103.784 79.1032ZM128.806 79.3244L125.813 83.6454L130.308 83.7187L133.459 79.4168L128.806 79.3244ZM81.8112 80.3537L84.7105 87.844L82.1504 88.9834L79.5699 81.1618L81.8112 80.3537ZM78.3605 81.5489L81.3495 89.2975L78.8332 90.0626L76.0892 81.9983L78.3605 81.5489ZM81.9021 112.128C82.217 122.898 82.3713 129.391 80.4111 138.854C80.3087 139.349 78.2231 138.907 78.2231 138.907C78.4869 138.989 79.4188 128.211 79.3591 121.441C79.2455 108.547 76.9111 95.788 71.4761 83.0009C72.5179 82.4125 75.085 82.1157 75.085 82.1157C78.5119 91.8111 81.5461 102.24 81.9021 112.128ZM45.5977 82.2101C57.5256 96.9327 66.0335 116.895 64.5668 136.574C63.1544 159.458 53.7687 172.633 37.2992 188.455L33.0575 188.539C52.5506 171.275 61.189 156.486 61.9045 136.959C62.7275 114.499 55.3555 99.5489 42.9214 83.6091L45.5977 82.2101ZM7.31794 102.36L7.34955 107.716L48.1124 91.589L42.2527 83.5574L7.31794 102.36ZM102.815 84.972L98.381 85.1724L98.5208 89.3206L103.143 89.2242L102.815 84.972ZM142.342 84.2478L168.677 116.374L162.137 120.861L137.03 90.6711L142.342 84.2478ZM121.649 86.4057L129.55 86.5317L126.486 91.2251L118.85 91.1561L121.649 86.4057ZM120.19 86.519C116.546 92.7755 111.521 99.908 108.686 111.444L82.6767 111.422C82.6336 108.787 82.2703 106.152 81.8516 103.516C93.0665 99.7324 101.758 94.0633 108.157 86.5616L120.19 86.519ZM124.999 86.8575L121.605 88.6641L123.673 90.8759L127.412 89.5559L124.999 86.8575ZM94.0362 89.1151L92.9085 93.1999L97.1208 94.712L97.9089 89.8575L94.0362 89.1151ZM118.283 92.2075L125.863 92.2622L122.66 98.1651L115.151 98.0491L118.283 92.2075ZM136.332 91.4632L161.254 121.516L158.909 123.23L134.553 93.8535L136.332 91.4632ZM121.158 92.6887L117.737 95.3211L120.303 98.0763L123.459 95.7503C123.525 95.7012 121.158 92.6887 121.158 92.6887ZM88.0067 92.8522L86.9505 96.8238L91.3317 97.9115L92.1236 93.6516L88.0067 92.8522ZM81.9386 95.4849L81.0403 99.3955L85.167 100.436L86.0447 96.6666L81.9386 95.4849ZM47.8514 95.0373C48.0633 94.9984 47.1525 99.6921 45.8231 100.536C45.188 100.94 44.8596 100.85 44.3103 100.298C43.932 99.9185 42.2194 97.3191 42.2194 97.3191L43.6877 96.6379C45.463 99.2796 45.464 98.0033 46.142 95.7554L47.8514 95.0373ZM41.0006 97.7307C41.5821 97.7277 42.2852 98.3985 43.079 99.6971C44.2269 101.575 44.1884 101.697 42.2954 102.235C38.888 103.064 37.621 103.263 38.6727 101.181C39.8049 98.9402 40.253 97.7346 41.0006 97.7307ZM51.1398 97.375L53.4635 101.077C44.0764 123.119 28.9723 138.918 8.20531 148.459L8.16468 144.794C32.6522 131.926 42.7117 116.695 51.1398 97.375ZM114.681 99.0724L122.037 99.207L120.062 104.418L112.243 104.354L114.681 99.0724ZM38.7887 98.7219C32.7762 111.938 24.5733 123.465 8.19717 133.181L8.13836 129.667C26.5279 119.435 34.5046 100.226 34.5033 100.22L38.7887 98.7219ZM131.766 98.8499C136.122 98.9677 140.693 103.376 140.222 107.004C139.89 109.56 140.415 111.458 141.168 110.412C142.831 108.102 147.717 109.647 147.668 112.425C147.641 113.903 146.575 114.144 145.967 112.809C145.067 110.836 142.529 110.783 142.151 112.849C141.796 114.785 143.565 116.211 148.296 117.804C153.841 119.019 157.172 123.634 155.194 126.281C154.508 126.98 154.095 127.152 153.967 126.788C153.93 126.684 153.795 126.137 153.668 125.575C153.044 122.797 151.611 121.628 149.865 122.579C148.989 123.056 149.099 123.689 149.608 124.524C150.285 125.636 149.859 126.067 148.644 125.499C146.726 124.602 146.095 122.482 147.958 121.508C150.173 120.691 149.424 120.513 146.597 119.623C140.581 117.707 138.004 114.205 137.701 107.542C137.822 104.505 137.376 103.422 135.836 103.004C134.426 102.622 132.825 104.281 133.836 105.158C134.386 105.634 134.834 106.067 134.542 106.329C133.605 107.17 131.266 105.799 131.293 104.333C131.31 103.374 131.702 103.177 133.252 102.052C133.682 101.74 133.317 101.15 132.688 101.14C130.321 101.843 130.493 98.9424 131.766 98.8499ZM118.128 99.5968L114.447 101.55L116.357 104.034L120.433 102.267L118.128 99.5968ZM46.5732 101.406C46.9957 101.407 47.3413 101.724 47.3406 102.115C47.3399 102.507 46.993 102.827 46.5705 102.827C46.148 102.826 45.8075 102.505 45.8082 102.113C45.8089 101.721 46.1507 101.406 46.5732 101.406ZM54.1106 101.726C61.8427 117.44 63.6547 135.398 58.22 153.332L37.3073 128.02C45.3646 119.641 50.7889 110.042 54.1106 101.726ZM25.7617 102.833L7.04516 110.086L6.91726 123.085C17.3792 116.492 21.8239 109.732 25.7617 102.833ZM43.7393 102.753C45.5824 102.703 44.6644 107.313 42.2683 108.883C41.3893 109.506 40.7978 109.429 40.5108 108.179C40.3621 107.531 39.6288 106.158 38.7039 105.053C37.628 103.768 37.6404 103.736 39.2157 103.648C40.9547 103.675 42.3818 102.904 43.7393 102.753ZM41.9139 104.71C40.5545 104.689 40.1462 105.278 40.9543 106.086C41.6348 106.767 42.176 106.622 42.6351 105.641C42.9149 105.043 42.6659 104.722 41.9139 104.71ZM8.14916 121.518L8.21572 110.485L24.2217 104.268C21.0009 110.71 15.0496 117.091 8.14916 121.518ZM150.219 130.661L148.084 132.642L127.483 107.659L128.783 104.512L150.219 130.661ZM37.1072 105.24C37.7998 105.251 39.3658 107.478 39.8032 109.076C40.1277 110.262 39.781 110.512 37.3563 110.842C36.3513 111.095 33.6386 110.845 33.8602 110.176C34.2558 109.21 36.863 105.236 37.1072 105.24ZM111.909 105.616L119.443 105.704L117.707 111.43L109.816 111.308L111.909 105.616ZM115.238 105.971L111.726 108.216L114.496 110.754L118.216 108.632L115.238 105.971ZM127.053 108.454L147.893 133.616C141.647 140.954 135.416 149.384 131.309 160.534C123.902 144.398 121.209 128.699 127.053 108.454ZM42.2153 110.455C42.6378 110.456 42.9834 110.772 42.9827 111.164C42.982 111.556 42.6351 111.876 42.2126 111.875C41.7901 111.875 41.4496 111.553 41.4503 111.162C41.451 110.77 41.7928 110.454 42.2153 110.455ZM39.8108 111.409C41.1149 111.497 39.8768 115.344 37.9112 116.745C36.3619 117.849 35.6977 117.335 35.3439 115.309C35.216 114.577 34.3884 113.332 33.6598 112.349C32.8456 111.251 33.1822 111.077 35.2496 111.521C36.693 111.783 38.476 111.468 39.8108 111.409ZM109.617 112.463L117.516 112.52L116.283 121.217L109.617 112.463ZM32.6457 112.741C33.8885 113.819 35.4537 117.595 34.6467 117.866C33.708 118.18 29.4612 117.716 28.9869 117.262C28.6601 116.949 28.6592 116.947 29.3556 116.087C29.7387 115.615 30.4677 114.671 30.9784 113.99C31.4383 113.493 31.9491 112.143 32.6457 112.741ZM37.0437 112.877C35.8405 112.912 35.76 113.065 36.3284 114.268C36.792 115.249 37.1147 115.337 37.9159 114.695C39.0306 113.802 38.5652 112.832 37.0437 112.877ZM175.702 113.856L175.979 118.146C145.586 132.059 134.152 165.004 133.988 165.003L131.791 161.196C145.785 129.391 164.335 120.204 175.702 113.856ZM32.6005 118.698C34.4089 118.666 34.9372 118.552 34.9262 119.173C34.944 120.844 33.2551 123.212 31.1955 124.103C29.8089 124.703 29.7777 124.717 29.6241 123.204C29.5059 122.04 29.0992 120.541 28.4503 119.347C28.2467 118.904 27.4637 117.888 28.4498 118.179C29.436 118.469 31.473 118.718 32.6005 118.698ZM36.6574 118.316C37.08 118.317 37.4205 118.634 37.4198 119.025C37.4191 119.417 37.0773 119.733 36.6548 119.732C36.2323 119.731 35.8918 119.415 35.8925 119.023C35.8932 118.631 36.235 118.316 36.6574 118.316ZM26.9792 119.278C27.3072 119.27 27.6181 119.895 27.9894 120.814C28.7967 122.811 29.0431 123.894 28.8023 124.364C28.4312 125.087 23.4483 124.611 22.6028 123.801C22.4413 123.913 26.2765 119.678 26.9792 119.278ZM30.5673 119.78C29.8528 119.824 30.2302 120.223 30.7577 121.38C31.1229 122.18 31.6189 122.31 32.1875 121.75C32.9482 121.001 33.0516 120.405 32.5731 120.084C31.8702 119.821 31.3507 119.784 30.5673 119.78ZM175.895 124.354L175.919 125.791C174.737 125.462 174.005 124.996 172.657 124.578C171.831 124.32 171.343 124.136 172.075 123.331C173.221 122.068 174.449 121.28 175.845 120.499L175.849 122.127C173.619 123.039 173.834 123.884 175.895 124.354ZM88.1184 122.751L96.508 122.765L96.4984 127.899L103.06 127.91L102.54 133.76L96.4873 133.751L96.4776 138.885L88.088 138.871L88.0977 133.737L82.1059 133.727L82.6005 127.877L88.1087 127.886L88.1184 122.751ZM107.066 122.8C102.781 142.306 106.639 163.028 113.162 179.916L109.854 180.248C104.77 166.743 100.745 147.521 104.922 122.807C104.922 122.807 106.403 122.785 107.066 122.8ZM169.336 123.279C169.759 123.28 170.099 123.597 170.098 123.988C170.098 124.38 169.756 124.695 169.334 124.695C168.911 124.694 168.571 124.377 168.571 123.986C168.572 123.594 168.914 123.278 169.336 123.279ZM21.7459 124.678C22.0239 124.671 22.8765 125.013 23.6335 125.209C24.7718 125.505 25.6695 125.633 26.7076 125.653C28.7929 125.694 29.066 125.677 28.1656 127.265C27.5169 128.409 26.0584 129.919 25.0391 130.379C23.5956 131.09 23.043 130.993 23.1313 129.677C23.1433 128.785 22.7284 127.234 22.186 126.127C21.7643 125.267 21.2824 124.69 21.7459 124.678ZM30.5676 125.319C30.9901 125.319 31.3357 125.636 31.335 126.028C31.3343 126.419 30.9874 126.74 30.5649 126.739C30.1424 126.738 29.8019 126.417 29.8026 126.025C29.8033 125.634 30.1451 125.318 30.5676 125.319ZM171.73 125.454C172.321 125.443 173.335 125.781 174.259 126.199C176.709 127.307 176.643 127.561 173.315 129.741C170.899 131.434 170.328 131.624 170.247 128.948C170.164 126.693 170.429 125.477 171.73 125.454ZM20.4862 125.855C21.4595 125.87 22.5281 130.57 21.6525 130.987C20.2892 131.637 16.0724 130.359 16.0915 129.288C16.0971 128.94 20.0568 125.849 20.4862 125.855ZM168.797 125.902C169.379 125.879 169.455 126.302 169.399 127.8C169.369 128.593 169.514 129.887 169.572 130.49C169.693 131.742 169.577 131.828 168.512 131.267C167.829 130.907 166.442 130.318 164.94 130.195C163.709 130.094 163.62 129.624 164.003 128.873C165.093 127.208 167.064 126.041 168.797 125.902ZM24.0997 126.376C23.2503 126.369 23.46 126.788 23.9847 127.966C24.3565 128.801 25.0032 128.881 25.6694 128.171C26.6022 127.178 26.4201 126.651 25.0668 126.458C24.7805 126.417 24.2957 126.377 24.0997 126.376ZM167.668 127.726C167.315 127.756 166.831 128.014 166.598 128.154C165.799 128.617 165.474 128.95 166.632 129.32C167.662 129.649 168.209 129.792 168.129 128.968C168.081 128.472 168.124 127.752 167.668 127.726ZM88.9227 128.208L88.913 133.323L95.5921 133.334L95.6018 128.219L88.9227 128.208ZM161.7 128.769C162.122 128.77 162.463 129.086 162.462 129.478C162.461 129.87 162.12 130.185 161.697 130.185C161.275 130.184 160.934 129.867 160.935 129.476C160.936 129.084 161.277 128.768 161.7 128.769ZM36.6684 129.364L57.6918 154.467L56.2859 157.733L34.6336 131.234L36.6684 129.364ZM176.019 129.472L176.059 132.748C173.675 134.358 158.539 144.488 150.687 161.567L146.589 163.176C152.381 148.476 164.731 135.897 176.019 129.472ZM15.7276 130.6C17.0985 130.989 18.4064 131.875 19.7008 132.036C21.1888 132.206 21.7023 132.119 21.2978 132.831C20.3921 134.426 18.6857 136.094 16.8871 136.637C15.6012 137.026 14.9943 136.879 15.1979 136.139C15.5789 134.754 15.6457 133.617 15.597 132.355C15.8018 131.667 15.1696 130.703 15.7276 130.6ZM14.1183 130.89C14.9915 131.584 14.8098 135.964 13.8321 136.906C13.3209 137.398 11.8415 136.946 9.6241 135.776C8.17445 135.012 7.90454 134.546 8.62949 134.08C9.85812 133.392 13.4582 130.725 14.1183 130.89ZM164.653 131.228C165.108 131.219 165.67 131.293 166.348 131.438C168.973 131.989 169.557 132.546 167.315 134.191C166.486 134.799 165.607 135.554 165.352 135.844C164.145 137.211 163.309 136.217 163.05 133.731C162.869 131.991 163.154 131.001 164.653 131.228ZM161.364 131.458C161.79 131.459 162.064 131.666 162.055 132.158C162.044 132.786 162.525 135.506 162.796 136.255C163.266 137.529 162.923 137.816 161.786 137.258C160.958 136.843 158.764 136.525 157.577 136.61C156.226 136.706 156.265 136.371 156.663 135.32C157.367 133.458 160.084 131.457 161.364 131.458ZM17.0076 132.131C16.4944 132.128 16.4719 132.77 16.8203 134.24C16.9312 134.708 17.365 134.679 18.1848 134.148C19.1547 133.519 19.1159 133.123 18.025 132.515C17.5756 132.264 17.2408 132.132 17.0076 132.131ZM22.9787 132.301C23.4012 132.302 23.7418 132.618 23.741 133.01C23.7403 133.402 23.3986 133.717 22.9761 133.717C22.5536 133.716 22.2131 133.399 22.2138 133.007C22.2145 132.616 22.5562 132.3 22.9787 132.301ZM158.862 135.272C159.228 135.604 160.583 135.592 160.817 135.393C161.175 135.088 161.011 133.667 160.713 133.496C159.951 133.254 158.406 134.747 158.862 135.272ZM32.3916 137.771C32.8484 139.797 35.9214 139.69 35.5787 137.578C35.3787 136.345 35.3314 136.37 35.9984 136.399C39.171 136.548 38.6123 141.183 34.9567 140.819C34.1937 140.902 34.0915 141.192 34.7366 141.442C35.3774 141.69 37.8334 142.278 38.212 142.278C42.1902 142.272 47.9183 147.95 47.7677 152.981C47.6692 156.272 48.8682 158.642 50.0983 158.912C51.0763 159.127 52.498 158.305 52.3769 157.297C52.2099 155.907 53.4282 156.343 54.1281 157.342C55.1963 158.724 53.8111 160.712 51.261 160.551C50.1754 160.746 52.0568 161.388 53.4512 161.763C54.7166 161.833 53.6445 163.275 53.4088 163.533C52.6921 164.301 50.3494 163.709 48.5137 162.331C46.2601 160.638 45.2952 158.373 45.0373 153.925C44.8715 151.067 44.6427 150.485 43.7434 151.663C42.1256 154.29 38.2667 152.997 37.7899 150.219C37.5226 148.748 38.9215 147.689 39.3703 149.023C40.562 151.795 43.493 151.134 43.0216 148.382C42.7106 146.567 40.7532 145.562 36.8842 144.545C32.2331 143.323 30.8523 141.844 29.9521 138.305C29.5536 136.739 29.6186 135.919 30.513 135.102C30.9548 134.698 31.5174 134.287 31.5174 134.287C31.5174 134.287 32.134 136.668 32.3916 137.771ZM154.119 135.723C154.542 135.723 154.882 136.04 154.881 136.432C154.881 136.824 154.539 137.139 154.116 137.138C153.694 137.138 153.353 136.821 153.354 136.429C153.355 136.038 153.697 135.722 154.119 135.723ZM8.06083 136.159C9.44543 136.627 10.6349 137.317 12.0626 137.77C12.9889 138.064 12.7344 138.751 11.7723 139.726C10.6995 140.896 9.6464 141.471 8.16128 142.121L8.18058 140.141C9.98538 139.56 11.1356 138.169 8.10662 137.718L8.06083 136.159ZM157.721 137.507C158.246 137.512 158.989 137.531 159.861 137.699C162.068 138.125 162.326 138.308 160.997 139.744C160.504 140.276 159.771 141.079 159.37 141.53C158.061 143.214 157.359 142.634 156.755 140.454C156.005 138.178 155.834 137.306 157.721 137.507ZM14.9805 138.087C15.403 138.088 15.7435 138.405 15.7428 138.796C15.7421 139.188 15.4003 139.504 14.9778 139.503C14.5553 139.502 14.2148 139.186 14.2156 138.794C14.2163 138.402 14.558 138.087 14.9805 138.087ZM155.491 139.856C155.7 140.575 156.018 141.491 156.261 142.14C157.454 144.591 156.698 143.643 154.551 143.423C153.108 143.276 150.811 143.495 150.243 143.124C149.996 142.826 150.226 142.039 150.691 141.152C151.345 139.904 152.531 138.841 153.416 138.36C155.656 137.405 155.132 138.623 155.491 139.856ZM26.4875 138.776L50.4996 168.311L48.6077 170.802L23.9092 140.434L26.4875 138.776ZM177.32 139.13C164.794 147.49 159.97 157.654 158.992 158.981L177.346 152.452L177.32 139.13ZM153.431 140.053C152.745 140.226 151.758 141.404 152.181 141.867C152.434 142.109 153.442 142.143 153.927 141.979C154.672 141.727 154.166 140.05 153.431 140.053ZM47.9003 171.782L42.7626 177.762L16.1115 145.691L22.8602 141.191L47.9003 171.782ZM175.983 140.861L176.151 151.869L160.452 157.907C165.72 149.689 170.876 144.612 175.983 140.861ZM68.7085 141.621L74.9777 149.214L67.3001 149.04L68.7085 141.621ZM148.16 142.37C148.583 142.37 148.923 142.687 148.923 143.079C148.922 143.47 148.58 143.786 148.158 143.785C147.735 143.785 147.395 143.468 147.395 143.076C147.396 142.685 147.738 142.369 148.16 142.37ZM152.762 144.171C155.636 144.212 156.594 144.358 155.757 145.666C154.639 146.942 153.978 148.155 152.759 149.335C152.056 149.996 151.181 148.629 150.451 146.442C149.862 144.676 150.163 144.232 151.289 144.219C152.414 144.206 152.605 144.169 152.762 144.171ZM149.438 146.554C149.672 147.251 150.22 148.399 150.655 149.099C151.091 149.8 151.579 150.578 151.549 150.713C151.474 151.042 151.139 151.066 150.383 150.801C148.746 150.114 144.896 150.831 144.795 150.494C144.225 149.738 145.086 147.68 146.705 146.257C147.496 145.561 148.219 145.109 148.637 145.103C149.055 145.097 149.13 145.633 149.438 146.554ZM15.1893 145.794L42.3072 178.557L40.4223 180.676L13.0004 147.281C13.0004 147.281 8.65644 149.245 7.37882 149.9L7.51917 166.823L6.77599 166.789L6.7258 252.501L21.9185 238.508L21.8307 180.349C25.0434 183.16 27.7915 186.158 31.4694 188.914L37.7769 188.878C54.2719 173.381 63.3152 160.11 65.3392 136.323C66.6933 120.409 61.0259 100.385 45.9321 80.9644L42.2333 83.0383L49.5143 93.2476L34.0386 99.5751C27.8573 111.601 20.5351 122.697 7.16878 129.037L7.06469 144.614L6.83074 144.936L6.99799 149.827L15.1893 145.794ZM148.075 147.127C147.353 147.176 146.221 148.617 146.737 149.111C147.346 149.38 148.285 149.363 148.679 148.88C148.949 148.407 148.883 147.405 148.075 147.127ZM66.9885 150.365L74.9708 150.421L72.8717 156.764L65.0983 156.615L66.9885 150.365ZM142.814 150.46C143.236 150.46 143.577 150.777 143.576 151.169C143.575 151.56 143.233 151.876 142.811 151.875C142.388 151.875 142.048 151.558 142.049 151.166C142.049 150.775 142.391 150.459 142.814 150.46ZM102.147 150.587L103.163 158.832C94.4516 161.752 85.055 166.715 76.8274 175.854C75.4247 175.767 64.2291 175.924 64.2291 175.924C64.5091 175.961 74.6357 158.323 75.8122 150.663L102.147 150.587ZM70.5315 151.304L66.8669 153.629L69.7226 156.46L73.5146 154.088L70.5315 151.304ZM146.71 151.462C147.489 151.459 148.532 151.549 149.368 151.688C150.717 151.932 150.915 151.956 150.459 152.988C149.849 154.356 148.476 156.823 148.13 157.019C146.892 157.727 144.154 152.629 145.093 151.75C145.341 151.57 145.866 151.464 146.71 151.462ZM143.208 153.022C143.561 152.994 144.032 153.632 144.17 154.182C144.338 154.849 145.581 156.532 146.365 157.339C147.35 158.354 147.298 158.496 145.884 158.599C144.199 158.72 142.554 159.025 141.605 159.343C140.134 159.835 139.934 159.726 140.126 158.133C140.414 155.736 142.147 153.106 143.208 153.022ZM141.908 157.98C142.091 158.445 144.372 157.596 144.5 157.039C144.479 156.789 143.587 155.341 143.049 155.275C142.137 155.405 141.751 157.323 141.908 157.98ZM64.8846 157.53L72.4291 157.608L69.9441 163.366L62.4861 163.335L64.8846 157.53ZM68.2606 158.308L64.6421 160.421L67.4526 162.95L70.9185 160.742L68.2606 158.308ZM144.98 159.476C145.62 159.472 146.298 159.53 146.44 159.748C146.84 160.36 145.201 163.776 145.201 163.776L142.54 164.749C141.97 163.657 140.994 162.522 140.76 161.34C140.666 160.823 140.949 160.635 141.565 160.316C142.483 159.84 143.912 159.484 144.98 159.476ZM137.856 159.744C138.279 159.745 138.619 160.061 138.619 160.453C138.618 160.845 138.276 161.16 137.854 161.16C137.431 161.159 137.091 160.842 137.091 160.451C137.092 160.059 137.434 159.743 137.856 159.744ZM103.452 159.787C103.452 159.787 105.066 168.327 105.156 167.387C92.5653 171.759 85.1941 178.229 81.695 184.546L58.0885 184.492L63.3718 176.922L77.347 176.879C84.1162 169.292 92.461 163.246 103.452 159.787ZM100.426 161.792L99.2535 165.24L102.777 167.331L104.113 163.629L100.426 161.792ZM139.095 161.921C139.394 161.896 139.689 162.364 140.294 163.362C140.741 164.101 141.329 165.174 141.329 165.174L140.272 165.536C139.426 162.838 138.643 163.839 138.547 166.219L137.1 166.751C137.1 166.751 137.261 164.457 138.09 163.118C138.566 162.349 138.831 161.943 139.095 161.921ZM62.1435 164.155L69.4588 164.252L66.3881 170.122L58.9509 169.922L62.1435 164.155ZM94.0517 164.679L93.4631 169.038L97.4019 169.819L97.9494 165.676L94.0517 164.679ZM65.253 164.684L61.6344 166.844L64.0013 169.741L67.4824 167.581L65.253 164.684ZM88.3936 168.539L87.6377 172.554L91.3321 173.339L92.1798 169.301L88.3936 168.539ZM8.07059 168.645L17.3043 177.159L17.702 236.453L8.48761 244.989L8.07059 168.645ZM58.3921 170.897C58.3589 170.945 65.7704 171.106 65.7704 171.106L62.7946 176.064L60.2612 175.954L63.5997 173.85L61.4663 171.313L58.0363 173.379L59.9405 175.944L54.9363 175.837L58.3921 170.897ZM106.104 172.443L108.602 180.14L105.581 180.621L103.326 173.379C104.252 172.937 105.178 172.719 106.104 172.443ZM82.3732 172.885L82.4154 177.5L86.4467 177.823L86.6127 173.496L82.3732 172.885ZM102.415 173.654L104.699 180.967L102.781 181.47L100.049 174.527C100.801 174.116 101.586 173.816 102.415 173.654ZM98.9134 175.157L101.853 182.318C97.7706 183.845 93.5345 187.12 90.3442 190.39C87.9868 188.778 86.5983 188.608 85.1429 188.242C89.1717 181.313 93.9212 177.68 98.9134 175.157ZM54.3421 176.879L62.1 177.109L56.6897 184.57L47.9132 184.546L54.3421 176.879ZM77.4372 177.195L76.925 181.564L81.0748 183.845L81.7145 179.358L77.4372 177.195ZM72.4318 177.8L69.4737 180.688L72.6033 184.011L75.4862 180.552L72.4318 177.8ZM65.8287 177.941L62.3155 180.917L65.0989 184.296L68.3125 180.908L65.8287 177.941ZM21.1343 180.65L21.3688 238.576L8.45934 250.132L8.36893 247.016L18.6331 237.116C18.6815 217.523 18.6514 197.93 18.6174 178.336L21.1343 180.65ZM55.4265 178.834L51.8596 183.326L56.0798 183.342L59.1476 178.992L55.4265 178.834ZM33.4273 206.829C32.0152 211.507 25.5366 216.573 25.4211 216.487C28.6159 220.747 28.4965 226.813 25.6664 229.798C25.6797 229.731 30.808 233.69 31.5249 235.744C31.9299 236.562 32.091 237.557 32.6043 238.369C32.7401 238.584 33.1734 239.119 33.1734 239.119C45.7401 227.348 39.7923 213.519 33.4273 206.829ZM33.6131 208.053C45.767 222.08 37.7127 234.888 33.4564 238.458L32.6471 237.214C41.7164 227.479 37.9031 215.494 32.64 209.815L33.6131 208.053ZM32.2897 210.777C32.3706 211.005 32.8435 211.665 32.4918 211.622L31.8811 211.508L32.2897 210.777ZM32.1952 212.339C32.4598 212.339 32.6808 212.416 32.8005 212.585C33.0479 212.968 31.7831 216.187 31.0068 215.435C30.7731 215.009 30.4978 214.64 30.2827 214.199C30.0302 213.673 30.1973 213.42 30.7789 212.898C31.1798 212.539 31.7541 212.339 32.1952 212.339ZM33.9447 213.215C34.5605 213.26 35.4329 215.058 35.5119 216.341C35.5496 216.474 33.4332 216.036 32.8715 215.436C32.9405 214.91 33.4741 213.574 33.9447 213.215ZM29.1774 214.673C32.8319 221.514 32.5923 226.852 29.354 231.755L26.8283 229.746C28.5364 226.016 29.3856 222.033 26.5312 216.956L29.1774 214.673ZM31.6479 216.387C31.9018 216.367 32.685 216.476 33.3782 216.682C35.8312 217.413 35.9201 218.902 33.5552 219.991C32.5756 220.441 32.2709 220.241 31.7111 217.963C31.4343 216.837 31.2246 216.42 31.6479 216.387ZM36.3825 219.014C36.8556 219.012 37.0717 219.841 37.1266 221.27C37.1787 222.628 36.8674 222.734 35.6901 221.764C34.4173 220.715 34.1984 220.466 35.3683 219.607C35.7109 219.355 36.1674 219.014 36.3825 219.014ZM33.0336 221.25C33.2667 221.231 33.9438 221.633 34.6051 222.102C36.2809 223.289 35.9071 224.102 33.9995 224.672C32.6779 225.067 32.7433 225.118 32.7809 223C32.7995 221.953 32.7339 221.273 33.0336 221.25ZM55.2463 223.214C53.1971 223.692 52.3337 225.384 53.0105 226.91C53.3179 227.603 53.7876 227.61 53.2361 228.033C52.6199 228.689 52.2903 230.212 52.9658 230.767C53.7633 231.193 53.9698 230.462 53.1263 231.892L37.6471 258.139L130.265 258.129L119.17 238.786C119.195 238.758 120.066 235.599 118.286 235.215C117.714 235.092 117.388 234.599 117.272 234.127C117.42 232.783 116.763 232.21 116.209 231.514C107.403 232.653 99.7562 232.066 93.4411 230.739C84.3445 228.827 77.8464 225.531 73.6192 224.492C67.7896 223.06 60.752 222.43 55.2463 223.214ZM60.2349 223.403C67.4112 223.375 75.4405 225.424 81.0584 227.688C86.8872 229.931 93.0636 231.605 99.305 232.47C104.457 233.079 109.597 232.785 114.525 232.431C115.064 232.357 115.622 232.426 116.023 232.822C117.042 233.876 116.345 234.534 113.789 234.749C109.686 235.056 104.598 234.914 100.086 234.278C92.9404 233.506 85.3681 231.49 78.8364 228.968C70.6728 226.114 63.1719 225.151 57.2417 225.979C53.985 226.434 53.5064 226.506 53.5208 225.695C53.5489 224.113 54.9621 223.393 60.2349 223.403ZM36.7116 227.951C36.3954 228.62 34.1675 226.424 34.1911 225.805C34.2389 225.532 36.0477 224.442 36.7656 223.999C37.1128 223.753 37.0899 223.881 37.0939 224.171C37.1049 224.998 37.0298 227.132 36.7116 227.951ZM33.2786 226.328C34.3082 226.458 35.9968 229.038 34.5047 229.435C33.1836 229.786 31.9822 230.011 31.8228 229.19C32.5066 227.175 32.7636 226.378 33.1564 226.332C33.1964 226.327 33.2389 226.327 33.2786 226.328ZM93.1537 235.226C99.7259 236.291 108.354 236.935 113.995 236.536C117.228 236.24 117.909 236.337 117.887 237.587C117.873 238.37 117.966 238.351 113.793 238.34C110.324 238.549 107.203 238.199 103.846 238.033C96.8999 237.702 90.5911 236.588 84.7615 234.702C78.2939 233.136 72.6935 230.137 66.3629 229.51C60.5569 228.973 55.3318 229.917 54.2353 230.479C53.8697 230.474 53.6796 229.971 53.702 229.508C53.7241 229.055 53.907 228.692 54.3155 228.403C70.9669 224.538 79.8622 232.889 93.1537 235.226ZM35.4455 229.979C36.0001 229.985 35.8223 230.746 34.9116 232.356C34.1373 233.725 33.8334 233.718 33.3997 232.311C32.9364 230.809 32.9816 230.643 33.9073 230.425C34.4522 230.304 34.9132 230.041 35.4455 229.979ZM31.5598 230.737C32.21 230.747 33.1278 233.477 32.6533 233.99C32.2782 234.395 30.925 234.118 30.5314 233.638C29.898 232.866 30.714 230.724 31.5598 230.737ZM60.6559 231.522C63.2378 231.502 65.8105 231.762 68.1752 232.142C66.8123 232.607 65.456 233.035 64.0402 233.791C63.0651 233.011 61.9568 232.251 60.6559 231.522ZM64.0046 234.839C73.1375 230.138 76.9773 236.655 78.2938 237.707C86.2737 236.083 87.834 236.892 92.2757 241.355C100.27 237.748 104.136 240.832 107.467 242.784C111.384 239.403 116.344 239.317 118.925 241.022C119.408 241.772 120.077 242.724 120.132 243.008C120.174 243.229 119.809 242.971 118.911 242.374C114.226 239.255 106.435 243.117 108.507 247.222C109.065 248.328 108.975 248.804 108.137 249.246C106.945 249.99 105.486 248.75 106.317 247.487C107.705 245.38 106.667 243.612 103.304 241.976C98.5641 239.669 90.8091 242.232 92.3975 245.624C93.4161 246.709 92.4681 247.471 91.1214 247.43C89.5965 247.383 89.0813 246.437 90.0612 245.427C91.2837 244.138 90.9657 242.829 89.5474 241.336C85.2983 235.704 76.6749 237.92 77.8071 242.851C78.3053 244.076 76.8801 244.568 75.4023 244.021C74.4619 243.673 74.6052 242.325 75.6355 241.851C76.8206 241.741 76.9917 240.151 76.8522 239.13C76.6492 237.644 74.2878 236.176 71.9514 235.395C70.2601 234.831 68.6884 234.708 67.4474 234.811C64.8277 235.029 63.3625 236.675 63.7891 239.146C64.0408 240.604 63.5981 242.115 61.7538 241.31C60.7446 240.87 61.0003 239.811 62.0334 238.837C65.6661 235.56 58.3714 231.553 53.9577 234.298C53.2094 234.866 52.6639 234.965 52.6639 234.965C55.4405 228.59 64.0855 234.578 64.0046 234.839ZM76.0226 233.999L81.5283 235.931C80.2573 236.162 79.3619 236.492 78.4612 236.822L76.0226 233.999ZM61.6299 236.05C56.5472 235.149 56.2606 240.415 59.5724 241.279C55.0034 247.077 66.9356 249.349 64.7592 242.183C70.8057 243.203 69.7237 236.821 65.2258 236.872C66.2823 234.497 74.5816 236.312 74.2205 238.077C68.6062 238.62 70.8405 243.363 73.2689 243.373C67.3895 248.514 79.1262 253.282 78.8289 245.516C83.5396 246.442 84.1049 240.645 79.5759 240.256C81.239 238.095 87.1611 239.469 88.7995 241.946C84.1222 242.513 84.4073 246.321 88.0656 246.942C83.4174 252.408 94.8281 254.45 93.6537 248.084C97.7413 249.394 99.9958 244.34 94.6993 242.885C100.133 239.897 106.019 244.374 105.38 244.464C99.1864 244.114 100.409 249.87 104.892 249.565C102.029 255.535 113.33 255.886 110.475 249.685C115.558 249.78 115.123 244.319 110.253 243.946C113.324 241.879 116.782 241.703 119.003 243.645C114.366 244.768 116.283 249.765 120.948 248.39C121.371 252.569 125.038 251.688 125.12 251.562L128.389 257.239L39.5228 257.228L47.1319 244.264C51.6147 244.485 51.462 240.484 51.2656 240.386C54.2429 242.363 57.4583 237.465 53.0992 236.052C56.6686 232.602 61.9464 235.803 61.6299 236.05ZM32.7011 235.642C32.5152 235.817 32.467 235.923 32.1614 235.66C31.3883 234.837 33.4956 234.771 32.7011 235.642ZM51.0725 237.845C51.4635 238.143 51.1928 238.956 50.8744 239.233C50.072 240.027 49.8018 239.963 50.5094 238.592C50.718 238.177 50.9158 237.84 51.0725 237.845ZM90.0053 238.276L94.6237 239.319L92.4276 240.462C91.6189 239.645 90.8398 238.939 90.0053 238.276ZM104.443 240.024L109.467 240.329C108.802 240.747 108.15 241.135 107.336 241.897C106.705 241.273 105.507 240.648 104.443 240.024ZM121.174 244.801C121.453 245.341 122.558 247.222 122.454 247.271C120.828 247.531 120.397 245.288 121.174 244.801Z" fill="#100F08"/>
</g>
</g>
</g>
</g>
</g>
</g>
</g>
</svg>
